<svg width="1920" height="451" viewBox="0 0 1920 451" fill="none" xmlns="http://www.w3.org/2000/svg">
<path d="M416.434 92.4975C231.842 97.0863 61.8978 192.24 0 239.244V450.999H1920V182.84C1527.09 8.84711 1233.79 68.5974 1059.1 92.4975C884.421 116.398 647.174 86.7615 416.434 92.4975Z" fill="#646BEE"/>
<path d="M565 101C724.824 36.9206 1071.81 -59.924 1467 78.9413" stroke="#646BEE" stroke-width="15"/>
<path d="M1470.93 82.1156C1428.11 59.572 1366.63 48.7787 1324 37L1277 88L1277.29 88.0205C1351.7 93.2483 1513.68 104.63 1470.93 82.1156Z" fill="#646BEE"/>
<mask id="mask0_945_5030" style="mask-type:alpha" maskUnits="userSpaceOnUse" x="0" y="62" width="1920" height="389">
<path d="M416.434 92.4975C231.842 97.0863 61.8978 192.24 0 239.244V450.999H1920V182.84C1527.09 8.84711 1233.79 68.5974 1059.1 92.4975C884.421 116.398 647.174 86.7615 416.434 92.4975Z" fill="#676DEA"/>
</mask>
<g mask="url(#mask0_945_5030)">
<g opacity="0.8" filter="url(#filter0_f_945_5030)">
<path d="M1607.26 142.737C1635.27 131.824 1663.35 99.6243 1690.89 111.649C1718.36 123.641 1703.47 171.014 1723.14 193.335C1742.39 215.177 1788.86 207.914 1799.49 234.853C1809.83 261.038 1785.83 289.482 1770.43 313.144C1757.67 332.756 1729.72 339.115 1718.35 359.539C1706.54 380.766 1717.73 409.284 1705.31 430.17C1691.9 452.714 1670.95 472.294 1645.97 481.206C1620.61 490.253 1590.56 490.705 1565.92 479.895C1541.43 469.149 1525.22 445.327 1511.98 422.411C1500.74 402.938 1507.11 377.251 1495.51 357.978C1483.68 338.321 1448.84 334.121 1445.26 311.556C1441.77 289.504 1473.9 276.005 1479.1 254.28C1484.95 229.823 1460.99 199.521 1476.8 179.768C1492.07 160.675 1525.22 173.675 1548.97 166.934C1569.46 161.119 1587.43 150.46 1607.26 142.737Z" fill="#CC8AFF"/>
</g>
<g opacity="0.8" filter="url(#filter1_f_945_5030)">
<path d="M365.258 126.737C393.272 115.824 421.352 83.6243 448.891 95.6485C476.357 107.641 461.465 155.014 481.141 177.335C500.395 199.177 546.861 191.914 557.494 218.853C567.83 245.038 543.833 273.482 528.434 297.144C515.671 316.756 487.718 323.115 476.352 343.539C464.539 364.766 475.734 393.284 463.308 414.17C449.896 436.714 428.952 456.294 403.969 465.206C378.608 474.253 348.557 474.705 323.922 463.895C299.433 453.149 283.219 429.327 269.983 406.411C258.736 386.938 265.107 361.251 253.507 341.978C241.677 322.321 206.836 318.121 203.264 295.556C199.774 273.504 231.897 260.005 237.095 238.28C242.947 213.823 218.995 183.521 234.797 163.768C250.071 144.675 283.222 157.675 306.97 150.934C327.457 145.119 345.433 134.46 365.258 126.737Z" fill="#CC8AFF"/>
</g>
</g>
<g opacity="0.1">
<path d="M1681.5 148.147L1681.5 149.2L1680.41 149.203L1680.4 148.15L1681.5 148.147ZM1684.95 142.602C1685.03 142.606 1685.11 142.603 1685.2 142.605L1685.18 143.697C1685.1 143.699 1685.02 143.696 1684.94 143.694C1684.03 143.627 1683.14 143.917 1682.45 144.501C1682.12 144.879 1681.87 145.317 1681.72 145.79C1681.56 146.263 1681.51 146.762 1681.55 147.258V147.336L1680.45 147.334V147.256C1680.53 146.287 1680.22 145.327 1679.59 144.585C1678.89 143.972 1677.97 143.655 1677.03 143.7C1676.96 143.7 1676.88 143.699 1676.8 143.697L1676.82 142.605C1676.9 142.605 1676.97 142.606 1677.05 142.609C1677.94 142.674 1678.83 142.387 1679.52 141.809C1679.86 141.421 1680.11 140.969 1680.27 140.481C1680.43 139.992 1680.49 139.477 1680.45 138.965L1681.55 138.967C1681.56 141.375 1682.64 142.535 1684.95 142.602ZM1682.51 143.122C1681.87 142.778 1681.34 142.241 1681.01 141.587C1680.83 141.963 1680.58 142.304 1680.28 142.595C1680.04 142.823 1679.78 143.016 1679.49 143.169C1680.13 143.501 1680.66 144.026 1680.99 144.671C1681.17 144.318 1681.4 143.996 1681.68 143.719C1681.93 143.481 1682.21 143.279 1682.51 143.122ZM1675 142.614L1675 143.706L1676.06 143.703L1676.05 142.612L1675 142.614ZM1686.93 142.566L1685.87 142.569L1685.87 143.661L1686.93 143.658L1686.93 142.566ZM1681.57 138.282L1681.56 137.229L1680.47 137.232L1680.48 138.285L1681.57 138.282ZM1752.62 145.802L1753.57 146.755L1752.62 147.708L1751.67 146.755L1752.62 145.802ZM1754.01 144.412L1754.96 145.365L1754.01 146.318L1753.06 145.365L1754.01 144.412ZM1751.16 144.412L1752.11 145.365L1751.16 146.318L1750.2 145.365L1751.16 144.412ZM1752.55 143.022L1753.5 143.975L1752.55 144.928L1751.59 143.975L1752.55 143.022ZM1750.45 135.69H1748.59V134.469H1750.45V135.69ZM1747 135.661H1745.14V134.44H1747V135.661ZM1748.4 137.702H1747.18V135.847H1748.4V137.702ZM1748.43 134.312H1747.21V132.454H1748.43V134.312ZM1694.45 135.234H1692.59V134.013H1694.45L1694.45 135.234ZM1691 135.205H1689.14V133.984H1691L1691 135.205ZM1692.41 137.247H1691.19V135.392H1692.41V137.247ZM1692.44 133.856H1691.22V131.999H1692.44V133.856ZM1744.94 212.354L1744.95 213.407L1746.04 213.404L1746.04 212.351L1744.94 212.354ZM1749.49 206.806C1749.57 206.81 1749.65 206.807 1749.74 206.809L1749.72 207.901C1749.64 207.903 1749.56 207.901 1749.48 207.898C1748.57 207.831 1747.68 208.121 1746.98 208.705C1746.66 209.083 1746.41 209.521 1746.26 209.994C1746.1 210.467 1746.04 210.966 1746.08 211.462V211.54L1744.99 211.538V211.46C1745.07 210.491 1744.76 209.531 1744.13 208.789C1743.42 208.176 1742.51 207.859 1741.57 207.904C1741.5 207.904 1741.42 207.903 1741.34 207.901L1741.36 206.809C1741.43 206.809 1741.51 206.81 1741.59 206.813C1742.48 206.878 1743.37 206.591 1744.06 206.013C1744.4 205.625 1744.65 205.173 1744.81 204.685C1744.97 204.196 1745.03 203.681 1744.99 203.169L1746.08 203.17C1746.1 205.579 1747.18 206.74 1749.49 206.806ZM1747.05 207.326C1746.4 206.982 1745.88 206.445 1745.55 205.791C1745.36 206.167 1745.12 206.508 1744.82 206.799C1744.58 207.027 1744.31 207.22 1744.02 207.373C1744.67 207.705 1745.2 208.23 1745.53 208.875C1745.71 208.522 1745.94 208.2 1746.22 207.924C1746.47 207.685 1746.75 207.483 1747.05 207.326ZM1739.54 206.818L1739.54 207.91L1740.59 207.908L1740.59 206.816L1739.54 206.818ZM1751.46 206.77L1750.41 206.773L1750.41 207.865L1751.47 207.862L1751.46 206.77ZM1746.11 202.486L1746.1 201.433L1745.01 201.436L1745.02 202.489L1746.11 202.486ZM1758.99 199.438H1757.13V198.218H1758.99L1758.99 199.438ZM1755.54 199.409H1753.68V198.188H1755.54V199.409ZM1756.95 201.451H1755.73V199.596H1756.95V201.451ZM1756.98 198.06H1755.76V196.203H1756.98V198.06ZM1684.51 210.416L1685.46 211.369L1684.51 212.322L1683.55 211.369L1684.51 210.416ZM1685.89 209.027L1686.85 209.979L1685.89 210.932L1684.94 209.98L1685.89 209.027ZM1683.04 209.027L1684 209.979L1683.04 210.932L1682.09 209.98L1683.04 209.027ZM1684.43 207.637L1685.38 208.59L1684.43 209.543L1683.48 208.59L1684.43 207.637ZM1682.33 200.305H1680.47V199.084H1682.33L1682.33 200.305ZM1678.88 200.276H1677.03V199.055H1678.88V200.276ZM1680.29 202.317H1679.07V200.462H1680.29L1680.29 202.317ZM1680.32 198.926H1679.1V197.069H1680.32L1680.32 198.926Z" fill="white"/>
<path d="M1734.23 153.25C1734.23 151.555 1733.67 149.907 1732.65 148.554C1731.63 147.201 1730.2 146.214 1728.57 145.742L1727.68 145.486V153.278H1725.16V145.486L1724.27 145.742C1723.08 146.082 1721.99 146.698 1721.09 147.54C1720.18 148.383 1719.49 149.427 1719.07 150.587C1718.65 151.748 1718.51 152.992 1718.66 154.217C1718.82 155.442 1719.26 156.613 1719.95 157.635H1707.88C1706.96 157.636 1706.05 157.88 1705.26 158.341C1704.46 158.803 1703.8 159.467 1703.34 160.265L1699.91 166.267C1699.84 166.39 1699.74 166.492 1699.62 166.564C1699.5 166.635 1699.36 166.673 1699.21 166.673H1696.78C1694.55 166.675 1692.41 167.563 1690.83 169.141C1689.25 170.72 1688.36 172.86 1688.36 175.092V178.34C1688.36 179.511 1688.83 180.634 1689.66 181.463C1690.48 182.291 1691.61 182.757 1692.78 182.759H1694.27C1694.43 184.184 1695.11 185.499 1696.18 186.454C1697.26 187.409 1698.64 187.937 1700.07 187.937C1701.51 187.937 1702.89 187.409 1703.97 186.454C1705.04 185.499 1705.72 184.184 1705.88 182.759H1719.95C1719.26 183.78 1718.82 184.952 1718.66 186.177C1718.51 187.402 1718.65 188.646 1719.07 189.806C1719.49 190.967 1720.18 192.011 1721.09 192.853C1721.99 193.695 1723.08 194.311 1724.27 194.651L1725.16 194.907V187.115H1727.68V194.907L1728.57 194.651C1729.99 194.247 1731.26 193.45 1732.24 192.353C1733.22 191.256 1733.88 189.904 1734.12 188.452C1734.37 187 1734.2 185.509 1733.64 184.149C1733.07 182.789 1732.13 181.618 1730.93 180.769V159.625C1731.95 158.906 1732.79 157.951 1733.36 156.842C1733.94 155.732 1734.24 154.5 1734.23 153.25ZM1700.07 186.537C1699.19 186.537 1698.32 186.274 1697.59 185.782C1696.85 185.29 1696.28 184.591 1695.94 183.773C1695.6 182.954 1695.51 182.054 1695.68 181.185C1695.86 180.316 1696.28 179.518 1696.91 178.892C1697.53 178.266 1698.33 177.839 1699.2 177.667C1700.07 177.494 1700.97 177.582 1701.79 177.921C1702.61 178.26 1703.31 178.834 1703.8 179.571C1704.29 180.307 1704.55 181.173 1704.55 182.059C1704.55 183.246 1704.08 184.384 1703.24 185.224C1702.4 186.063 1701.26 186.536 1700.07 186.537ZM1705.91 181.359C1705.9 181.271 1705.87 181.19 1705.86 181.103C1705.83 180.935 1705.79 180.772 1705.75 180.609C1705.7 180.409 1705.64 180.213 1705.57 180.02C1705.51 179.865 1705.45 179.714 1705.38 179.565C1705.29 179.381 1705.19 179.202 1705.09 179.028C1705 178.89 1704.92 178.754 1704.82 178.624C1704.7 178.459 1704.57 178.301 1704.43 178.15C1704.33 178.032 1704.22 177.914 1704.11 177.805C1703.95 177.663 1703.79 177.53 1703.63 177.406C1703.5 177.312 1703.39 177.214 1703.26 177.13C1703.07 177.014 1702.88 176.909 1702.68 176.816C1702.55 176.75 1702.42 176.676 1702.28 176.62C1702.05 176.532 1701.82 176.459 1701.58 176.4C1701.46 176.368 1701.34 176.321 1701.22 176.296C1700.46 176.142 1699.69 176.142 1698.93 176.296C1698.81 176.321 1698.69 176.368 1698.57 176.4C1698.33 176.459 1698.1 176.532 1697.87 176.62C1697.73 176.676 1697.6 176.75 1697.47 176.816C1697.27 176.909 1697.08 177.014 1696.89 177.13C1696.76 177.214 1696.65 177.312 1696.52 177.406C1696.36 177.53 1696.2 177.663 1696.04 177.805C1695.93 177.914 1695.82 178.032 1695.72 178.15C1695.58 178.301 1695.45 178.459 1695.33 178.624C1695.23 178.754 1695.15 178.89 1695.06 179.028C1694.96 179.202 1694.86 179.381 1694.77 179.565C1694.7 179.714 1694.64 179.865 1694.58 180.02C1694.51 180.213 1694.45 180.409 1694.4 180.609C1694.36 180.772 1694.32 180.935 1694.29 181.103C1694.28 181.19 1694.25 181.271 1694.24 181.359H1692.78C1691.98 181.358 1691.21 181.04 1690.65 180.474C1690.08 179.908 1689.76 179.14 1689.76 178.34V175.092C1689.76 173.231 1690.5 171.447 1691.82 170.131C1693.13 168.815 1694.92 168.074 1696.78 168.072H1699.21C1699.6 168.072 1699.99 167.969 1700.32 167.774C1700.66 167.578 1700.94 167.298 1701.13 166.961L1704.56 160.959C1704.89 160.375 1705.38 159.889 1705.96 159.551C1706.54 159.214 1707.2 159.035 1707.88 159.035H1721.17C1721.41 159.246 1721.65 159.443 1721.91 159.625V161.306H1716.28V168.025H1721.91V180.769C1721.65 180.951 1721.41 181.148 1721.17 181.359L1705.91 181.359ZM1721.91 166.626H1717.68V162.706H1721.89L1721.91 166.626ZM1729.85 181.732C1730.83 182.35 1731.62 183.22 1732.14 184.25C1732.66 185.28 1732.9 186.433 1732.82 187.585C1732.74 188.737 1732.35 189.847 1731.69 190.796C1731.03 191.745 1730.13 192.498 1729.08 192.976V185.716H1723.76V192.976C1722.71 192.498 1721.8 191.745 1721.15 190.796C1720.49 189.847 1720.1 188.737 1720.02 187.585C1719.94 186.433 1720.17 185.28 1720.7 184.25C1721.22 183.22 1722.01 182.35 1722.98 181.732L1723.31 181.526V168.025H1723.31L1723.31 167.325V158.868L1722.98 158.661C1722.01 158.044 1721.22 157.174 1720.7 156.144C1720.17 155.113 1719.94 153.961 1720.02 152.809C1720.1 151.656 1720.49 150.547 1721.15 149.598C1721.8 148.649 1722.71 147.895 1723.76 147.417V154.678H1729.08V147.417C1730.13 147.895 1731.03 148.649 1731.69 149.598C1732.35 150.547 1732.74 151.656 1732.82 152.809C1732.9 153.961 1732.66 155.113 1732.14 156.144C1731.62 157.174 1730.83 158.044 1729.85 158.661L1729.53 158.868V181.526L1729.85 181.732ZM1725.72 175.855H1727.12V176.919H1725.72V175.855ZM1725.72 177.939H1727.12V179.003H1725.72V177.939ZM1700.07 179.217C1699.51 179.217 1698.96 179.384 1698.5 179.696C1698.03 180.008 1697.66 180.452 1697.45 180.971C1697.23 181.491 1697.18 182.062 1697.29 182.613C1697.4 183.164 1697.67 183.671 1698.07 184.068C1698.46 184.466 1698.97 184.736 1699.52 184.846C1700.07 184.955 1700.64 184.899 1701.16 184.684C1701.68 184.469 1702.13 184.105 1702.44 183.638C1702.75 183.17 1702.92 182.621 1702.92 182.059C1702.92 181.306 1702.62 180.583 1702.08 180.05C1701.55 179.518 1700.83 179.218 1700.07 179.217ZM1700.07 183.501C1699.79 183.501 1699.51 183.416 1699.27 183.258C1699.04 183.099 1698.85 182.874 1698.74 182.611C1698.63 182.347 1698.61 182.057 1698.66 181.777C1698.72 181.498 1698.85 181.241 1699.06 181.039C1699.26 180.838 1699.51 180.7 1699.79 180.645C1700.07 180.589 1700.36 180.618 1700.63 180.727C1700.89 180.836 1701.12 181.021 1701.27 181.258C1701.43 181.495 1701.52 181.774 1701.52 182.059C1701.52 182.441 1701.36 182.808 1701.09 183.078C1700.82 183.348 1700.46 183.5 1700.07 183.501ZM1704.31 168.025H1714.61V161.306H1707.89L1704.31 168.025ZM1713.21 162.706V166.626H1706.64L1708.73 162.706H1713.21ZM1743.64 174.931H1742.88V153.452L1744.43 151.512V145.252H1736.93V151.611L1738.58 153.648V174.931H1737.72C1737.16 174.932 1736.63 175.153 1736.23 175.547C1735.84 175.94 1735.62 176.474 1735.62 177.03V193.041C1735.62 193.598 1735.84 194.131 1736.23 194.525C1736.63 194.918 1737.16 195.14 1737.72 195.14H1743.64C1744.2 195.14 1744.73 194.918 1745.13 194.525C1745.52 194.131 1745.74 193.598 1745.74 193.041V177.03C1745.74 176.474 1745.52 175.94 1745.13 175.547C1744.73 175.153 1744.2 174.932 1743.64 174.931ZM1738.33 151.117V146.652H1743.03V151.022L1741.48 152.961V174.931H1739.98V153.153L1738.33 151.117ZM1737.72 193.741C1737.53 193.741 1737.35 193.667 1737.22 193.536C1737.09 193.404 1737.02 193.227 1737.02 193.041V177.03C1737.02 176.845 1737.09 176.667 1737.22 176.536C1737.35 176.405 1737.53 176.331 1737.72 176.331H1738.58V193.741L1737.72 193.741ZM1739.98 193.741V176.331H1741.48V193.741L1739.98 193.741ZM1744.34 193.041C1744.34 193.227 1744.27 193.404 1744.14 193.536C1744.01 193.667 1743.83 193.741 1743.64 193.741H1742.88V176.331H1743.64C1743.83 176.331 1744.01 176.405 1744.14 176.536C1744.27 176.667 1744.34 176.845 1744.34 177.03V193.041Z" fill="white"/>
</g>
<path d="M27.0175 402.999H24.0004V405.977H27.0175V402.999Z" fill="white"/>
<path d="M38.5129 402.999H35.4957V405.977H38.5129V402.999Z" fill="white"/>
<path d="M50.0086 402.999H46.9915V405.977H50.0086V402.999Z" fill="white"/>
<path d="M61.5043 402.999H58.4872V405.977H61.5043V402.999Z" fill="white"/>
<path d="M72.9999 402.999H69.9828V405.977H72.9999V402.999Z" fill="white"/>
<path d="M27.0172 413.509H24V416.488H27.0172V413.509Z" fill="white"/>
<path d="M38.5128 413.509H35.4956V416.488H38.5128V413.509Z" fill="white"/>
<path d="M50.0086 413.509H46.9915V416.488H50.0086V413.509Z" fill="white"/>
<path d="M61.5042 413.509H58.4871V416.488H61.5042V413.509Z" fill="white"/>
<path d="M73.0001 413.509H69.9829V416.488H73.0001V413.509Z" fill="white"/>
<path d="M27.0172 424.02H24V426.998H27.0172V424.02Z" fill="white"/>
<path d="M38.5128 424.02H35.4956V426.998H38.5128V424.02Z" fill="white"/>
<path d="M50.0086 424.02H46.9915V426.998H50.0086V424.02Z" fill="white"/>
<path d="M61.5042 424.02H58.4871V426.998H61.5042V424.02Z" fill="white"/>
<path d="M73.0001 424.02H69.9829V426.998H73.0001V424.02Z" fill="white"/>
<path d="M1872.16 349.999H1870V352.16H1872.16V349.999Z" fill="#E6E6E6"/>
<path d="M1880.4 349.999H1878.24V352.16H1880.4V349.999Z" fill="#E6E6E6"/>
<path d="M1888.64 349.999H1886.47V352.16H1888.64V349.999Z" fill="#E6E6E6"/>
<path d="M1896.87 349.999H1894.71V352.16H1896.87V349.999Z" fill="#E6E6E6"/>
<path d="M1905.11 349.999H1902.95V352.16H1905.11V349.999Z" fill="#E6E6E6"/>
<path d="M1872.16 357.628H1870V359.79H1872.16V357.628Z" fill="#E6E6E6"/>
<path d="M1880.4 357.628H1878.24V359.79H1880.4V357.628Z" fill="#E6E6E6"/>
<path d="M1888.64 357.628H1886.47V359.79H1888.64V357.628Z" fill="#E6E6E6"/>
<path d="M1896.87 357.628H1894.71V359.79H1896.87V357.628Z" fill="#E6E6E6"/>
<path d="M1905.11 357.628H1902.95V359.79H1905.11V357.628Z" fill="#E6E6E6"/>
<path d="M1872.16 365.257H1870V367.419H1872.16V365.257Z" fill="#E6E6E6"/>
<path d="M1880.4 365.257H1878.24V367.419H1880.4V365.257Z" fill="#E6E6E6"/>
<path d="M1888.64 365.257H1886.47V367.419H1888.64V365.257Z" fill="#E6E6E6"/>
<path d="M1896.87 365.257H1894.71V367.419H1896.87V365.257Z" fill="#E6E6E6"/>
<path d="M1905.11 365.257H1902.95V367.419H1905.11V365.257Z" fill="#E6E6E6"/>
<defs>
<filter id="filter0_f_945_5030" x="745" y="-591" width="1757" height="1779" filterUnits="userSpaceOnUse" color-interpolation-filters="sRGB">
<feFlood flood-opacity="0" result="BackgroundImageFix"/>
<feBlend mode="normal" in="SourceGraphic" in2="BackgroundImageFix" result="shape"/>
<feGaussianBlur stdDeviation="350" result="effect1_foregroundBlur_945_5030"/>
</filter>
<filter id="filter1_f_945_5030" x="-497" y="-607" width="1757" height="1779" filterUnits="userSpaceOnUse" color-interpolation-filters="sRGB">
<feFlood flood-opacity="0" result="BackgroundImageFix"/>
<feBlend mode="normal" in="SourceGraphic" in2="BackgroundImageFix" result="shape"/>
<feGaussianBlur stdDeviation="350" result="effect1_foregroundBlur_945_5030"/>
</filter>
</defs>
</svg>
