<svg width="48" height="48" viewBox="0 0 48 48" fill="none" xmlns="http://www.w3.org/2000/svg">
<circle cx="24" cy="24" r="24" fill="#CC8AFF"/>
<path d="M16.2778 34.6955H28.6532C32.0436 34.6955 34.7917 31.9469 34.7917 28.5571V13.3047H22.4203C21.6063 13.3047 20.8255 13.6281 20.2499 14.2037C19.6742 14.7794 19.3508 15.5601 19.3508 16.3742L19.3467 19.3492" stroke="white" stroke-width="1.5" stroke-linecap="round" stroke-linejoin="round"/>
<path d="M13.2084 24.8114H19.3468M23.0883 24.8114H30.8822M23.0883 28.7699H30.8822M16.2779 19.3491H19.3468V31.6259C19.3465 32.4398 19.0231 33.2203 18.4476 33.7958C17.8722 34.3714 17.0918 34.695 16.2779 34.6954C15.4639 34.6951 14.6833 34.3716 14.1078 33.796C13.5322 33.2205 13.2087 32.4399 13.2084 31.6259V22.418C13.2088 21.6041 13.5324 20.8237 14.108 20.2483C14.6835 19.6728 15.464 19.3494 16.2779 19.3491ZM23.0883 17.7671H26.4938V21.1726H23.0883V17.7671Z" stroke="white" stroke-width="1.5" stroke-linecap="round" stroke-linejoin="round"/>
</svg>
