<svg width="24" height="25" viewBox="0 0 24 25" fill="none" xmlns="http://www.w3.org/2000/svg">
<circle cx="12" cy="12.1626" r="12" fill="#CC8AFF"/>
<g clip-path="url(#clip0_510_1815)">
<path d="M8.13879 17.5104H14.3265C16.0217 17.5104 17.3957 16.136 17.3957 14.4411V6.81494H11.21C10.803 6.81494 10.4126 6.97664 10.1248 7.26446C9.83699 7.55228 9.67529 7.94265 9.67529 8.34969L9.67325 9.83719" stroke="white" stroke-width="1.5" stroke-linecap="round" stroke-linejoin="round"/>
<path d="M6.60405 12.5681H9.67326M11.544 12.5681H15.441M11.544 14.5473H15.441M8.1388 9.8369H9.67326V15.9753C9.6731 16.3823 9.5114 16.7725 9.22367 17.0603C8.93595 17.3481 8.54574 17.5098 8.1388 17.5101C7.73181 17.5099 7.34153 17.3482 7.05374 17.0604C6.76595 16.7726 6.6042 16.3823 6.60405 15.9753V11.3714C6.60428 10.9644 6.76606 10.5742 7.05384 10.2865C7.34162 9.99876 7.73186 9.83705 8.1388 9.8369ZM11.544 9.0459H13.2468V10.7486H11.544V9.0459Z" stroke="white" stroke-width="1.5" stroke-linecap="round" stroke-linejoin="round"/>
</g>
<defs>
<clipPath id="clip0_510_1815">
<rect width="14" height="14" fill="white" transform="translate(4.99988 5.1626)"/>
</clipPath>
</defs>
</svg>
