<svg width="24" height="25" viewBox="0 0 24 25" fill="none" xmlns="http://www.w3.org/2000/svg">
<circle cx="12" cy="12.1626" r="12" fill="#374DA8"/>
<g clip-path="url(#clip0_510_1807)">
<path d="M11.658 6.65479L11.3012 7.46924C11.1166 7.48051 10.9329 7.50376 10.7512 7.53885L10.2056 6.83422L9.61741 7.03419L9.61448 7.93068C9.36534 8.05874 9.12659 8.21357 8.90105 8.39427L8.06984 8.02002L7.64428 8.47267L8.06981 9.27978C7.93405 9.47332 7.81474 9.6779 7.71314 9.89136L6.80053 9.91625L6.61523 10.5088L7.35206 11.0515C7.31679 11.2714 7.29956 11.4935 7.29858 11.7158L6.48047 12.1304L6.56616 12.7456L7.46412 12.9214C7.5178 13.1093 7.58436 13.2934 7.66334 13.4722L7.07156 14.2068L7.40187 14.7327L8.32179 14.5173C8.38 14.5858 8.44033 14.6525 8.50268 14.7173C8.63291 14.852 8.77163 14.9782 8.91799 15.0952L8.73928 16.0166L9.27689 16.3271L9.97927 15.7156C10.1802 15.7963 10.3872 15.8615 10.5982 15.9104L10.8274 16.8105L11.4463 16.8611L11.8184 16.0122C12.0755 15.9967 12.3318 15.9583 12.5838 15.8964L13.1749 16.5813L13.7513 16.3505L13.7344 16.0034L12.3889 14.9831C11.9972 15.0822 11.5911 15.1087 11.1921 15.0637C10.4479 14.9798 9.73268 14.6437 9.1714 14.0632C7.88848 12.7363 7.92516 10.6256 9.25198 9.34276C9.89463 8.72136 10.7213 8.40613 11.5489 8.3972C12.4299 8.38768 13.3117 8.72523 13.9732 9.40939C15.0498 10.523 15.1965 12.1981 14.4317 13.4663L15.181 14.0347C15.2741 13.8886 15.3583 13.7369 15.4329 13.5806L16.3389 13.5557L16.5242 12.9632L15.7925 12.4241C15.8278 12.2024 15.8457 11.9784 15.846 11.7539L16.659 11.3408L16.5733 10.7256L15.6761 10.5498C15.6006 10.2899 15.5006 10.0378 15.3773 9.79689L15.9119 9.0564L15.5545 8.54882L14.6742 8.80443C14.6631 8.79271 14.6524 8.78082 14.6412 8.76927C14.5026 8.6259 14.3543 8.49227 14.1973 8.36933L14.3658 7.49921L13.8281 7.18869L13.1602 7.77027C12.9439 7.68325 12.7218 7.61551 12.4966 7.56519L12.2776 6.70532L11.658 6.65479ZM10.2949 10.2524C10.0525 10.2552 9.81218 10.3147 9.5918 10.4231L10.6516 11.2273C10.9722 11.4705 11.0631 11.9327 10.8171 12.2571C10.5711 12.5817 10.0986 12.6305 9.77344 12.3838L8.71434 11.5803C8.6059 12.1614 8.81126 12.7771 9.3142 13.1587C9.76526 13.5008 10.3441 13.5649 10.8428 13.3858L10.9548 13.3455L11.0493 13.4173L14.2178 15.8211L14.3123 15.8929L14.3042 16.0115C14.2658 16.54 14.4821 17.0805 14.9333 17.4229C15.4363 17.8044 16.0852 17.8361 16.6157 17.5752L15.5566 16.7718C15.2315 16.5251 15.1516 16.0568 15.3977 15.7325C15.6438 15.4081 16.1134 15.3714 16.4341 15.6145L17.4932 16.418C17.6014 15.8372 17.3968 15.2211 16.894 14.8397C16.4414 14.4961 15.8671 14.428 15.3713 14.6045L15.26 14.6441L15.1656 14.5723L11.997 12.1685L11.9026 12.0967L11.9107 11.9788C11.947 11.4541 11.7267 10.9196 11.2742 10.5762C10.9802 10.3532 10.6361 10.2486 10.2949 10.2525L10.2949 10.2524ZM11.3159 12.3677L15.1567 15.282L14.8923 15.6313L11.0508 12.7163L11.3159 12.3677Z" fill="white"/>
</g>
<defs>
<clipPath id="clip0_510_1807">
<rect width="12" height="12" fill="white" transform="translate(6 6.1626)"/>
</clipPath>
</defs>
</svg>
