<svg width="18" height="11" viewBox="0 0 18 11" fill="none" xmlns="http://www.w3.org/2000/svg">
<path d="M17.1792 4.85191C16.8002 4.37809 15.7767 3.16511 14.3553 2.06585C12.5358 0.701253 10.7353 0 8.99163 0C7.24797 0 5.44746 0.701252 3.64695 2.0848C2.22549 3.18407 1.18309 4.39704 0.822986 4.87086C0.614506 5.1362 0.614506 5.4963 0.822986 5.76164C1.20204 6.23546 2.22549 7.44844 3.64695 8.5477C5.46641 9.93125 7.26693 10.6325 8.99163 10.6325C10.7163 10.6325 12.5358 9.93125 14.3363 8.5477C15.7578 7.44844 16.8002 6.23546 17.1603 5.76164C17.3877 5.4963 17.3877 5.11725 17.1792 4.85191ZM8.99163 9.85544C5.27689 9.85544 2.07387 6.12174 1.42947 5.30678C2.09282 4.49181 5.27689 0.758111 8.99163 0.758111C12.7064 0.758111 15.9094 4.49181 16.5538 5.30678C15.9094 6.12174 12.7064 9.85544 8.99163 9.85544Z" fill="#63636B"/>
<path d="M8.99156 2.12305C7.22895 2.12305 5.8075 3.5445 5.8075 5.30711C5.8075 7.06972 7.22895 8.49118 8.99156 8.49118C10.7542 8.49118 12.1756 7.06972 12.1756 5.30711C12.1756 3.5445 10.7542 2.12305 8.99156 2.12305ZM8.99156 7.73307C7.64591 7.73307 6.56561 6.63381 6.56561 5.30711C6.56561 3.98042 7.64591 2.88116 8.99156 2.88116C10.3372 2.88116 11.4175 3.96147 11.4175 5.30711C11.4175 6.65276 10.3372 7.73307 8.99156 7.73307Z" fill="#63636B"/>
</svg>
