<svg width="16" height="18" viewBox="0 0 16 18" fill="none" xmlns="http://www.w3.org/2000/svg">
<path d="M7.69529 3.86809C6.41792 3.86813 5.16925 4.23564 4.10717 4.92414C3.0451 5.61263 2.21732 6.5912 1.72852 7.7361C1.23972 8.88099 1.11185 10.1408 1.36108 11.3562C1.61031 12.5716 2.22544 13.688 3.12869 14.5642C4.03194 15.4405 5.18274 16.0372 6.43556 16.2789C7.68839 16.5207 8.98698 16.3966 10.1671 15.9224C11.3472 15.4481 12.3559 14.645 13.0656 13.6147C13.7752 12.5843 14.154 11.3729 14.154 10.1337C14.1521 8.4725 13.471 6.87987 12.2602 5.70524C11.0493 4.5306 9.40764 3.8699 7.69529 3.86809ZM12.104 14.1134L11.3905 13.4206C11.3705 13.4005 11.3466 13.3845 11.3202 13.3734C11.2938 13.3623 11.2653 13.3565 11.2365 13.3562C11.2077 13.356 11.1792 13.3613 11.1525 13.3718C11.1258 13.3824 11.1016 13.398 11.0813 13.4178C11.0609 13.4375 11.0448 13.461 11.0339 13.4869C11.023 13.5127 11.0176 13.5404 11.0178 13.5684C11.0181 13.5963 11.0241 13.6239 11.0355 13.6496C11.0469 13.6752 11.0635 13.6984 11.0842 13.7178L11.7983 14.4107C10.7401 15.3697 9.3601 15.9251 7.9129 15.9746V14.9923C7.91379 14.9641 7.90884 14.9361 7.89834 14.9098C7.88785 14.8836 7.87203 14.8596 7.85182 14.8394C7.83161 14.8192 7.80742 14.8031 7.78069 14.7922C7.75395 14.7812 7.72522 14.7755 7.69619 14.7755C7.66716 14.7755 7.63843 14.7812 7.6117 14.7922C7.58497 14.8031 7.56078 14.8192 7.54057 14.8394C7.52036 14.8596 7.50453 14.8836 7.49404 14.9098C7.48355 14.9361 7.4786 14.9641 7.47948 14.9923V15.9747C6.03224 15.9252 4.65223 15.3698 3.59385 14.4109L4.30815 13.718C4.32826 13.6984 4.34421 13.6753 4.35509 13.6498C4.36596 13.6243 4.37156 13.5969 4.37155 13.5693C4.37154 13.5417 4.36593 13.5144 4.35503 13.4889C4.34414 13.4634 4.32817 13.4403 4.30805 13.4207C4.28792 13.4012 4.26404 13.3858 4.23775 13.3752C4.21146 13.3647 4.18329 13.3592 4.15484 13.3592C4.12639 13.3592 4.09822 13.3647 4.07194 13.3753C4.04566 13.3858 4.02178 13.4013 4.00167 13.4208L3.28757 14.1136C2.29907 13.0869 1.72655 11.7481 1.67561 10.344H2.68853C2.74598 10.344 2.80107 10.3219 2.84169 10.2825C2.88231 10.2431 2.90514 10.1896 2.90514 10.1339C2.90514 10.0782 2.88231 10.0247 2.84169 9.98531C2.80107 9.94591 2.74598 9.92377 2.68853 9.92377H1.6744C1.72547 8.51975 2.29797 7.18097 3.28637 6.15419L4.00046 6.84716C4.04151 6.88464 4.09599 6.90514 4.15235 6.90432C4.20871 6.90349 4.26252 6.8814 4.30238 6.84274C4.34224 6.80407 4.36501 6.75186 4.36586 6.69718C4.36671 6.64251 4.34558 6.58966 4.30694 6.54984L3.59264 5.85668C4.65102 4.89779 6.03103 4.34239 7.47828 4.29286V5.27553C7.47999 5.33017 7.50358 5.38203 7.54403 5.42009C7.58448 5.45816 7.63863 5.47945 7.69498 5.47945C7.75134 5.47945 7.80548 5.45816 7.84594 5.42009C7.88639 5.38203 7.90997 5.33017 7.91169 5.27553V4.29267C9.35889 4.34215 10.7389 4.89756 11.7971 5.85648L11.083 6.54945C11.0629 6.56896 11.0469 6.59212 11.036 6.61762C11.0251 6.64311 11.0195 6.67044 11.0195 6.69804C11.0195 6.72564 11.0251 6.75297 11.036 6.77847C11.0469 6.80397 11.0628 6.82715 11.0829 6.84667C11.103 6.86619 11.1269 6.88168 11.1532 6.89225C11.1795 6.90282 11.2076 6.90827 11.2361 6.90828C11.2645 6.90828 11.2927 6.90286 11.319 6.8923C11.3453 6.88175 11.3692 6.86628 11.3893 6.84677L12.1036 6.1538C13.0919 7.18064 13.6644 8.51939 13.7156 9.92338H12.7035C12.646 9.92338 12.5909 9.94552 12.5503 9.98492C12.5097 10.0243 12.4868 10.0778 12.4868 10.1335C12.4868 10.1892 12.5097 10.2427 12.5503 10.2821C12.5909 10.3215 12.646 10.3437 12.7035 10.3437H13.7164C13.6653 11.7478 13.0926 13.0867 12.104 14.1134ZM7.91209 9.18897V6.46559C7.91038 6.41094 7.88679 6.35909 7.84634 6.32102C7.80589 6.28296 7.75174 6.26167 7.69539 6.26167C7.63903 6.26167 7.58489 6.28296 7.54443 6.32102C7.50398 6.35909 7.4804 6.41094 7.47868 6.46559V9.18897C7.23873 9.24075 7.02692 9.37662 6.88385 9.57054C6.74077 9.76445 6.6765 10.0028 6.70335 10.2398C6.7302 10.4769 6.84628 10.696 7.02934 10.8551C7.21241 11.0143 7.44957 11.1023 7.69539 11.1023C7.9412 11.1023 8.17837 11.0143 8.36143 10.8551C8.54449 10.696 8.66057 10.4769 8.68742 10.2398C8.71427 10.0028 8.65 9.76445 8.50693 9.57054C8.36385 9.37662 8.15204 9.24075 7.91209 9.18897ZM7.69529 10.6812C7.5837 10.6812 7.47462 10.6491 7.38184 10.589C7.28906 10.5289 7.21675 10.4434 7.17405 10.3434C7.13134 10.2433 7.12017 10.1333 7.14194 10.0271C7.16371 9.92095 7.21744 9.82343 7.29635 9.74688C7.37525 9.67033 7.47578 9.61821 7.58522 9.59709C7.69466 9.57597 7.8081 9.58681 7.91119 9.62823C8.01428 9.66966 8.1024 9.73981 8.16439 9.82982C8.22638 9.91983 8.25947 10.0257 8.25947 10.1339C8.25947 10.2791 8.20003 10.4183 8.09423 10.5209C7.98842 10.6236 7.84492 10.6812 7.69529 10.6812ZM15.1319 5.8989C15.3035 5.89899 15.4714 5.84968 15.6142 5.75719C15.7569 5.66471 15.8682 5.53322 15.9339 5.37935C15.9996 5.22549 16.0168 5.05618 15.9833 4.89284C15.9498 4.7295 15.8671 4.57948 15.7456 4.46176L14.5943 3.34461C14.4431 3.1982 14.2416 3.11101 14.0283 3.09971C13.8151 3.08841 13.605 3.15379 13.4383 3.28335C13.2716 3.41291 13.16 3.59755 13.1248 3.80195C13.0896 4.00634 13.1334 4.21613 13.2477 4.39119L12.9392 4.69027C11.7949 3.64921 10.3487 2.97406 8.79605 2.75603V1.82184C9.02668 1.77694 9.23187 1.65049 9.37177 1.46704C9.51167 1.28359 9.57629 1.05624 9.55309 0.829157C9.52988 0.602073 9.4205 0.391462 9.24619 0.238233C9.07189 0.0850045 8.8451 9.59383e-05 8.60987 0H6.7809C6.54569 0.000144291 6.31894 0.085087 6.14467 0.238332C5.9704 0.391576 5.86106 0.602184 5.83788 0.829254C5.8147 1.05632 5.87933 1.28365 6.01923 1.46708C6.15913 1.6505 6.36431 1.77695 6.59492 1.82184V2.75603C4.9553 2.98481 3.43568 3.72113 2.26222 4.85537C1.08876 5.98962 0.324223 7.46115 0.0823947 9.05094C-0.159434 10.6407 0.134379 12.2638 0.920102 13.6785C1.70582 15.0932 2.94145 16.224 4.44305 16.9025C5.94466 17.581 7.63197 17.7709 9.25382 17.444C10.8757 17.1172 12.3454 16.2909 13.4442 15.0883C14.5429 13.8858 15.212 12.3711 15.3519 10.7698C15.4917 9.16857 15.0949 7.56629 14.2203 6.2015L14.6672 5.76793C14.8061 5.85351 14.9673 5.89894 15.1319 5.8989ZM13.673 3.64193C13.7548 3.56331 13.8652 3.5192 13.9803 3.5192C14.0954 3.5192 14.2059 3.56331 14.2876 3.64193L15.4392 4.75908C15.4795 4.79824 15.5115 4.84472 15.5333 4.89588C15.5552 4.94704 15.5664 5.00188 15.5664 5.05725C15.5664 5.11262 15.5551 5.16745 15.5333 5.2186C15.5114 5.26975 15.4794 5.31623 15.4391 5.35538C15.3987 5.39453 15.3508 5.42558 15.298 5.44676C15.2453 5.46794 15.1888 5.47884 15.1317 5.47883C15.0746 5.47882 15.0181 5.4679 14.9654 5.4467C14.9127 5.42551 14.8647 5.39444 14.8244 5.35528L13.673 4.23833C13.592 4.159 13.5465 4.05182 13.5465 3.94013C13.5465 3.82843 13.592 3.72126 13.673 3.64193ZM6.26628 0.919914C6.26639 0.787519 6.32063 0.660573 6.41711 0.566937C6.5136 0.473302 6.64443 0.420626 6.7809 0.42047H8.60987C8.74641 0.42047 8.87736 0.47309 8.97391 0.566754C9.07045 0.660418 9.12469 0.787453 9.12469 0.919914C9.12469 1.05237 9.07045 1.17941 8.97391 1.27307C8.87736 1.36674 8.74641 1.41936 8.60987 1.41936H6.7809C6.64443 1.4192 6.5136 1.36653 6.41711 1.27289C6.32063 1.17925 6.26639 1.05231 6.26628 0.919914ZM7.02813 1.83983H8.36264V2.70774C8.14261 2.6882 7.91935 2.6792 7.69529 2.6792C7.47122 2.6792 7.24817 2.68917 7.02813 2.70774V1.83983ZM7.69529 17.1677C6.26125 17.1677 4.85942 16.7552 3.66706 15.9823C2.47471 15.2094 1.54538 14.1108 0.996595 12.8255C0.447814 11.5402 0.304228 10.1259 0.583994 8.76144C0.86376 7.39697 1.55431 6.14362 2.56833 5.1599C3.58235 4.17617 4.87428 3.50624 6.28076 3.23483C7.68724 2.96342 9.1451 3.10272 10.47 3.63511C11.7949 4.1675 12.9272 5.06907 13.7239 6.22581C14.5207 7.38255 14.9459 8.74251 14.9459 10.1337C14.9437 11.9986 14.1791 13.7865 12.8198 15.1052C11.4605 16.4239 9.6176 17.1656 7.69529 17.1677ZM13.2475 4.98563L13.5391 4.70278L14.345 5.48469L13.9753 5.84319C13.7549 5.54027 13.5116 5.25363 13.2475 4.98563Z" fill="#63636B"/>
</svg>
