<svg width="211" height="56" viewBox="0 0 211 56" fill="none" xmlns="http://www.w3.org/2000/svg">
<rect width="211" height="56" rx="4" fill="#FDA12A"/>
<path d="M30.3636 35H25.4347V20.4545H30.4631C31.9072 20.4545 33.1477 20.7457 34.1847 21.3281C35.2263 21.9058 36.0265 22.7367 36.5852 23.821C37.1439 24.9053 37.4233 26.2027 37.4233 27.7131C37.4233 29.2282 37.1416 30.5303 36.5781 31.6193C36.0194 32.7083 35.2121 33.544 34.1562 34.1264C33.1051 34.7088 31.8409 35 30.3636 35ZM28.0696 32.7202H30.2358C31.2491 32.7202 32.0942 32.5355 32.7713 32.1662C33.4484 31.7921 33.9574 31.2358 34.2983 30.4972C34.6392 29.7538 34.8097 28.8258 34.8097 27.7131C34.8097 26.6004 34.6392 25.6771 34.2983 24.9432C33.9574 24.2045 33.4531 23.6529 32.7855 23.2884C32.1226 22.919 31.2988 22.7344 30.3139 22.7344H28.0696V32.7202ZM44.6428 35.2131C43.549 35.2131 42.6044 34.9858 41.8089 34.5312C41.0182 34.072 40.4098 33.4233 39.9837 32.5852C39.5575 31.7424 39.3445 30.7505 39.3445 29.6094C39.3445 28.4872 39.5575 27.5024 39.9837 26.6548C40.4145 25.8026 41.0159 25.1397 41.7876 24.6662C42.5594 24.188 43.4661 23.9489 44.5078 23.9489C45.1802 23.9489 45.8146 24.0578 46.4112 24.2756C47.0125 24.4886 47.5429 24.8201 48.0021 25.2699C48.4661 25.7197 48.8307 26.2926 49.0959 26.9886C49.361 27.6799 49.4936 28.5038 49.4936 29.4602V30.2486H40.5518V28.5156H47.0291C47.0244 28.0232 46.9179 27.5852 46.7095 27.2017C46.5012 26.8134 46.21 26.508 45.8359 26.2855C45.4666 26.063 45.0357 25.9517 44.5433 25.9517C44.0178 25.9517 43.5561 26.0795 43.1584 26.3352C42.7607 26.5862 42.4505 26.9176 42.228 27.3295C42.0102 27.7367 41.8989 28.1842 41.8942 28.6719V30.1847C41.8942 30.8191 42.0102 31.3636 42.2422 31.8182C42.4742 32.268 42.7985 32.6136 43.2152 32.8551C43.6319 33.0919 44.1196 33.2102 44.6783 33.2102C45.0523 33.2102 45.3909 33.1581 45.6939 33.054C45.9969 32.9451 46.2597 32.7865 46.4822 32.5781C46.7048 32.3698 46.8729 32.1117 46.9865 31.804L49.3871 32.0739C49.2356 32.7083 48.9467 33.2623 48.5206 33.7358C48.0992 34.2045 47.5594 34.5691 46.9013 34.8295C46.2431 35.0852 45.4903 35.2131 44.6428 35.2131ZM51.6687 35V24.0909H54.1261V25.9446H54.2539C54.4812 25.3196 54.8576 24.8319 55.3832 24.4815C55.9087 24.1264 56.5361 23.9489 57.2653 23.9489C58.0039 23.9489 58.6265 24.1288 59.1332 24.4886C59.6445 24.8437 60.0044 25.3291 60.2127 25.9446H60.3263C60.5678 25.3385 60.975 24.8556 61.5479 24.4957C62.1256 24.1312 62.8098 23.9489 63.6005 23.9489C64.6043 23.9489 65.4234 24.2661 66.0579 24.9006C66.6924 25.535 67.0096 26.4607 67.0096 27.6776V35H64.4315V28.0753C64.4315 27.3982 64.2515 26.9034 63.8917 26.5909C63.5318 26.2737 63.0915 26.1151 62.5707 26.1151C61.9504 26.1151 61.4651 26.3092 61.1147 26.6974C60.7691 27.081 60.5962 27.5805 60.5962 28.196V35H58.0749V27.9688C58.0749 27.4053 57.9045 26.9555 57.5636 26.6193C57.2274 26.2831 56.7871 26.1151 56.2425 26.1151C55.8732 26.1151 55.5371 26.2098 55.234 26.3991C54.931 26.5838 54.6895 26.8466 54.5096 27.1875C54.3297 27.5237 54.2397 27.9167 54.2397 28.3665V35H51.6687ZM74.3764 35.2131C73.3111 35.2131 72.3878 34.9787 71.6065 34.5099C70.8253 34.0412 70.2192 33.3854 69.7884 32.5426C69.3622 31.6998 69.1491 30.715 69.1491 29.5881C69.1491 28.4612 69.3622 27.474 69.7884 26.6264C70.2192 25.7789 70.8253 25.1207 71.6065 24.652C72.3878 24.1832 73.3111 23.9489 74.3764 23.9489C75.4418 23.9489 76.3651 24.1832 77.1463 24.652C77.9276 25.1207 78.5313 25.7789 78.9574 26.6264C79.3883 27.474 79.6037 28.4612 79.6037 29.5881C79.6037 30.715 79.3883 31.6998 78.9574 32.5426C78.5313 33.3854 77.9276 34.0412 77.1463 34.5099C76.3651 34.9787 75.4418 35.2131 74.3764 35.2131ZM74.3906 33.1534C74.9683 33.1534 75.4512 32.9948 75.8395 32.6776C76.2277 32.3556 76.5166 31.9247 76.706 31.3849C76.9001 30.8452 76.9972 30.2438 76.9972 29.581C76.9972 28.9134 76.9001 28.3097 76.706 27.7699C76.5166 27.2254 76.2277 26.7921 75.8395 26.4702C75.4512 26.1482 74.9683 25.9872 74.3906 25.9872C73.7988 25.9872 73.3063 26.1482 72.9134 26.4702C72.5251 26.7921 72.2339 27.2254 72.0398 27.7699C71.8504 28.3097 71.7557 28.9134 71.7557 29.581C71.7557 30.2438 71.8504 30.8452 72.0398 31.3849C72.2339 31.9247 72.5251 32.3556 72.9134 32.6776C73.3063 32.9948 73.7988 33.1534 74.3906 33.1534ZM86.8604 35V20.4545H96.3207V22.6634H89.4954V26.6122H95.8306V28.821H89.4954V32.7912H96.3775V35H86.8604ZM100.998 24.0909L103.199 28.1179L105.436 24.0909H108.157L104.868 29.5455L108.213 35H105.507L103.199 31.0724L100.912 35H98.185L101.509 29.5455L98.2702 24.0909H100.998ZM110.145 39.0909V24.0909H112.674V25.8949H112.823C112.955 25.6297 113.142 25.348 113.384 25.0497C113.625 24.7467 113.952 24.4886 114.364 24.2756C114.776 24.0578 115.301 23.9489 115.941 23.9489C116.783 23.9489 117.543 24.1643 118.221 24.5952C118.902 25.0213 119.442 25.6534 119.84 26.4915C120.242 27.3248 120.444 28.3475 120.444 29.5597C120.444 30.7576 120.247 31.7756 119.854 32.6136C119.461 33.4517 118.926 34.0909 118.249 34.5312C117.572 34.9716 116.805 35.1918 115.948 35.1918C115.323 35.1918 114.804 35.0876 114.392 34.8793C113.98 34.6709 113.649 34.42 113.398 34.1264C113.152 33.8281 112.96 33.5464 112.823 33.2812H112.716V39.0909H110.145ZM112.667 29.5455C112.667 30.2509 112.766 30.8688 112.965 31.3991C113.168 31.9295 113.46 32.3437 113.838 32.642C114.222 32.9356 114.686 33.0824 115.23 33.0824C115.799 33.0824 116.275 32.9309 116.658 32.6278C117.042 32.3201 117.33 31.901 117.525 31.3707C117.723 30.8357 117.823 30.2273 117.823 29.5455C117.823 28.8684 117.726 28.267 117.532 27.7415C117.337 27.2159 117.049 26.804 116.665 26.5057C116.282 26.2074 115.803 26.0582 115.23 26.0582C114.681 26.0582 114.215 26.2027 113.831 26.4915C113.448 26.7803 113.157 27.1851 112.958 27.706C112.764 28.2268 112.667 28.84 112.667 29.5455ZM125.216 20.4545V35H122.645V20.4545H125.216ZM132.619 35.2131C131.553 35.2131 130.63 34.9787 129.849 34.5099C129.067 34.0412 128.461 33.3854 128.031 32.5426C127.604 31.6998 127.391 30.715 127.391 29.5881C127.391 28.4612 127.604 27.474 128.031 26.6264C128.461 25.7789 129.067 25.1207 129.849 24.652C130.63 24.1832 131.553 23.9489 132.619 23.9489C133.684 23.9489 134.607 24.1832 135.388 24.652C136.17 25.1207 136.773 25.7789 137.2 26.6264C137.63 27.474 137.846 28.4612 137.846 29.5881C137.846 30.715 137.63 31.6998 137.2 32.5426C136.773 33.3854 136.17 34.0412 135.388 34.5099C134.607 34.9787 133.684 35.2131 132.619 35.2131ZM132.633 33.1534C133.21 33.1534 133.693 32.9948 134.082 32.6776C134.47 32.3556 134.759 31.9247 134.948 31.3849C135.142 30.8452 135.239 30.2438 135.239 29.581C135.239 28.9134 135.142 28.3097 134.948 27.7699C134.759 27.2254 134.47 26.7921 134.082 26.4702C133.693 26.1482 133.21 25.9872 132.633 25.9872C132.041 25.9872 131.549 26.1482 131.156 26.4702C130.767 26.7921 130.476 27.2254 130.282 27.7699C130.093 28.3097 129.998 28.9134 129.998 29.581C129.998 30.2438 130.093 30.8452 130.282 31.3849C130.476 31.9247 130.767 32.3556 131.156 32.6776C131.549 32.9948 132.041 33.1534 132.633 33.1534ZM140.028 35V24.0909H142.521V25.9091H142.635C142.833 25.2794 143.174 24.794 143.657 24.4531C144.145 24.1075 144.701 23.9347 145.326 23.9347C145.468 23.9347 145.627 23.9418 145.802 23.956C145.982 23.9654 146.131 23.982 146.25 24.0057V26.3707C146.141 26.3329 145.968 26.2997 145.731 26.2713C145.499 26.2382 145.274 26.2216 145.056 26.2216C144.588 26.2216 144.166 26.3234 143.792 26.527C143.423 26.7259 143.132 27.0028 142.919 27.358C142.706 27.7131 142.599 28.1226 142.599 28.5866V35H140.028ZM152.338 35.2131C151.244 35.2131 150.3 34.9858 149.504 34.5312C148.714 34.072 148.105 33.4233 147.679 32.5852C147.253 31.7424 147.04 30.7505 147.04 29.6094C147.04 28.4872 147.253 27.5024 147.679 26.6548C148.11 25.8026 148.711 25.1397 149.483 24.6662C150.255 24.188 151.161 23.9489 152.203 23.9489C152.875 23.9489 153.51 24.0578 154.107 24.2756C154.708 24.4886 155.238 24.8201 155.697 25.2699C156.161 25.7197 156.526 26.2926 156.791 26.9886C157.056 27.6799 157.189 28.5038 157.189 29.4602V30.2486H148.247V28.5156H154.724C154.72 28.0232 154.613 27.5852 154.405 27.2017C154.196 26.8134 153.905 26.508 153.531 26.2855C153.162 26.063 152.731 25.9517 152.239 25.9517C151.713 25.9517 151.251 26.0795 150.854 26.3352C150.456 26.5862 150.146 26.9176 149.923 27.3295C149.705 27.7367 149.594 28.1842 149.589 28.6719V30.1847C149.589 30.8191 149.705 31.3636 149.938 31.8182C150.17 32.268 150.494 32.6136 150.911 32.8551C151.327 33.0919 151.815 33.2102 152.374 33.2102C152.748 33.2102 153.086 33.1581 153.389 33.054C153.692 32.9451 153.955 32.7865 154.178 32.5781C154.4 32.3698 154.568 32.1117 154.682 31.804L157.082 32.0739C156.931 32.7083 156.642 33.2623 156.216 33.7358C155.795 34.2045 155.255 34.5691 154.597 34.8295C153.938 35.0852 153.186 35.2131 152.338 35.2131Z" fill="white"/>
<path d="M169 22V24H177.59L168 33.59L169.41 35L179 25.41V34H181V22H169Z" fill="white"/>
</svg>
