<svg width="184" height="48" viewBox="0 0 184 48" fill="none" xmlns="http://www.w3.org/2000/svg">
<rect width="184" height="48" rx="4" fill="#646BEE"/>
<path d="M29.0909 30H25.1477V18.3636H29.1705C30.3258 18.3636 31.3182 18.5966 32.1477 19.0625C32.9811 19.5246 33.6212 20.1894 34.0682 21.0568C34.5152 21.9242 34.7386 22.9621 34.7386 24.1705C34.7386 25.3826 34.5133 26.4242 34.0625 27.2955C33.6155 28.1667 32.9697 28.8352 32.125 29.3011C31.2841 29.767 30.2727 30 29.0909 30ZM27.2557 28.1761H28.9886C29.7992 28.1761 30.4754 28.0284 31.017 27.733C31.5587 27.4337 31.9659 26.9886 32.2386 26.3977C32.5114 25.803 32.6477 25.0606 32.6477 24.1705C32.6477 23.2803 32.5114 22.5417 32.2386 21.9545C31.9659 21.3636 31.5625 20.9223 31.0284 20.6307C30.4981 20.3352 29.839 20.1875 29.0511 20.1875H27.2557V28.1761ZM40.5142 30.1705C39.6392 30.1705 38.8835 29.9886 38.2472 29.625C37.6146 29.2576 37.1278 28.7386 36.7869 28.0682C36.446 27.3939 36.2756 26.6004 36.2756 25.6875C36.2756 24.7898 36.446 24.0019 36.7869 23.3239C37.1316 22.642 37.6127 22.1117 38.2301 21.733C38.8475 21.3504 39.5729 21.1591 40.4062 21.1591C40.9441 21.1591 41.4517 21.2462 41.929 21.4205C42.41 21.5909 42.8343 21.8561 43.2017 22.2159C43.5729 22.5758 43.8646 23.0341 44.0767 23.5909C44.2888 24.1439 44.3949 24.803 44.3949 25.5682V26.1989H37.2415V24.8125H42.4233C42.4195 24.4186 42.3343 24.0682 42.1676 23.7614C42.0009 23.4508 41.768 23.2064 41.4688 23.0284C41.1733 22.8504 40.8286 22.7614 40.4347 22.7614C40.0142 22.7614 39.6449 22.8636 39.3267 23.0682C39.0085 23.2689 38.7604 23.5341 38.5824 23.8636C38.4081 24.1894 38.3191 24.5473 38.3153 24.9375V26.1477C38.3153 26.6553 38.4081 27.0909 38.5938 27.4545C38.7794 27.8144 39.0388 28.0909 39.3722 28.2841C39.7055 28.4735 40.0956 28.5682 40.5426 28.5682C40.8419 28.5682 41.1127 28.5265 41.3551 28.4432C41.5975 28.3561 41.8078 28.2292 41.9858 28.0625C42.1638 27.8958 42.2983 27.6894 42.3892 27.4432L44.3097 27.6591C44.1884 28.1667 43.9574 28.6098 43.6165 28.9886C43.2794 29.3636 42.8475 29.6553 42.321 29.8636C41.7945 30.0682 41.1922 30.1705 40.5142 30.1705ZM46.1349 30V21.2727H48.1009V22.7557H48.2031C48.3849 22.2557 48.6861 21.8655 49.1065 21.5852C49.527 21.3011 50.0289 21.1591 50.6122 21.1591C51.2031 21.1591 51.7012 21.303 52.1065 21.5909C52.5156 21.875 52.8035 22.2633 52.9702 22.7557H53.0611C53.2543 22.2708 53.58 21.8845 54.0384 21.5966C54.5005 21.3049 55.0478 21.1591 55.6804 21.1591C56.4834 21.1591 57.1387 21.4129 57.6463 21.9205C58.1539 22.428 58.4077 23.1686 58.4077 24.142V30H56.3452V24.4602C56.3452 23.9186 56.2012 23.5227 55.9134 23.2727C55.6255 23.0189 55.2732 22.892 54.8565 22.892C54.3603 22.892 53.9721 23.0473 53.6918 23.358C53.4152 23.6648 53.277 24.0644 53.277 24.5568V30H51.2599V24.375C51.2599 23.9242 51.1236 23.5644 50.8509 23.2955C50.5819 23.0265 50.2296 22.892 49.794 22.892C49.4986 22.892 49.2296 22.9678 48.9872 23.1193C48.7448 23.267 48.5516 23.4773 48.4077 23.75C48.2637 24.0189 48.1918 24.3333 48.1918 24.6932V30H46.1349ZM64.3011 30.1705C63.4489 30.1705 62.7102 29.983 62.0852 29.608C61.4602 29.233 60.9754 28.7083 60.6307 28.0341C60.2898 27.3598 60.1193 26.572 60.1193 25.6705C60.1193 24.7689 60.2898 23.9792 60.6307 23.3011C60.9754 22.6231 61.4602 22.0966 62.0852 21.7216C62.7102 21.3466 63.4489 21.1591 64.3011 21.1591C65.1534 21.1591 65.892 21.3466 66.517 21.7216C67.142 22.0966 67.625 22.6231 67.9659 23.3011C68.3106 23.9792 68.483 24.7689 68.483 25.6705C68.483 26.572 68.3106 27.3598 67.9659 28.0341C67.625 28.7083 67.142 29.233 66.517 29.608C65.892 29.983 65.1534 30.1705 64.3011 30.1705ZM64.3125 28.5227C64.7746 28.5227 65.161 28.3958 65.4716 28.142C65.7822 27.8845 66.0133 27.5398 66.1648 27.108C66.3201 26.6761 66.3977 26.1951 66.3977 25.6648C66.3977 25.1307 66.3201 24.6477 66.1648 24.2159C66.0133 23.7803 65.7822 23.4337 65.4716 23.1761C65.161 22.9186 64.7746 22.7898 64.3125 22.7898C63.839 22.7898 63.4451 22.9186 63.1307 23.1761C62.8201 23.4337 62.5871 23.7803 62.4318 24.2159C62.2803 24.6477 62.2045 25.1307 62.2045 25.6648C62.2045 26.1951 62.2803 26.6761 62.4318 27.108C62.5871 27.5398 62.8201 27.8845 63.1307 28.142C63.4451 28.3958 63.839 28.5227 64.3125 28.5227ZM74.2884 30V18.3636H81.8565V20.1307H76.3963V23.2898H81.4645V25.0568H76.3963V28.233H81.902V30H74.2884ZM85.598 21.2727L87.3594 24.4943L89.1491 21.2727H91.3253L88.6946 25.6364L91.3707 30H89.206L87.3594 26.858L85.5298 30H83.348L86.0071 25.6364L83.4162 21.2727H85.598ZM92.9162 33.2727V21.2727H94.9389V22.7159H95.0582C95.1643 22.5038 95.3139 22.2784 95.5071 22.0398C95.7003 21.7973 95.9616 21.5909 96.2912 21.4205C96.6207 21.2462 97.0412 21.1591 97.5526 21.1591C98.2268 21.1591 98.8348 21.3314 99.3764 21.6761C99.9219 22.017 100.354 22.5227 100.672 23.1932C100.994 23.8598 101.155 24.678 101.155 25.6477C101.155 26.6061 100.998 27.4205 100.683 28.0909C100.369 28.7614 99.9408 29.2727 99.3991 29.625C98.8575 29.9773 98.2438 30.1534 97.5582 30.1534C97.0582 30.1534 96.6435 30.0701 96.3139 29.9034C95.9844 29.7367 95.7192 29.536 95.5185 29.3011C95.3215 29.0625 95.1681 28.8371 95.0582 28.625H94.973V33.2727H92.9162ZM94.9332 25.6364C94.9332 26.2008 95.0128 26.6951 95.1719 27.1193C95.3348 27.5436 95.5677 27.875 95.8707 28.1136C96.1776 28.3485 96.5488 28.4659 96.9844 28.4659C97.4389 28.4659 97.8196 28.3447 98.1264 28.1023C98.4332 27.8561 98.6643 27.5208 98.8196 27.0966C98.9787 26.6686 99.0582 26.1818 99.0582 25.6364C99.0582 25.0947 98.9806 24.6136 98.8253 24.1932C98.67 23.7727 98.4389 23.4432 98.1321 23.2045C97.8253 22.9659 97.4427 22.8466 96.9844 22.8466C96.545 22.8466 96.1719 22.9621 95.8651 23.1932C95.5582 23.4242 95.3253 23.7481 95.1662 24.1648C95.0109 24.5814 94.9332 25.072 94.9332 25.6364ZM104.973 18.3636V30H102.916V18.3636H104.973ZM110.895 30.1705C110.043 30.1705 109.304 29.983 108.679 29.608C108.054 29.233 107.569 28.7083 107.224 28.0341C106.884 27.3598 106.713 26.572 106.713 25.6705C106.713 24.7689 106.884 23.9792 107.224 23.3011C107.569 22.6231 108.054 22.0966 108.679 21.7216C109.304 21.3466 110.043 21.1591 110.895 21.1591C111.747 21.1591 112.486 21.3466 113.111 21.7216C113.736 22.0966 114.219 22.6231 114.56 23.3011C114.904 23.9792 115.077 24.7689 115.077 25.6705C115.077 26.572 114.904 27.3598 114.56 28.0341C114.219 28.7083 113.736 29.233 113.111 29.608C112.486 29.983 111.747 30.1705 110.895 30.1705ZM110.906 28.5227C111.368 28.5227 111.755 28.3958 112.065 28.142C112.376 27.8845 112.607 27.5398 112.759 27.108C112.914 26.6761 112.991 26.1951 112.991 25.6648C112.991 25.1307 112.914 24.6477 112.759 24.2159C112.607 23.7803 112.376 23.4337 112.065 23.1761C111.755 22.9186 111.368 22.7898 110.906 22.7898C110.433 22.7898 110.039 22.9186 109.724 23.1761C109.414 23.4337 109.181 23.7803 109.026 24.2159C108.874 24.6477 108.798 25.1307 108.798 25.6648C108.798 26.1951 108.874 26.6761 109.026 27.108C109.181 27.5398 109.414 27.8845 109.724 28.142C110.039 28.3958 110.433 28.5227 110.906 28.5227ZM116.822 30V21.2727H118.817V22.7273H118.908C119.067 22.2235 119.339 21.8352 119.726 21.5625C120.116 21.286 120.561 21.1477 121.061 21.1477C121.175 21.1477 121.302 21.1534 121.442 21.1648C121.586 21.1723 121.705 21.1856 121.8 21.2045V23.0966C121.713 23.0663 121.574 23.0398 121.385 23.017C121.199 22.9905 121.019 22.9773 120.845 22.9773C120.47 22.9773 120.133 23.0587 119.834 23.2216C119.538 23.3807 119.305 23.6023 119.135 23.8864C118.964 24.1705 118.879 24.4981 118.879 24.8693V30H116.822ZM126.67 30.1705C125.795 30.1705 125.04 29.9886 124.403 29.625C123.771 29.2576 123.284 28.7386 122.943 28.0682C122.602 27.3939 122.432 26.6004 122.432 25.6875C122.432 24.7898 122.602 24.0019 122.943 23.3239C123.288 22.642 123.769 22.1117 124.386 21.733C125.004 21.3504 125.729 21.1591 126.562 21.1591C127.1 21.1591 127.608 21.2462 128.085 21.4205C128.566 21.5909 128.991 21.8561 129.358 22.2159C129.729 22.5758 130.021 23.0341 130.233 23.5909C130.445 24.1439 130.551 24.803 130.551 25.5682V26.1989H123.398V24.8125H128.58C128.576 24.4186 128.491 24.0682 128.324 23.7614C128.157 23.4508 127.924 23.2064 127.625 23.0284C127.33 22.8504 126.985 22.7614 126.591 22.7614C126.17 22.7614 125.801 22.8636 125.483 23.0682C125.165 23.2689 124.917 23.5341 124.739 23.8636C124.564 24.1894 124.475 24.5473 124.472 24.9375V26.1477C124.472 26.6553 124.564 27.0909 124.75 27.4545C124.936 27.8144 125.195 28.0909 125.528 28.2841C125.862 28.4735 126.252 28.5682 126.699 28.5682C126.998 28.5682 127.269 28.5265 127.511 28.4432C127.754 28.3561 127.964 28.2292 128.142 28.0625C128.32 27.8958 128.455 27.6894 128.545 27.4432L130.466 27.6591C130.345 28.1667 130.114 28.6098 129.773 28.9886C129.436 29.3636 129.004 29.6553 128.477 29.8636C127.951 30.0682 127.348 30.1705 126.67 30.1705Z" fill="white"/>
<path d="M142 18V20H150.59L141 29.59L142.41 31L152 21.41V30H154V18H142Z" fill="white"/>
</svg>
