<svg width="32" height="32" viewBox="0 0 32 32" fill="none" xmlns="http://www.w3.org/2000/svg">
<circle cx="16" cy="16" r="16" fill="#23ADE6"/>
<g clip-path="url(#clip0_510_577)">
<path d="M22.1335 22.6665C22.3202 22.6665 22.4135 22.6665 22.4848 22.6301C22.5475 22.5982 22.5985 22.5472 22.6305 22.4845C22.6668 22.4132 22.6668 22.3198 22.6668 22.1331V15.1998C22.6668 15.0131 22.6668 14.9198 22.6305 14.8485C22.5985 14.7857 22.5475 14.7348 22.4848 14.7028C22.4135 14.6665 22.3202 14.6665 22.1335 14.6665L20.5335 14.6665C20.3468 14.6665 20.2535 14.6665 20.1822 14.7028C20.1194 14.7348 20.0685 14.7857 20.0365 14.8485C20.0002 14.9198 20.0002 15.0131 20.0002 15.1998V16.7998C20.0002 16.9865 20.0002 17.0798 19.9638 17.1511C19.9319 17.2138 19.8809 17.2648 19.8182 17.2968C19.7469 17.3331 19.6535 17.3331 19.4668 17.3331H17.8668C17.6801 17.3331 17.5868 17.3331 17.5155 17.3695C17.4528 17.4014 17.4018 17.4524 17.3698 17.5151C17.3335 17.5864 17.3335 17.6798 17.3335 17.8665V19.4665C17.3335 19.6531 17.3335 19.7465 17.2972 19.8178C17.2652 19.8805 17.2142 19.9315 17.1515 19.9635C17.0802 19.9998 16.9868 19.9998 16.8002 19.9998H15.2002C15.0135 19.9998 14.9201 19.9998 14.8488 20.0361C14.7861 20.0681 14.7351 20.1191 14.7032 20.1818C14.6668 20.2531 14.6668 20.3464 14.6668 20.5331V22.1331C14.6668 22.3198 14.6668 22.4132 14.7032 22.4845C14.7351 22.5472 14.7861 22.5982 14.8488 22.6301C14.9201 22.6665 15.0135 22.6665 15.2002 22.6665L22.1335 22.6665Z" stroke="white" stroke-linecap="round" stroke-linejoin="round"/>
<path d="M14.6668 12.5331C14.6668 12.3464 14.6668 12.2531 14.7032 12.1818C14.7351 12.1191 14.7861 12.0681 14.8488 12.0361C14.9201 11.9998 15.0135 11.9998 15.2002 11.9998H16.8002C16.9868 11.9998 17.0802 11.9998 17.1515 12.0361C17.2142 12.0681 17.2652 12.1191 17.2972 12.1818C17.3335 12.2531 17.3335 12.3464 17.3335 12.5331V14.1331C17.3335 14.3198 17.3335 14.4132 17.2972 14.4845C17.2652 14.5472 17.2142 14.5982 17.1515 14.6301C17.0802 14.6665 16.9868 14.6665 16.8002 14.6665H15.2002C15.0135 14.6665 14.9201 14.6665 14.8488 14.6301C14.7861 14.5982 14.7351 14.5472 14.7032 14.4845C14.6668 14.4132 14.6668 14.3198 14.6668 14.1331V12.5331Z" stroke="white" stroke-linecap="round" stroke-linejoin="round"/>
<path d="M10.0002 16.5331C10.0002 16.3464 10.0002 16.2531 10.0365 16.1818C10.0685 16.1191 10.1194 16.0681 10.1822 16.0361C10.2535 15.9998 10.3468 15.9998 10.5335 15.9998H12.1335C12.3202 15.9998 12.4135 15.9998 12.4848 16.0361C12.5475 16.0681 12.5985 16.1191 12.6305 16.1818C12.6668 16.2531 12.6668 16.3464 12.6668 16.5331V18.1331C12.6668 18.3198 12.6668 18.4132 12.6305 18.4845C12.5985 18.5472 12.5475 18.5982 12.4848 18.6301C12.4135 18.6665 12.3202 18.6665 12.1335 18.6665H10.5335C10.3468 18.6665 10.2535 18.6665 10.1822 18.6301C10.1194 18.5982 10.0685 18.5472 10.0365 18.4845C10.0002 18.4132 10.0002 18.3198 10.0002 18.1331V16.5331Z" stroke="white" stroke-linecap="round" stroke-linejoin="round"/>
<path d="M9.3335 9.86646C9.3335 9.67978 9.3335 9.58644 9.36983 9.51513C9.40179 9.45241 9.45278 9.40142 9.5155 9.36946C9.5868 9.33313 9.68015 9.33313 9.86683 9.33313H11.4668C11.6535 9.33313 11.7469 9.33313 11.8182 9.36946C11.8809 9.40142 11.9319 9.45241 11.9638 9.51513C12.0002 9.58644 12.0002 9.67978 12.0002 9.86646V11.4665C12.0002 11.6531 12.0002 11.7465 11.9638 11.8178C11.9319 11.8805 11.8809 11.9315 11.8182 11.9635C11.7469 11.9998 11.6535 11.9998 11.4668 11.9998H9.86683C9.68015 11.9998 9.5868 11.9998 9.5155 11.9635C9.45278 11.9315 9.40179 11.8805 9.36983 11.8178C9.3335 11.7465 9.3335 11.6531 9.3335 11.4665V9.86646Z" stroke="white" stroke-linecap="round" stroke-linejoin="round"/>
</g>
<defs>
<clipPath id="clip0_510_577">
<rect width="16" height="16" fill="white" transform="translate(8.00012 7.99982)"/>
</clipPath>
</defs>
</svg>
