<svg width="32" height="32" viewBox="0 0 32 32" fill="none" xmlns="http://www.w3.org/2000/svg">
<circle cx="16" cy="16" r="16" fill="#575BB5"/>
<g clip-path="url(#clip0_510_583)">
<path d="M17.3333 9.51303V12.2667C17.3333 12.6401 17.3333 12.8268 17.406 12.9694C17.4699 13.0948 17.5719 13.1968 17.6973 13.2607C17.8399 13.3334 18.0266 13.3334 18.4 13.3334H21.1537M17.3333 19.3333H13.3333M18.6666 16.6667H13.3333M21.3333 14.6588V19.4667C21.3333 20.5868 21.3333 21.1468 21.1153 21.5747C20.9236 21.951 20.6176 22.2569 20.2413 22.4487C19.8134 22.6667 19.2534 22.6667 18.1333 22.6667H13.8666C12.7465 22.6667 12.1865 22.6667 11.7586 22.4487C11.3823 22.2569 11.0764 21.951 10.8846 21.5747C10.6666 21.1468 10.6666 20.5868 10.6666 19.4667V12.5333C10.6666 11.4132 10.6666 10.8532 10.8846 10.4254C11.0764 10.049 11.3823 9.74308 11.7586 9.55133C12.1865 9.33334 12.7465 9.33334 13.8666 9.33334H16.0078C16.497 9.33334 16.7416 9.33334 16.9718 9.3886C17.1758 9.4376 17.3709 9.51841 17.5499 9.62806C17.7517 9.75175 17.9246 9.9247 18.2706 10.2706L20.396 12.3961C20.7419 12.742 20.9149 12.9149 21.0386 13.1168C21.1482 13.2957 21.229 13.4908 21.278 13.6949C21.3333 13.9251 21.3333 14.1696 21.3333 14.6588Z" stroke="white" stroke-linecap="round" stroke-linejoin="round"/>
</g>
<defs>
<clipPath id="clip0_510_583">
<rect width="16" height="16" fill="white" transform="translate(8 8)"/>
</clipPath>
</defs>
</svg>
