<svg width="32" height="32" viewBox="0 0 32 32" fill="none" xmlns="http://www.w3.org/2000/svg">
<circle cx="16" cy="16" r="16" fill="#FFCF4A"/>
<g clip-path="url(#clip0_510_589)">
<g clip-path="url(#clip1_510_589)">
<path d="M13 11C13 10.0795 13.7462 9.33334 14.6667 9.33334C15.5872 9.33334 16.3334 10.0795 16.3334 11V12H17C17.9319 12 18.3979 12 18.7654 12.1523C19.2555 12.3552 19.6448 12.7446 19.8478 13.2346C20 13.6022 20 14.0681 20 15H21C21.9205 15 22.6667 15.7462 22.6667 16.6667C22.6667 17.5872 21.9205 18.3333 21 18.3333H20V19.4667C20 20.5868 20 21.1468 19.7821 21.5747C19.5903 21.951 19.2843 22.2569 18.908 22.4487C18.4802 22.6667 17.9201 22.6667 16.8 22.6667H16.3334V21.5C16.3334 20.6716 15.6618 20 14.8334 20C14.0049 20 13.3334 20.6716 13.3334 21.5V22.6667H12.5334C11.4133 22.6667 10.8532 22.6667 10.4254 22.4487C10.0491 22.2569 9.74311 21.951 9.55136 21.5747C9.33337 21.1468 9.33337 20.5868 9.33337 19.4667V18.3333H10.3334C11.2538 18.3333 12 17.5872 12 16.6667C12 15.7462 11.2538 15 10.3334 15H9.33337C9.33337 14.0681 9.33337 13.6022 9.48561 13.2346C9.6886 12.7446 10.078 12.3552 10.568 12.1523C10.9355 12 11.4015 12 12.3334 12H13V11Z" stroke="white" stroke-linecap="round" stroke-linejoin="round"/>
</g>
</g>
<defs>
<clipPath id="clip0_510_589">
<rect width="16" height="16" fill="white" transform="translate(8 8)"/>
</clipPath>
<clipPath id="clip1_510_589">
<rect width="16" height="16" fill="white" transform="translate(8 8)"/>
</clipPath>
</defs>
</svg>
