<svg width="24" height="25" viewBox="0 0 24 25" fill="none" xmlns="http://www.w3.org/2000/svg">
<ellipse cx="12" cy="12.0496" rx="12" ry="11.9876" fill="#2B74E6"/>
<g clip-path="url(#clip0_510_1919)">
<g clip-path="url(#clip1_510_1919)">
<path d="M8.22 6.27421L7.31 7.48754C7.12976 7.72787 7.03964 7.84803 7.04173 7.94861C7.04355 8.03614 7.08459 8.11822 7.15352 8.17219C7.23273 8.23421 7.38293 8.23421 7.68333 8.23421H16.3167C16.6171 8.23421 16.7673 8.23421 16.8465 8.17219C16.9154 8.11822 16.9564 8.03614 16.9583 7.94861C16.9604 7.84803 16.8702 7.72787 16.69 7.48754L15.78 6.27421M8.22 6.27421C8.32267 6.13732 8.374 6.06888 8.43906 6.01951C8.49668 5.97579 8.56193 5.94317 8.63147 5.92331C8.71 5.90088 8.79556 5.90088 8.96667 5.90088H15.0333C15.2044 5.90088 15.29 5.90088 15.3685 5.92331C15.4381 5.94317 15.5033 5.97579 15.5609 6.01951C15.626 6.06888 15.6773 6.13732 15.78 6.27421M8.22 6.27421L7.12333 7.73643C6.98481 7.92112 6.91556 8.01347 6.86637 8.11517C6.82273 8.20541 6.7909 8.30089 6.77167 8.39927C6.75 8.51014 6.75 8.62557 6.75 8.85643L6.75 15.7009C6.75 16.3543 6.75 16.681 6.87716 16.9305C6.98901 17.1501 7.16749 17.3285 7.38701 17.4404C7.63657 17.5675 7.96327 17.5675 8.61667 17.5675L15.3833 17.5675C16.0367 17.5675 16.3634 17.5675 16.613 17.4404C16.8325 17.3285 17.011 17.1501 17.1228 16.9305C17.25 16.681 17.25 16.3543 17.25 15.7009V8.85643C17.25 8.62557 17.25 8.51014 17.2283 8.39927C17.2091 8.3009 17.1773 8.20541 17.1336 8.11517C17.0844 8.01347 17.0152 7.92113 16.8767 7.73643L15.78 6.27421M14.3333 10.5675C14.3333 11.1864 14.0875 11.7799 13.6499 12.2175C13.2123 12.655 12.6188 12.9009 12 12.9009C11.3812 12.9009 10.7877 12.655 10.3501 12.2175C9.9125 11.7799 9.66667 11.1864 9.66667 10.5675" stroke="white" stroke-linecap="round" stroke-linejoin="round"/>
</g>
</g>
<defs>
<clipPath id="clip0_510_1919">
<rect width="13.4983" height="13.486" fill="white" transform="translate(5.25 5.30664)"/>
</clipPath>
<clipPath id="clip1_510_1919">
<rect width="14" height="14" fill="white" transform="translate(5 4.73413)"/>
</clipPath>
</defs>
</svg>
