<svg width="48" height="48" viewBox="0 0 48 48" fill="none" xmlns="http://www.w3.org/2000/svg">
<circle cx="24" cy="24" r="24" fill="#2B74E6"/>
<path d="M17.52 14.64L15.96 16.72C15.651 17.132 15.4965 17.338 15.5001 17.5104C15.5032 17.6604 15.5736 17.8012 15.6918 17.8937C15.8275 18 16.085 18 16.6 18H31.4C31.915 18 32.1725 18 32.3083 17.8937C32.4264 17.8012 32.4968 17.6604 32.4999 17.5104C32.5035 17.338 32.349 17.132 32.04 16.72L30.48 14.64M17.52 14.64C17.696 14.4053 17.784 14.288 17.8955 14.2034C17.9943 14.1284 18.1062 14.0725 18.2254 14.0384C18.36 14 18.5067 14 18.8 14H29.2C29.4933 14 29.64 14 29.7746 14.0384C29.8938 14.0725 30.0057 14.1284 30.1045 14.2034C30.216 14.288 30.304 14.4053 30.48 14.64M17.52 14.64L15.64 17.1467C15.4025 17.4633 15.2838 17.6216 15.1995 17.7959C15.1247 17.9506 15.0701 18.1143 15.0372 18.283C15 18.473 15 18.6709 15 19.0667L15 30.8C15 31.9201 15 32.4802 15.218 32.908C15.4097 33.2843 15.7157 33.5903 16.092 33.782C16.5198 34 17.0799 34 18.2 34L29.8 34C30.9201 34 31.4802 34 31.908 33.782C32.2843 33.5903 32.5903 33.2843 32.782 32.908C33 32.4802 33 31.9201 33 30.8V19.0667C33 18.6709 33 18.473 32.9628 18.283C32.9299 18.1143 32.8753 17.9506 32.8005 17.7959C32.7162 17.6216 32.5975 17.4633 32.36 17.1467L30.48 14.64M28 22C28 23.0609 27.5786 24.0783 26.8284 24.8284C26.0783 25.5786 25.0609 26 24 26C22.9391 26 21.9217 25.5786 21.1716 24.8284C20.4214 24.0783 20 23.0609 20 22" stroke="white" stroke-width="2" stroke-linecap="round" stroke-linejoin="round"/>
</svg>
