<svg width="82" height="38" viewBox="0 0 82 38" fill="none" xmlns="http://www.w3.org/2000/svg">
<path d="M15.4372 15.0488C14.8308 15.0495 14.2495 15.225 13.8207 15.5368C13.3919 15.8485 13.1505 16.2712 13.1495 16.7121C13.1505 17.3449 13.4967 17.9516 14.1122 18.3991C14.7277 18.8465 15.5621 19.0982 16.4325 19.0989H24.291V18.0756C24.2895 17.2732 23.8504 16.5039 23.07 15.9365C22.2895 15.3691 21.2315 15.0499 20.1278 15.0488H15.4372Z" fill="#646BEE"/>
<path d="M6.31946 7.19379L8.66658 5.96391L12.1984 0.199247H6.64999C5.20315 0.195578 3.79629 0.544222 2.65374 1.18958C1.51119 1.83494 0.698758 2.73985 0.345987 3.76001C-0.00678322 4.78017 0.120428 5.85684 0.707335 6.81831C1.29424 7.77979 2.30705 8.5707 3.58424 9.06494C4.38267 8.35909 5.30185 7.73029 6.31946 7.19379Z" fill="#646BEE"/>
<path d="M75.3554 0.199239H69.807L73.3351 5.9639L75.6822 7.19243C76.6999 7.72941 77.6191 8.35866 78.4175 9.06493C79.6944 8.5708 80.707 7.78012 81.294 6.81892C81.8809 5.85772 82.0084 4.78133 81.6561 3.76132C81.3039 2.74131 80.4921 1.8364 79.3501 1.19083C78.2082 0.545253 76.8019 0.196177 75.3554 0.199239Z" fill="#646BEE"/>
<path d="M73.5131 9.37948L70.3564 7.72299L69.498 0.430664C68.3036 3.21004 62.5743 5.65814 59.8227 7.77402C57.0711 9.88989 53.6916 11.5213 49.9416 12.544L45.8304 15.8597C45.5757 16.0568 45.298 16.2375 45.0004 16.3997H54.3889C54.8783 15.231 55.87 14.2071 57.2184 13.4782C58.5669 12.7493 60.2011 12.3537 61.8815 12.3496H66.572C68.1624 12.3517 69.6869 12.8122 70.8111 13.6301C71.9354 14.448 72.5678 15.5566 72.5698 16.7129C72.5678 18.0616 71.83 19.3546 70.5183 20.3083C69.2066 21.262 67.428 21.7984 65.573 21.7998H57.7146V22.2291C57.7131 23.1891 57.1879 24.1094 56.2543 24.7882C55.3206 25.467 54.0547 25.8489 52.7344 25.8499H29.2705C27.9501 25.8489 26.6843 25.467 25.7506 24.7882C24.817 24.1094 24.2918 23.1891 24.2903 22.2291V21.7998H16.4319C14.5768 21.7984 12.7983 21.262 11.4866 20.3083C10.1748 19.3546 9.43706 18.0616 9.43509 16.7129C9.43705 15.5561 10.07 14.4471 11.1951 13.6291C12.3201 12.8112 13.8455 12.351 15.4366 12.3496H20.1271C21.8074 12.3537 23.4417 12.7493 24.7902 13.4782C26.1386 14.2071 27.1303 15.231 27.6197 16.3997H37.0082C36.7105 16.2375 36.4328 16.0568 36.1782 15.8597L32.0615 12.5413C28.3024 11.5306 24.9144 9.90355 22.1606 7.78648C19.4068 5.66941 13.553 3.21573 12.3747 0.430664L11.6522 7.72973L8.49178 9.37948C7.06062 10.1318 5.89507 11.12 5.09072 12.2631C4.28636 13.4061 3.8661 14.6715 3.86438 15.9555V25.8499C3.86848 26.7936 4.21376 27.7199 4.86558 28.536C5.51741 29.352 6.45288 30.0292 7.57819 30.4995V33.9907C7.58015 35.0536 8.16182 36.0727 9.19566 36.8243C10.2295 37.5759 11.6311 37.9988 13.0932 38.0003H24.346C25.0788 37.9973 25.8036 37.8888 26.4784 37.681C27.1531 37.4732 27.7646 37.1702 28.2774 36.7896C28.7902 36.409 29.1942 35.9583 29.466 35.4635C29.7378 34.9687 29.8721 34.4397 29.861 33.907V31.2501H52.1439V33.9907C52.1458 35.0536 52.7275 36.0727 53.7613 36.8243C54.7952 37.5759 56.1968 37.9988 57.6589 38.0003H68.9117C69.6445 37.9973 70.3692 37.8888 71.044 37.681C71.7188 37.4732 72.3303 37.1702 72.8431 36.7896C73.3559 36.409 73.7599 35.9583 74.0317 35.4635C74.3035 34.9687 74.4377 34.4397 74.4267 33.907V30.4995C75.552 30.0292 76.4875 29.352 77.1393 28.536C77.7911 27.7199 78.1364 26.7936 78.1405 25.8499V15.9555C78.1388 14.6715 77.7185 13.4061 76.9142 12.2631C76.1098 11.12 74.9443 10.1318 73.5131 9.37948ZM26.1472 33.9907C26.1467 34.3379 25.9568 34.6707 25.6191 34.9162C25.2814 35.1618 24.8236 35.2998 24.346 35.3002H13.0932C12.8452 35.2965 12.6009 35.2565 12.3747 35.1825C12.1486 35.1085 11.9453 35.002 11.7771 34.8695C11.6089 34.737 11.4792 34.5812 11.3959 34.4114C11.3125 34.2416 11.2772 34.0613 11.292 33.8813V31.2501H26.1472V33.9907ZM70.7129 33.9907C70.7124 34.3379 70.5225 34.6707 70.1848 34.9162C69.8471 35.1618 69.3892 35.2998 68.9117 35.3002H57.6589C57.1813 35.2998 56.7234 35.1618 56.3858 34.9162C56.0481 34.6707 55.8582 34.3379 55.8577 33.9907V31.2501H70.7129V33.9907Z" fill="#646BEE"/>
<path d="M68.8564 16.7121C68.8554 16.2712 68.6141 15.8485 68.1852 15.5368C67.7564 15.225 67.1751 15.0495 66.5687 15.0488H61.8781C60.7745 15.0499 59.7164 15.3691 58.936 15.9365C58.1555 16.5039 57.7164 17.2732 57.715 18.0756V19.0989H65.5734C66.4438 19.0982 67.2783 18.8465 67.8937 18.3991C68.5092 17.9516 68.8554 17.3449 68.8564 16.7121Z" fill="#646BEE"/>
<path d="M28.004 20.4496V22.229C28.0045 22.4731 28.1381 22.7071 28.3755 22.8797C28.6129 23.0522 28.9347 23.1494 29.2704 23.1497H52.7343C53.07 23.1494 53.3918 23.0522 53.6292 22.8797C53.8666 22.7071 54.0002 22.4731 54.0007 22.229V19.0996H28.004V20.4496Z" fill="#646BEE"/>
</svg>
