<svg width="49" height="49" viewBox="0 0 49 49" fill="none" xmlns="http://www.w3.org/2000/svg">
<ellipse cx="24.0825" cy="24.9644" rx="23.997" ry="24" fill="#646BEE"/>
<path d="M34 34V32C34 30.1362 32.7252 28.5701 31 28.126M27.5 16.2908C28.9659 16.8841 30 18.3213 30 20C30 21.6787 28.9659 23.1159 27.5 23.7092M29 34C29 32.1362 29 31.2044 28.6955 30.4693C28.2895 29.4892 27.5108 28.7105 26.5307 28.3045C25.7956 28 24.8638 28 23 28H20C18.1362 28 17.2044 28 16.4693 28.3045C15.4892 28.7105 14.7105 29.4892 14.3045 30.4693C14 31.2044 14 32.1362 14 34M25.5 20C25.5 22.2091 23.7091 24 21.5 24C19.2909 24 17.5 22.2091 17.5 20C17.5 17.7909 19.2909 16 21.5 16C23.7091 16 25.5 17.7909 25.5 20Z" stroke="white" stroke-width="2" stroke-linecap="round" stroke-linejoin="round"/>
</svg>
