<svg width="24" height="25" viewBox="0 0 24 25" fill="none" xmlns="http://www.w3.org/2000/svg">
<circle cx="12" cy="12.3076" r="12" fill="#646BEE"/>
<g clip-path="url(#clip0_510_1889)">
<g clip-path="url(#clip1_510_1889)">
<path d="M19.7488 18.4683V17.0516C19.7488 15.7314 18.8459 14.6221 17.6238 14.3075M15.1447 5.92422C16.183 6.34453 16.9155 7.36252 16.9155 8.55159C16.9155 9.74067 16.183 10.7587 15.1447 11.179M16.2072 18.4683C16.2072 17.1481 16.2072 16.488 15.9915 15.9673C15.7039 15.2731 15.1524 14.7215 14.4581 14.4339C13.9374 14.2183 13.2773 14.2183 11.9572 14.2183H9.83217C8.512 14.2183 7.85192 14.2183 7.33123 14.4339C6.63699 14.7215 6.08541 15.2731 5.79784 15.9673C5.58217 16.488 5.58217 17.1481 5.58217 18.4683M13.728 8.55159C13.728 10.1164 12.4595 11.3849 10.8947 11.3849C9.32986 11.3849 8.06134 10.1164 8.06134 8.55159C8.06134 6.98679 9.32986 5.71826 10.8947 5.71826C12.4595 5.71826 13.728 6.98679 13.728 8.55159Z" stroke="white" stroke-width="1.5" stroke-linecap="round" stroke-linejoin="round"/>
</g>
</g>
<defs>
<clipPath id="clip0_510_1889">
<rect width="13.4983" height="13.5" fill="white" transform="translate(5.25 5.55762)"/>
</clipPath>
<clipPath id="clip1_510_1889">
<rect width="17" height="17" fill="white" transform="translate(4.1655 3.59326)"/>
</clipPath>
</defs>
</svg>
