<svg width="24" height="25" viewBox="0 0 24 25" fill="none" xmlns="http://www.w3.org/2000/svg">
<circle cx="12" cy="12.3076" r="12" fill="#374DA8"/>
<g clip-path="url(#clip0_510_1897)">
<path d="M11.6145 6.11133L11.2132 7.02759C11.0055 7.04026 10.7988 7.06642 10.5945 7.1059L9.98073 6.3132L9.31915 6.53816L9.31585 7.5467C9.03561 7.69078 8.76704 7.86496 8.51334 8.06825L7.57834 7.64722L7.09965 8.15645L7.57832 9.06445C7.4256 9.28219 7.2914 9.51233 7.17711 9.75248L6.15055 9.78048L5.94212 10.447L6.77095 11.0577C6.73127 11.305 6.71189 11.5549 6.71079 11.805L5.79053 12.2714L5.88691 12.9635L6.89699 13.1613C6.95738 13.3727 7.03225 13.5797 7.12109 13.7809L6.45542 14.6074L6.82697 15.1989L7.86175 14.9567C7.92723 15.0338 7.99509 15.1088 8.06523 15.1816C8.21173 15.3332 8.36777 15.4752 8.5324 15.6068L8.33137 16.6434L8.93611 16.9927L9.72618 16.3047C9.95226 16.3956 10.185 16.4689 10.4224 16.5239L10.6803 17.5365L11.3764 17.5934L11.7949 16.6384C12.0841 16.621 12.3724 16.5777 12.6559 16.5082L13.3208 17.2786L13.9691 17.0191L13.9502 16.6285L12.4367 15.4807C11.9961 15.5921 11.5392 15.6219 11.0905 15.5713C10.2533 15.4769 9.44881 15.0988 8.81745 14.4458C7.37434 12.9531 7.4156 10.5785 8.90808 9.1353C9.63098 8.43623 10.5608 8.08159 11.4917 8.07154C12.4828 8.06084 13.4747 8.44058 14.2188 9.21026C15.4298 10.463 15.5949 12.3476 14.7345 13.7743L15.5774 14.4137C15.6821 14.2493 15.7768 14.0787 15.8608 13.9028L16.8799 13.8748L17.0883 13.2082L16.2653 12.6018C16.305 12.3524 16.3251 12.1004 16.3254 11.8479L17.2399 11.3831L17.1436 10.691L16.1343 10.4932C16.0494 10.2009 15.9369 9.91723 15.7982 9.64619L16.3996 8.81315L15.9975 8.24211L15.0073 8.52967C14.9948 8.51649 14.9828 8.50312 14.9702 8.49012C14.8143 8.32883 14.6475 8.1785 14.4709 8.04019L14.6604 7.06131L14.0556 6.71197L13.3042 7.36625C13.061 7.26835 12.8112 7.19215 12.5578 7.13554L12.3115 6.16818L11.6145 6.11133ZM10.0813 10.1587C9.80854 10.1618 9.53823 10.2288 9.29033 10.3506L10.4825 11.2554C10.8431 11.529 10.9453 12.0489 10.6686 12.4139C10.3919 12.7791 9.86043 12.834 9.49465 12.5565L8.30332 11.6526C8.18134 12.3063 8.41234 12.999 8.97808 13.4282C9.48545 13.8131 10.1366 13.8852 10.6975 13.6837L10.8236 13.6383L10.9298 13.7191L14.4939 16.4234L14.6002 16.5042L14.5911 16.6377C14.548 17.2322 14.7912 17.8403 15.2988 18.2254C15.8646 18.6547 16.5945 18.6903 17.1912 18.3968L15.9999 17.4929C15.6342 17.2154 15.5443 16.6886 15.8212 16.3237C16.098 15.9588 16.6263 15.9175 16.9869 16.191L18.1783 17.095C18.3 16.4415 18.0699 15.7485 17.5043 15.3193C16.9952 14.9328 16.3491 14.8562 15.7915 15.0548L15.6663 15.0993L15.56 15.0185L11.9959 12.3142L11.8897 12.2335L11.8987 12.1008C11.9396 11.5106 11.6918 10.9092 11.1828 10.5229C10.8521 10.272 10.4651 10.1543 10.0813 10.1587L10.0813 10.1587ZM11.2297 12.5383L15.5501 15.8169L15.2527 16.21L10.9315 12.9305L11.2297 12.5383Z" fill="white"/>
</g>
<defs>
<clipPath id="clip0_510_1897">
<rect width="13.4983" height="13.5" fill="white" transform="translate(5.25 5.55762)"/>
</clipPath>
</defs>
</svg>
