<svg width="49" height="49" viewBox="0 0 49 49" fill="none" xmlns="http://www.w3.org/2000/svg">
<ellipse cx="24.0825" cy="24.9644" rx="23.997" ry="24" fill="#374DA8"/>
<g clip-path="url(#clip0_510_464)">
<path d="M23.3986 13.9487L22.6853 15.5776C22.316 15.6002 21.9486 15.6467 21.5854 15.7169L20.4942 14.3076L19.318 14.7075L19.3122 16.5005C18.814 16.7566 18.3365 17.0663 17.8855 17.4277L16.2233 16.6792L15.3723 17.5845L16.2232 19.1987C15.9517 19.5858 15.7131 19.995 15.51 20.4219L13.685 20.4717L13.3144 21.6567L14.7879 22.7422C14.7174 23.1819 14.6829 23.6262 14.6809 24.0708L13.0449 24.8999L13.2163 26.1304L15.012 26.4819C15.1193 26.8578 15.2524 27.2259 15.4104 27.5835L14.227 29.0528L14.8875 30.1045L16.7271 29.6738C16.8435 29.8108 16.9641 29.9442 17.0888 30.0737C17.3493 30.3431 17.6267 30.5956 17.9194 30.8295L17.562 32.6723L18.6371 33.2934L20.0416 32.0703C20.4435 32.2318 20.8573 32.3621 21.2793 32.4599L21.7378 34.2602L22.9754 34.3613L23.7194 32.6635C24.2336 32.6325 24.746 32.5557 25.25 32.432L26.432 33.8017L27.5847 33.3403L27.5509 32.6459L24.8604 30.6054C24.0771 30.8035 23.2648 30.8565 22.4671 30.7665C20.9788 30.5987 19.5485 29.9265 18.4261 28.7656C15.8606 26.1118 15.9339 21.8904 18.5872 19.3247C19.8724 18.0819 21.5255 17.4514 23.1804 17.4336C24.9422 17.4145 26.7056 18.0896 28.0285 19.4579C30.1814 21.6851 30.4749 25.0354 28.9453 27.5718L30.4437 28.7085C30.63 28.4163 30.7983 28.113 30.9476 27.8003L32.7593 27.7505L33.1299 26.5655L31.6667 25.4873C31.7373 25.044 31.773 24.5959 31.7736 24.147L33.3994 23.3208L33.2281 22.0904L31.4339 21.7388C31.283 21.219 31.0829 20.7148 30.8364 20.2329L31.9054 18.752L31.1907 17.7368L29.4303 18.248C29.4082 18.2246 29.3867 18.2008 29.3643 18.1777C29.0872 17.891 28.7906 17.6237 28.4767 17.3778L28.8136 15.6376L27.7384 15.0165L26.4026 16.1797C25.9702 16.0057 25.5261 15.8702 25.0756 15.7695L24.6377 14.0498L23.3986 13.9487ZM20.6729 21.144C20.1881 21.1496 19.7075 21.2686 19.2668 21.4853L21.3862 23.0938C22.0272 23.5801 22.209 24.5045 21.7171 25.1533C21.2251 25.8025 20.2803 25.9001 19.63 25.4068L17.5121 23.7998C17.2953 24.962 17.7059 26.1934 18.7117 26.9566C19.6137 27.6408 20.7713 27.7689 21.7685 27.4107L21.9925 27.3301L22.1814 27.4737L28.5176 32.2814L28.7065 32.4249L28.6904 32.6622C28.6137 33.7192 29.0461 34.8002 29.9486 35.4849C30.9544 36.248 32.2519 36.3113 33.3128 35.7896L31.195 34.1827C30.5447 33.6893 30.385 32.7527 30.8772 32.1041C31.3694 31.4553 32.3085 31.382 32.9496 31.8682L35.0676 33.4752C35.2839 32.3135 34.8749 31.0814 33.8694 30.3185C32.9643 29.6314 31.8158 29.4952 30.8245 29.8482L30.6018 29.9273L30.4129 29.7837L24.0767 24.9761L23.8878 24.8325L23.9039 24.5968C23.9766 23.5474 23.536 22.4783 22.6311 21.7915C22.0432 21.3455 21.3552 21.1363 20.6729 21.1441L20.6729 21.144ZM22.7146 25.3745L30.3953 31.2031L29.8665 31.9019L22.1844 26.0718L22.7146 25.3745Z" fill="white"/>
</g>
<defs>
<clipPath id="clip0_510_464">
<rect width="23.997" height="24" fill="white" transform="translate(12.084 12.9644)"/>
</clipPath>
</defs>
</svg>
