<svg width="48" height="48" viewBox="0 0 48 48" fill="none" xmlns="http://www.w3.org/2000/svg">
<circle cx="24" cy="24" r="24" fill="#23ADE6"/>
<path d="M33.5 12H31.5C31.1022 12 30.7206 12.158 30.4393 12.4393C30.158 12.7206 30 13.1022 30 13.5V14.5H28V14C28 13.8674 27.9473 13.7402 27.8536 13.6464C27.7598 13.5527 27.6326 13.5 27.5 13.5H21.5C21.3674 13.5 21.2402 13.5527 21.1464 13.6464C21.0527 13.7402 21 13.8674 21 14V14.5H19V13.5C19 13.1022 18.842 12.7206 18.5607 12.4393C18.2794 12.158 17.8978 12 17.5 12H15.5C15.1022 12 14.7206 12.158 14.4393 12.4393C14.158 12.7206 14 13.1022 14 13.5V18.5C14 18.8978 14.158 19.2794 14.4393 19.5607C14.7206 19.842 15.1022 20 15.5 20H17.5C17.8978 20 18.2794 19.842 18.5607 19.5607C18.842 19.2794 19 18.8978 19 18.5V17.5H21V18C21 18.1326 21.0527 18.2598 21.1464 18.3536C21.2402 18.4473 21.3674 18.5 21.5 18.5H22.5V20C22.5 20.1326 22.5527 20.2598 22.6464 20.3536C22.7402 20.4473 22.8674 20.5 23 20.5V22C22.8674 22 22.7402 22.0527 22.6464 22.1464C22.5527 22.2402 22.5 22.3674 22.5 22.5V28.5C22.5 28.6326 22.5527 28.7598 22.6464 28.8536C22.7402 28.9473 22.8674 29 23 29V30H22C21.8674 30 21.7402 30.0527 21.6464 30.1464C21.5527 30.2402 21.5 30.3674 21.5 30.5H19V29.5C19 29.1022 18.842 28.7206 18.5607 28.4393C18.2794 28.158 17.8978 28 17.5 28H15.5C15.1022 28 14.7206 28.158 14.4393 28.4393C14.158 28.7206 14 29.1022 14 29.5V34.5C14 34.8978 14.158 35.2794 14.4393 35.5607C14.7206 35.842 15.1022 36 15.5 36H17.5C17.8978 36 18.2794 35.842 18.5607 35.5607C18.842 35.2794 19 34.8978 19 34.5V33.5H21.5C21.5 33.6326 21.5527 33.7598 21.6464 33.8536C21.7402 33.9473 21.8674 34 22 34H27C27.1326 34 27.2598 33.9473 27.3536 33.8536C27.4473 33.7598 27.5 33.6326 27.5 33.5H30V34.5C30 34.8978 30.158 35.2794 30.4393 35.5607C30.7206 35.842 31.1022 36 31.5 36H33.5C33.8978 36 34.2794 35.842 34.5607 35.5607C34.842 35.2794 35 34.8978 35 34.5V29.5C35 29.1022 34.842 28.7206 34.5607 28.4393C34.2794 28.158 33.8978 28 33.5 28H31.5C31.1022 28 30.7206 28.158 30.4393 28.4393C30.158 28.7206 30 29.1022 30 29.5V30.5H27.5C27.5 30.3674 27.4473 30.2402 27.3536 30.1464C27.2598 30.0527 27.1326 30 27 30H26V29C26.1326 29 26.2598 28.9473 26.3536 28.8536C26.4473 28.7598 26.5 28.6326 26.5 28.5V22.5C26.5 22.3674 26.4473 22.2402 26.3536 22.1464C26.2598 22.0527 26.1326 22 26 22V20.5C26.1326 20.5 26.2598 20.4473 26.3536 20.3536C26.4473 20.2598 26.5 20.1326 26.5 20V18.5H27.5C27.6326 18.5 27.7598 18.4473 27.8536 18.3536C27.9473 18.2598 28 18.1326 28 18V17.5H30V18.5C30 18.8978 30.158 19.2794 30.4393 19.5607C30.7206 19.842 31.1022 20 31.5 20H33.5C33.8978 20 34.2794 19.842 34.5607 19.5607C34.842 19.2794 35 18.8978 35 18.5V13.5C35 13.1022 34.842 12.7206 34.5607 12.4393C34.2794 12.158 33.8978 12 33.5 12ZM18 18.5C18 18.6326 17.9473 18.7598 17.8536 18.8536C17.7598 18.9473 17.6326 19 17.5 19H15.5C15.3674 19 15.2402 18.9473 15.1464 18.8536C15.0527 18.7598 15 18.6326 15 18.5V18H16C16.1326 18 16.2598 17.9473 16.3536 17.8536C16.4473 17.7598 16.5 17.6326 16.5 17.5C16.5 17.3674 16.4473 17.2402 16.3536 17.1464C16.2598 17.0527 16.1326 17 16 17H15V15H16C16.1326 15 16.2598 14.9473 16.3536 14.8536C16.4473 14.7598 16.5 14.6326 16.5 14.5C16.5 14.3674 16.4473 14.2402 16.3536 14.1464C16.2598 14.0527 16.1326 14 16 14H15V13.5C15 13.3674 15.0527 13.2402 15.1464 13.1464C15.2402 13.0527 15.3674 13 15.5 13H17.5C17.6326 13 17.7598 13.0527 17.8536 13.1464C17.9473 13.2402 18 13.3674 18 13.5V15.5H17C16.8674 15.5 16.7402 15.5527 16.6464 15.6464C16.5527 15.7402 16.5 15.8674 16.5 16C16.5 16.1326 16.5527 16.2598 16.6464 16.3536C16.7402 16.4473 16.8674 16.5 17 16.5H18V18.5ZM19 16.5V15.5H21V16.5H19ZM25.5 28H23.5V23H25.5V28ZM18 34.5C18 34.6326 17.9473 34.7598 17.8536 34.8536C17.7598 34.9473 17.6326 35 17.5 35H15.5C15.3674 35 15.2402 34.9473 15.1464 34.8536C15.0527 34.7598 15 34.6326 15 34.5V31H16C16.1326 31 16.2598 30.9473 16.3536 30.8536C16.4473 30.7598 16.5 30.6326 16.5 30.5C16.5 30.3674 16.4473 30.2402 16.3536 30.1464C16.2598 30.0527 16.1326 30 16 30H15V29.5C15 29.3674 15.0527 29.2402 15.1464 29.1464C15.2402 29.0527 15.3674 29 15.5 29H17.5C17.6326 29 17.7598 29.0527 17.8536 29.1464C17.9473 29.2402 18 29.3674 18 29.5V31.5H17C16.8674 31.5 16.7402 31.5527 16.6464 31.6464C16.5527 31.7402 16.5 31.8674 16.5 32C16.5 32.1326 16.5527 32.2598 16.6464 32.3536C16.7402 32.4473 16.8674 32.5 17 32.5H18V34.5ZM19 32.5V31.5H21.5V32.5H19ZM31 29.5C31 29.3674 31.0527 29.2402 31.1464 29.1464C31.2402 29.0527 31.3674 29 31.5 29H33.5C33.6326 29 33.7598 29.0527 33.8536 29.1464C33.9473 29.2402 34 29.3674 34 29.5V30H33C32.8674 30 32.7402 30.0527 32.6464 30.1464C32.5527 30.2402 32.5 30.3674 32.5 30.5C32.5 30.6326 32.5527 30.7598 32.6464 30.8536C32.7402 30.9473 32.8674 31 33 31H34V34.5C34 34.6326 33.9473 34.7598 33.8536 34.8536C33.7598 34.9473 33.6326 35 33.5 35H31.5C31.3674 35 31.2402 34.9473 31.1464 34.8536C31.0527 34.7598 31 34.6326 31 34.5V32.5H32C32.1326 32.5 32.2598 32.4473 32.3536 32.3536C32.4473 32.2598 32.5 32.1326 32.5 32C32.5 31.8674 32.4473 31.7402 32.3536 31.6464C32.2598 31.5527 32.1326 31.5 32 31.5H31V29.5ZM30 31.5V32.5H27.5V31.5H30ZM26.5 33H22.5V31H26.5V33ZM25 30H24V29H25V30ZM25 22H24V20.5H25V22ZM25.5 19.5H23.5V18.5H25.5V19.5ZM27 17.5H22V14.5H27V17.5ZM28 16.5V15.5H30V16.5H28ZM33.5 19H31.5C31.3674 19 31.2402 18.9473 31.1464 18.8536C31.0527 18.7598 31 18.6326 31 18.5V16.5H32C32.1326 16.5 32.2598 16.4473 32.3536 16.3536C32.4473 16.2598 32.5 16.1326 32.5 16C32.5 15.8674 32.4473 15.7402 32.3536 15.6464C32.2598 15.5527 32.1326 15.5 32 15.5H31V13.5C31 13.3674 31.0527 13.2402 31.1464 13.1464C31.2402 13.0527 31.3674 13 31.5 13H33.5C33.6326 13 33.7598 13.0527 33.8536 13.1464C33.9473 13.2402 34 13.3674 34 13.5V14H33C32.8674 14 32.7402 14.0527 32.6464 14.1464C32.5527 14.2402 32.5 14.3674 32.5 14.5C32.5 14.6326 32.5527 14.7598 32.6464 14.8536C32.7402 14.9473 32.8674 15 33 15H34V17H33C32.8674 17 32.7402 17.0527 32.6464 17.1464C32.5527 17.2402 32.5 17.3674 32.5 17.5C32.5 17.6326 32.5527 17.7598 32.6464 17.8536C32.7402 17.9473 32.8674 18 33 18H34V18.5C34 18.6326 33.9473 18.7598 33.8536 18.8536C33.7598 18.9473 33.6326 19 33.5 19Z" fill="white"/>
</svg>
