<svg width="48" height="48" viewBox="0 0 48 48" fill="none" xmlns="http://www.w3.org/2000/svg">
<circle cx="24" cy="24" r="24" fill="#5A9456"/>
<path d="M28.5211 33.1032C27.901 33.0999 27.2986 32.8964 26.8035 32.523C26.3084 32.1496 25.9471 31.6262 25.7735 31.0309C25.7618 30.9801 25.7399 30.9323 25.7091 30.8903C25.6783 30.8482 25.6393 30.8129 25.5944 30.7864C25.5495 30.76 25.4997 30.7429 25.4481 30.7363C25.3964 30.7298 25.3439 30.7337 25.2938 30.7481C25.2437 30.7624 25.1971 30.7868 25.1568 30.8198C25.1164 30.8527 25.0832 30.8936 25.0591 30.9398C25.0351 30.986 25.0207 31.0366 25.0168 31.0886C25.0129 31.1405 25.0197 31.1927 25.0367 31.242C25.2567 31.9971 25.7147 32.661 26.3426 33.1347C26.9705 33.6084 27.7346 33.8665 28.5211 33.8707C29.0485 33.8712 29.5697 33.757 30.0485 33.536C30.5273 33.3151 30.9524 32.9927 31.2943 32.5912C31.6362 32.1896 31.8867 31.7186 32.0284 31.2106C32.1702 30.7027 32.1998 30.17 32.1153 29.6495C32.0307 29.1289 31.834 28.633 31.5388 28.196C31.2435 27.759 30.8568 27.3915 30.4055 27.1188C29.9541 26.8461 29.4488 26.6748 28.9246 26.6168C28.4005 26.5588 27.87 26.6154 27.3699 26.7828C27.2732 26.8148 27.1932 26.884 27.1475 26.975C27.1018 27.0661 27.0941 27.1715 27.1262 27.2682C27.1583 27.3649 27.2274 27.4449 27.3185 27.4906C27.4095 27.5363 27.515 27.544 27.6116 27.5119C28.0063 27.3792 28.4251 27.334 28.8391 27.3793C29.253 27.4247 29.6521 27.5595 30.0086 27.7745C30.3652 27.9895 30.6707 28.2796 30.904 28.6244C31.1373 28.9693 31.2928 29.3609 31.3596 29.7718C31.4265 30.1828 31.4031 30.6034 31.2912 31.0045C31.1792 31.4055 30.9814 31.7774 30.7113 32.0944C30.4413 32.4113 30.1055 32.6657 29.7273 32.8399C29.3491 33.0141 28.9375 33.1039 28.5211 33.1032Z" fill="white"/>
<path d="M34.3734 30.0637L34.0971 28.4596C34.0832 28.3793 34.0441 28.3055 33.9854 28.2489C33.9268 28.1924 33.8516 28.1559 33.7709 28.1449L32.9075 28.0259L32.6542 27.5846L32.9804 26.7864C33.0118 26.711 33.0183 26.6275 32.9989 26.5482C32.9796 26.4688 32.9355 26.3976 32.8729 26.3451L31.6296 25.2975C31.5675 25.2457 31.4907 25.2149 31.41 25.2094C31.3294 25.2039 31.2491 25.2239 31.1806 25.2668L30.4514 25.7234L29.9717 25.5431L29.7108 24.7257C29.6864 24.648 29.6379 24.5801 29.5724 24.5318C29.5068 24.4836 29.4276 24.4574 29.3462 24.457H27.9685C27.8668 24.457 27.7692 24.4975 27.6972 24.5694C27.6252 24.6414 27.5848 24.739 27.5848 24.8408C27.5848 24.9426 27.6252 25.0402 27.6972 25.1121C27.7692 25.1841 27.8668 25.2245 27.9685 25.2245H29.0699L29.304 25.9575C29.3221 26.0129 29.3526 26.0635 29.3931 26.1054C29.4337 26.1473 29.4833 26.1794 29.5381 26.1993L30.3747 26.5063C30.4299 26.5268 30.489 26.5344 30.5476 26.5284C30.6061 26.5224 30.6625 26.503 30.7124 26.4717L31.3724 26.065L32.1898 26.7519L31.879 27.4618C31.8568 27.5161 31.8473 27.5748 31.8513 27.6333C31.8553 27.6919 31.8726 27.7487 31.902 27.7995L32.3433 28.567C32.3726 28.6176 32.4131 28.6609 32.4616 28.6935C32.5102 28.7261 32.5655 28.7471 32.6235 28.7551L33.391 28.8625L33.5713 29.914L32.8883 30.2709C32.8364 30.2981 32.7915 30.3368 32.7569 30.384C32.7223 30.4312 32.699 30.4857 32.6887 30.5434L32.5237 31.426C32.5137 31.4832 32.5167 31.5419 32.5327 31.5978C32.5486 31.6536 32.5771 31.7051 32.6158 31.7483L33.13 32.3201L32.5966 33.245L31.8291 33.08C31.7722 33.0678 31.7132 33.0687 31.6567 33.0827C31.6002 33.0966 31.5476 33.1233 31.5029 33.1606L30.8237 33.7285C30.7788 33.7658 30.7431 33.8129 30.7191 33.8661C30.6952 33.9193 30.6837 33.9772 30.6855 34.0355L30.7124 34.803L29.7108 35.1676L29.2388 34.5574C29.203 34.511 29.1571 34.4733 29.1046 34.4474C29.052 34.4215 28.9942 34.4079 28.9356 34.4078H28.0722C28.0132 34.4057 27.9546 34.4183 27.9017 34.4444C27.8488 34.4705 27.8032 34.5094 27.769 34.5574L27.297 35.1638L26.2954 34.78L26.3261 34.0125C26.329 33.9539 26.3184 33.8953 26.2951 33.8415C26.2718 33.7876 26.2364 33.7397 26.1918 33.7016L25.5125 33.1299C25.4678 33.0926 25.4152 33.0659 25.3587 33.052C25.3022 33.038 25.2433 33.0371 25.1863 33.0493L24.4188 33.2104L23.9468 32.3892C23.9228 32.3434 23.8898 32.3028 23.8497 32.2701C23.8097 32.2373 23.7634 32.213 23.7137 32.1985C23.664 32.1841 23.6119 32.1799 23.5605 32.1861C23.5091 32.1924 23.4595 32.209 23.4147 32.2349C23.3699 32.2608 23.3308 32.2955 23.2998 32.3369C23.2687 32.3783 23.2464 32.4255 23.234 32.4758C23.2217 32.5261 23.2197 32.5783 23.2281 32.6294C23.2365 32.6804 23.2552 32.7293 23.2829 32.773L23.8931 33.836C23.9336 33.9067 23.9957 33.9627 24.0702 33.9958C24.1447 34.029 24.2279 34.0375 24.3075 34.0202L25.1518 33.8398L25.5356 34.1698L25.501 35.0294C25.4959 35.1117 25.5173 35.1935 25.5623 35.2626C25.6072 35.3317 25.6732 35.3845 25.7505 35.4132L27.2855 35.9735C27.3619 36.0009 27.445 36.0035 27.5229 35.9807C27.6008 35.958 27.6695 35.9111 27.7191 35.8468L28.2487 35.1676H28.7591L29.2887 35.8507C29.3383 35.9149 29.407 35.9618 29.4849 35.9846C29.5628 36.0073 29.6459 36.0048 29.7223 35.9773L31.2573 35.4247C31.3353 35.3967 31.4021 35.3441 31.4478 35.275C31.4934 35.2058 31.5155 35.1237 31.5106 35.0409L31.4837 34.1775L31.8675 33.8513L32.7117 34.0355C32.7914 34.0528 32.8746 34.0443 32.9491 34.0112C33.0236 33.9781 33.0856 33.9221 33.1262 33.8513L33.9474 32.4506C33.9882 32.3805 34.0057 32.2993 33.9974 32.2186C33.9891 32.138 33.9555 32.062 33.9014 32.0016L33.3257 31.3608L33.414 30.858L34.1815 30.4743C34.2529 30.4351 34.3101 30.3742 34.3445 30.3003C34.379 30.2265 34.3891 30.1436 34.3734 30.0637Z" fill="white"/>
<path d="M23.4518 31.1534L23.4134 30.0866L23.9391 29.6453L24.983 29.8678C25.0626 29.8852 25.1458 29.8766 25.2203 29.8435C25.2948 29.8104 25.3569 29.7544 25.3974 29.6836L26.3683 28.0028C26.409 27.9327 26.4265 27.8515 26.4183 27.7708C26.41 27.6902 26.3764 27.6142 26.3223 27.5538L25.6161 26.7633L25.7351 26.0879L26.6791 25.589C26.7513 25.5511 26.8095 25.4913 26.8454 25.4182C26.8812 25.3451 26.8929 25.2624 26.8787 25.1822L26.541 23.2634C26.5271 23.1832 26.488 23.1094 26.4293 23.0528C26.3707 22.9962 26.2955 22.9598 26.2148 22.9488L25.1595 22.8029L24.8179 22.2081L25.2017 21.218C25.2322 21.1431 25.2382 21.0604 25.2189 20.9819C25.1996 20.9033 25.156 20.8328 25.0942 20.7806L23.6053 19.5334C23.5432 19.4816 23.4664 19.4508 23.3858 19.4453C23.3051 19.4398 23.2248 19.4599 23.1563 19.5027L22.2506 20.0706L21.6059 19.8365L21.2797 18.8273C21.2537 18.7471 21.202 18.6778 21.1327 18.6299C21.0633 18.5821 20.9801 18.5584 20.896 18.5625H18.9695C18.8854 18.5584 18.8022 18.5821 18.7328 18.6299C18.6635 18.6778 18.6118 18.7471 18.5858 18.8273L18.2596 19.8442L17.6149 20.0783L16.7131 19.5103C16.6445 19.4675 16.5642 19.4475 16.4836 19.453C16.403 19.4585 16.3262 19.4893 16.2641 19.541L14.7905 20.7921C14.7287 20.8444 14.6851 20.9148 14.6658 20.9934C14.6465 21.072 14.6525 21.1546 14.683 21.2296L15.0668 22.2196L14.7252 22.8145L13.6699 22.9603C13.5892 22.9713 13.514 23.0077 13.4554 23.0643C13.3967 23.1209 13.3576 23.1947 13.3437 23.275L13.006 25.1937C12.9918 25.2739 13.0035 25.3566 13.0393 25.4297C13.0752 25.5028 13.1334 25.5627 13.2056 25.6005L14.1496 26.0994L14.2686 26.7748L13.5663 27.5538C13.5122 27.6142 13.4786 27.6902 13.4703 27.7708C13.462 27.8515 13.4795 27.9327 13.5202 28.0028L14.4873 29.6875C14.5278 29.7582 14.5899 29.8142 14.6644 29.8474C14.7389 29.8805 14.8221 29.889 14.9018 29.8717L15.9456 29.6491L16.4713 30.0904L16.4329 31.1573C16.428 31.24 16.4501 31.3221 16.4957 31.3913C16.5414 31.4604 16.6082 31.513 16.6862 31.541L18.5129 32.2049C18.5899 32.2303 18.673 32.2305 18.7502 32.2057C18.8275 32.1809 18.8948 32.1322 18.9427 32.0668L19.5989 31.2263H20.282L20.9382 32.0668C20.9878 32.131 21.0565 32.1779 21.1344 32.2006C21.2123 32.2234 21.2954 32.2209 21.3718 32.1934L23.1985 31.5295C23.2752 31.5018 23.3411 31.4505 23.3866 31.3829C23.4322 31.3152 23.455 31.2349 23.4518 31.1534ZM22.7764 29.6184C22.7315 29.6557 22.6958 29.7028 22.6718 29.7559C22.6479 29.8091 22.6364 29.8671 22.6382 29.9254L22.6728 30.9155L21.3718 31.376L20.7732 30.6085C20.7374 30.562 20.6915 30.5244 20.639 30.4985C20.5864 30.4725 20.5286 30.459 20.47 30.4588H19.4109C19.3522 30.459 19.2945 30.4725 19.2419 30.4985C19.1893 30.5244 19.1434 30.562 19.1077 30.6085L18.509 31.376L17.2081 30.9155L17.2426 29.9408C17.2445 29.8825 17.233 29.8245 17.209 29.7713C17.1851 29.7181 17.1493 29.6711 17.1045 29.6338L16.2909 28.9507C16.2462 28.9134 16.1936 28.8867 16.1371 28.8728C16.0806 28.8588 16.0217 28.8579 15.9647 28.8701L15.0092 29.0735L14.3261 27.8455L14.9785 27.124C15.0172 27.0807 15.0457 27.0293 15.0616 26.9734C15.0776 26.9176 15.0806 26.8589 15.0706 26.8017L14.8711 25.7694C14.8608 25.7117 14.8374 25.6572 14.8029 25.61C14.7683 25.5628 14.7233 25.5241 14.6715 25.4969L13.8272 25.0402L14.069 23.6779L15.0361 23.5436C15.094 23.5357 15.1494 23.5146 15.1979 23.482C15.2465 23.4494 15.2869 23.4062 15.3162 23.3555L15.8458 22.4384C15.8752 22.3876 15.8926 22.3307 15.8965 22.2722C15.9005 22.2137 15.891 22.155 15.8688 22.1007L15.4851 21.1989L16.5442 20.3085L17.3693 20.8266C17.4187 20.8573 17.4744 20.8763 17.5322 20.8823C17.5901 20.8883 17.6485 20.8811 17.7032 20.8612L18.7009 20.5004C18.7557 20.4806 18.8053 20.4485 18.8459 20.4066C18.8864 20.3647 18.9169 20.3141 18.935 20.2587L19.2343 19.33H20.6274L20.9267 20.2587C20.9448 20.3141 20.9752 20.3647 21.0158 20.4066C21.0564 20.4485 21.1059 20.4806 21.1608 20.5004L22.1585 20.8612C22.2132 20.8811 22.2716 20.8883 22.3294 20.8823C22.3873 20.8763 22.443 20.8573 22.4924 20.8266L23.3136 20.3085L24.3728 21.1989L23.989 22.1007C23.9668 22.155 23.9573 22.2137 23.9613 22.2722C23.9653 22.3307 23.9827 22.3876 24.0121 22.4384L24.5416 23.3555C24.5709 23.4062 24.6114 23.4494 24.6599 23.482C24.7085 23.5146 24.7638 23.5357 24.8218 23.5436L25.7888 23.6779L26.0306 25.0402L25.194 25.4969C25.1422 25.5241 25.0972 25.5628 25.0627 25.61C25.0281 25.6572 25.0047 25.7117 24.9945 25.7694L24.8103 26.8132C24.8002 26.8704 24.8033 26.9291 24.8193 26.9849C24.8352 27.0408 24.8636 27.0923 24.9024 27.1355L25.5586 27.8455L24.8486 29.062L23.8969 28.8586C23.84 28.8464 23.7811 28.8473 23.7245 28.8613C23.668 28.8752 23.6154 28.9019 23.5707 28.9392L22.7764 29.6184Z" fill="white"/>
<path d="M19.9404 21.1187C19.0956 21.1187 18.2698 21.3692 17.5674 21.8385C16.865 22.3078 16.3176 22.9749 15.9943 23.7553C15.671 24.5358 15.5865 25.3946 15.7513 26.2231C15.9161 27.0516 16.3229 27.8127 16.9202 28.41C17.5175 29.0073 18.2786 29.4141 19.1071 29.5789C19.9356 29.7437 20.7944 29.6592 21.5749 29.3359C22.3553 29.0126 23.0224 28.4652 23.4917 27.7628C23.961 27.0604 24.2115 26.2346 24.2115 25.3898C24.2105 24.2574 23.7602 23.1716 22.9594 22.3708C22.1586 21.57 21.0728 21.1197 19.9404 21.1187ZM19.9404 28.8897C19.2474 28.8897 18.57 28.6842 17.9938 28.2992C17.4177 27.9142 16.9686 27.367 16.7034 26.7268C16.4382 26.0866 16.3688 25.3821 16.504 24.7025C16.6392 24.0228 16.9729 23.3985 17.4629 22.9085C17.9529 22.4185 18.5772 22.0848 19.2568 21.9496C19.9365 21.8145 20.641 21.8838 21.2812 22.149C21.9214 22.4142 22.4686 22.8633 22.8536 23.4395C23.2385 24.0156 23.444 24.693 23.444 25.386C23.443 26.3149 23.0736 27.2055 22.4167 27.8623C21.7599 28.5192 20.8693 28.8886 19.9404 28.8897Z" fill="white"/>
<path d="M26.4796 20.6543C26.3778 20.6599 26.2824 20.7057 26.2144 20.7817C26.1464 20.8576 26.1113 20.9574 26.1169 21.0592C26.1225 21.161 26.1683 21.2564 26.2443 21.3244C26.3202 21.3924 26.42 21.4274 26.5218 21.4218H26.564C27.3448 21.334 28.0763 20.9963 28.6496 20.459C29.2228 19.9217 29.6072 19.2135 29.7453 18.4401C29.9132 17.4905 29.6971 16.5131 29.1444 15.7229C28.5917 14.9327 27.7477 14.3944 26.7981 14.2265C25.8485 14.0585 24.8711 14.2747 24.0809 14.8274C23.2907 15.3801 22.7524 16.2241 22.5845 17.1737C22.522 17.5549 22.522 17.9438 22.5845 18.325C22.5923 18.3754 22.61 18.4237 22.6365 18.4673C22.663 18.5109 22.6978 18.5488 22.7389 18.5789C22.7801 18.609 22.8268 18.6307 22.8763 18.6428C22.9259 18.6549 22.9773 18.657 23.0277 18.6492C23.0781 18.6414 23.1265 18.6238 23.17 18.5973C23.2136 18.5708 23.2515 18.5359 23.2816 18.4948C23.3118 18.4536 23.3335 18.4069 23.3455 18.3574C23.3576 18.3078 23.3598 18.2564 23.352 18.206C23.3012 17.9024 23.3012 17.5924 23.352 17.2888C23.4858 16.5397 23.9112 15.8743 24.5349 15.4383C25.1586 15.0024 25.9297 14.8315 26.6791 14.9633C27.4242 15.1006 28.0846 15.5272 28.516 16.1499C28.9475 16.7726 29.1149 17.5408 28.9816 18.2866C28.8763 18.8986 28.5757 19.46 28.1246 19.8868C27.6736 20.3136 27.0964 20.5829 26.4796 20.6543Z" fill="white"/>
<path d="M20.6926 17.7875C20.7918 17.8055 20.894 17.7838 20.9773 17.7271C21.0606 17.6704 21.1182 17.5832 21.1378 17.4843L21.3258 16.4098L22.0933 16.3062C22.1512 16.2982 22.2066 16.2772 22.2552 16.2446C22.3037 16.212 22.3442 16.1687 22.3734 16.1181L22.8186 15.3506C22.848 15.2998 22.8654 15.243 22.8694 15.1844C22.8734 15.1259 22.8639 15.0672 22.8416 15.0129L22.5461 14.2915L23.3635 13.6045L24.0197 14.0305C24.0691 14.0612 24.1249 14.0802 24.1827 14.0862C24.2405 14.0922 24.299 14.085 24.3536 14.0651L25.1864 13.7657C25.2412 13.7459 25.2908 13.7138 25.3313 13.6719C25.3719 13.63 25.4024 13.5794 25.4204 13.524L25.6584 12.7872H26.7252L26.9631 13.524C26.9812 13.5794 27.0117 13.63 27.0523 13.6719C27.0928 13.7138 27.1424 13.7459 27.1972 13.7657L28.03 14.0689C28.0849 14.0882 28.1435 14.0948 28.2013 14.0882C28.2592 14.0815 28.3147 14.0618 28.3638 14.0305L29.0162 13.6237L29.8375 14.2953L29.5458 15.0129C29.5242 15.0667 29.515 15.1247 29.519 15.1825C29.523 15.2403 29.54 15.2965 29.5688 15.3468L30.0101 16.1143C30.0394 16.1649 30.0799 16.2082 30.1284 16.2408C30.177 16.2733 30.2323 16.2944 30.2903 16.3023L31.0578 16.4098L31.2458 17.4613L30.5627 17.822C30.5109 17.8492 30.466 17.8879 30.4314 17.9351C30.3968 17.9823 30.3735 18.0368 30.3632 18.0945L30.2059 18.9694C30.1952 19.0272 30.198 19.0867 30.2139 19.1432C30.2299 19.1998 30.2587 19.2519 30.298 19.2956L30.816 19.8674L30.2826 20.7884L29.5151 20.6272C29.4582 20.615 29.3992 20.616 29.3427 20.6299C29.2862 20.6439 29.2336 20.6705 29.1889 20.7078L28.5097 21.2758C28.4648 21.3131 28.4291 21.3601 28.4051 21.4133C28.3812 21.4665 28.3697 21.5245 28.3715 21.5828L28.3984 22.3503L27.5349 22.6765C27.4862 22.6926 27.4412 22.7182 27.4026 22.752C27.364 22.7858 27.3325 22.827 27.3101 22.8731C27.2876 22.9193 27.2747 22.9694 27.272 23.0207C27.2693 23.0719 27.2769 23.1232 27.2943 23.1714C27.3118 23.2197 27.3387 23.2639 27.3736 23.3016C27.4084 23.3392 27.4505 23.3695 27.4973 23.3906C27.544 23.4118 27.5945 23.4233 27.6458 23.4245C27.6971 23.4258 27.7481 23.4167 27.7959 23.3979L28.9471 22.9796C29.0251 22.9516 29.092 22.8991 29.1376 22.8299C29.1833 22.7607 29.2053 22.6786 29.2004 22.5959L29.1697 21.7324L29.5535 21.4063L30.3977 21.5866C30.4768 21.6031 30.5591 21.5941 30.6329 21.561C30.7066 21.5279 30.768 21.4724 30.8083 21.4024L31.6219 19.9979C31.6626 19.9278 31.6801 19.8466 31.6719 19.7659C31.6636 19.6852 31.63 19.6093 31.5759 19.5489L30.9887 18.9157L31.0808 18.4091L31.8483 18.0062C31.9204 17.9683 31.9787 17.9085 32.0145 17.8354C32.0504 17.7623 32.0621 17.6796 32.0479 17.5994L31.7562 16.003C31.7423 15.9227 31.7032 15.8489 31.6445 15.7924C31.5859 15.7358 31.5108 15.6994 31.43 15.6883L30.5819 15.5655L30.3287 15.1242L30.6548 14.3222C30.6853 14.2472 30.6914 14.1646 30.6721 14.086C30.6528 14.0074 30.6091 13.937 30.5474 13.8847L29.3002 12.8409C29.2381 12.7891 29.1613 12.7583 29.0807 12.7528C29 12.7473 28.9197 12.7674 28.8512 12.8102L28.1182 13.263L27.6385 13.0865L27.3738 12.2652C27.3477 12.1851 27.2961 12.1157 27.2267 12.0679C27.1573 12.02 27.0742 11.9963 26.99 12.0005H25.3782C25.2941 11.9963 25.2109 12.02 25.1415 12.0679C25.0722 12.1157 25.0205 12.1851 24.9945 12.2652L24.7297 13.0865L24.2692 13.263L23.5362 12.8063C23.4677 12.7635 23.3874 12.7435 23.3068 12.749C23.2261 12.7545 23.1493 12.7853 23.0872 12.837L21.84 13.8809C21.7783 13.9331 21.7347 14.0036 21.7154 14.0822C21.6961 14.1607 21.7021 14.2434 21.7326 14.3183L22.0588 15.1165L21.7978 15.5655L20.9459 15.6807C20.8651 15.6917 20.79 15.7281 20.7314 15.7847C20.6727 15.8413 20.6336 15.915 20.6197 15.9953L20.3818 17.3461C20.365 17.4458 20.3883 17.5481 20.4465 17.6307C20.5047 17.7133 20.5931 17.7697 20.6926 17.7875Z" fill="white"/>
</svg>
