<svg width="24" height="24" viewBox="0 0 24 24" fill="none" xmlns="http://www.w3.org/2000/svg">
<circle cx="12" cy="12" r="12" fill="#A97E4A"/>
<path d="M9.31411 16.5556L9.91098 16.1135C10.1228 16.2288 10.3538 16.3057 10.5849 16.3826L10.7196 17.113C10.7966 17.4975 11.124 17.7858 11.5283 17.7858H12.5295C12.9338 17.7858 13.2611 17.4975 13.3381 17.0938L13.4536 16.3634C13.6654 16.2865 13.8965 16.1904 14.089 16.0943L14.7051 16.5364C15.0324 16.767 15.4753 16.7286 15.7448 16.4403L16.438 15.7291C16.7075 15.4407 16.746 14.9986 16.515 14.6719L16.0914 14.076C16.2069 13.8646 16.3032 13.6339 16.3609 13.4033L17.1118 13.2687C17.4969 13.1918 17.7857 12.865 17.7857 12.4614V11.4619C17.7857 11.0582 17.4969 10.7314 17.0926 10.6546L16.3609 10.5392C16.2839 10.3086 16.1877 10.0779 16.0914 9.86647L16.5342 9.25138C16.7653 8.92461 16.7268 8.48251 16.438 8.21341L15.7256 7.52143C15.4368 7.2331 14.9939 7.21388 14.6859 7.44454L11.7978 9.48204C11.1817 9.52048 10.6041 9.8088 10.1613 10.2509C9.69919 10.7314 9.44889 11.3658 9.46814 12.0385C9.50665 13.4033 10.6234 14.4989 11.9904 14.4989C12.0096 14.4989 12.0289 14.4989 12.0481 14.4989C13.4344 14.4604 14.5511 13.3071 14.5126 11.9232C14.5126 11.6541 14.4548 11.3658 14.3586 11.1159C14.2815 10.8852 14.0313 10.7699 13.8002 10.866C13.5692 10.9429 13.4536 11.1928 13.5499 11.4234C13.6077 11.5964 13.6462 11.7694 13.6462 11.9616C13.6654 12.865 12.9338 13.6339 12.0289 13.6531C11.1047 13.6724 10.3538 12.9419 10.3346 12.0385C10.3153 11.5964 10.4886 11.1735 10.7966 10.866C11.1047 10.5392 11.509 10.3662 11.9519 10.347C12.0289 10.347 12.1251 10.3086 12.1829 10.2701L15.148 8.17496L15.8026 8.8285L15.379 9.42437C15.2057 9.67425 15.1672 10.0202 15.3212 10.2893C15.4175 10.4623 15.4945 10.6546 15.5523 10.8468C15.6486 11.1543 15.8989 11.3658 16.2262 11.4234L16.9193 11.5388V12.4614L16.2262 12.5767C15.9181 12.6344 15.6678 12.8458 15.5715 13.1534C15.5138 13.3456 15.4368 13.5186 15.3405 13.7108C15.1865 13.9991 15.225 14.3259 15.3983 14.595L15.8218 15.1716L15.1865 15.8252L14.5896 15.4023C14.3393 15.2293 13.9927 15.1909 13.7039 15.3446C13.5307 15.4407 13.3574 15.4984 13.1841 15.5753C12.876 15.6714 12.6642 15.9405 12.6065 16.2481L12.491 16.9593H11.5668L11.4513 16.2481C11.3935 15.9405 11.1817 15.6906 10.8737 15.5945C10.6811 15.5369 10.4886 15.46 10.3153 15.3639C10.0265 15.2293 9.69919 15.2485 9.42963 15.4407L8.85203 15.8636L8.1974 15.2293L8.60173 14.6334C8.77501 14.3836 8.79427 14.0376 8.65949 13.7492C8.56322 13.5762 8.48621 13.384 8.42845 13.1918C8.33218 12.8843 8.06263 12.6728 7.75457 12.6152L7.04218 12.4998V11.5772L7.75457 11.4619C8.06263 11.4042 8.31292 11.1928 8.40919 10.8852C8.46695 10.693 8.54397 10.5008 8.64024 10.3278C8.77501 10.0395 8.75576 9.71269 8.56322 9.44359L8.13964 8.86694L8.77501 8.21341L9.37187 8.61706C9.62217 8.79006 9.96874 8.80928 10.2575 8.67473C10.4308 8.57862 10.6234 8.50173 10.8351 8.44407C11.1432 8.34796 11.3743 8.09808 11.4128 7.77131L11.5283 7.07933H12.491C12.722 7.07933 12.9145 6.88711 12.9145 6.63723C12.9145 6.40657 12.722 6.21436 12.491 6.21436H11.4898C11.0854 6.21436 10.7581 6.50268 10.6811 6.90633L10.5656 7.63676C10.3153 7.71364 10.0843 7.80975 9.87247 7.92508L9.25635 7.50221C8.92904 7.27155 8.48621 7.30999 8.21666 7.59831L7.52353 8.30951C7.25397 8.59784 7.21547 9.03994 7.44651 9.3667L7.88934 9.96258C7.77382 10.174 7.69681 10.4047 7.61979 10.6353L6.88816 10.7699C6.50308 10.8468 6.23353 11.1735 6.21428 11.558V11.5772V12.5767C6.21428 12.9804 6.50308 13.3071 6.90741 13.384L7.63905 13.4994C7.71606 13.73 7.81233 13.9607 7.92785 14.1721L7.50427 14.7872C7.27323 15.114 7.31174 15.5561 7.60054 15.8252L8.31292 16.5172C8.54397 16.767 8.9868 16.8055 9.31411 16.5556Z" fill="white"/>
</svg>
