<svg width="24" height="24" viewBox="0 0 24 24" fill="none" xmlns="http://www.w3.org/2000/svg">
<circle cx="12" cy="12" r="12" fill="#5A9456"/>
<path d="M14.1798 16.389C13.8808 16.3874 13.5904 16.2893 13.3516 16.1092C13.1129 15.9292 12.9388 15.6769 12.855 15.3899C12.8494 15.3654 12.8389 15.3423 12.824 15.322C12.8092 15.3018 12.7904 15.2847 12.7687 15.272C12.7471 15.2592 12.7231 15.251 12.6982 15.2478C12.6732 15.2446 12.6479 15.2466 12.6238 15.2535C12.5996 15.2604 12.5772 15.2722 12.5577 15.2881C12.5382 15.304 12.5222 15.3236 12.5106 15.3459C12.499 15.3682 12.4921 15.3926 12.4902 15.4177C12.4884 15.4427 12.4916 15.4679 12.4998 15.4916C12.6059 15.8557 12.8267 16.1758 13.1295 16.4042C13.4322 16.6325 13.8006 16.757 14.1798 16.759C14.4341 16.7593 14.6853 16.7042 14.9162 16.5977C15.1471 16.4911 15.352 16.3357 15.5169 16.1421C15.6817 15.9485 15.8025 15.7214 15.8708 15.4765C15.9392 15.2316 15.9535 14.9748 15.9127 14.7238C15.8719 14.4728 15.7771 14.2337 15.6348 14.023C15.4924 13.8123 15.306 13.6351 15.0883 13.5037C14.8707 13.3722 14.6271 13.2896 14.3744 13.2616C14.1216 13.2337 13.8659 13.261 13.6247 13.3416C13.5781 13.3571 13.5396 13.3904 13.5175 13.4343C13.4955 13.4782 13.4918 13.5291 13.5073 13.5757C13.5227 13.6223 13.5561 13.6609 13.6 13.6829C13.6438 13.7049 13.6947 13.7086 13.7413 13.6932C13.9316 13.6292 14.1335 13.6074 14.3331 13.6293C14.5327 13.6511 14.7251 13.7161 14.897 13.8198C15.0689 13.9235 15.2162 14.0633 15.3287 14.2296C15.4412 14.3959 15.5161 14.5846 15.5484 14.7828C15.5806 14.981 15.5694 15.1838 15.5154 15.3771C15.4614 15.5705 15.366 15.7498 15.2358 15.9026C15.1056 16.0554 14.9437 16.1781 14.7614 16.262C14.579 16.346 14.3806 16.3894 14.1798 16.389Z" fill="white"/>
<path d="M17.0015 14.9234L16.8683 14.15C16.8615 14.1113 16.8427 14.0757 16.8144 14.0485C16.7861 14.0212 16.7499 14.0036 16.711 13.9983L16.2947 13.9409L16.1726 13.7282L16.3298 13.3433C16.345 13.3069 16.3481 13.2667 16.3388 13.2284C16.3295 13.1902 16.3082 13.1559 16.278 13.1305L15.6785 12.6254C15.6486 12.6005 15.6116 12.5856 15.5727 12.583C15.5338 12.5803 15.4951 12.59 15.4621 12.6106L15.1105 12.8308L14.8792 12.7438L14.7534 12.3497C14.7417 12.3123 14.7183 12.2796 14.6867 12.2563C14.6551 12.233 14.6169 12.2204 14.5777 12.2202H13.9134C13.8643 12.2202 13.8173 12.2397 13.7826 12.2744C13.7479 12.3091 13.7284 12.3562 13.7284 12.4052C13.7284 12.4543 13.7479 12.5014 13.7826 12.5361C13.8173 12.5708 13.8643 12.5903 13.9134 12.5903H14.4444L14.5573 12.9437C14.566 12.9704 14.5807 12.9948 14.6003 13.015C14.6198 13.0352 14.6437 13.0506 14.6702 13.0602L15.0735 13.2082C15.1001 13.2181 15.1286 13.2218 15.1569 13.2189C15.1851 13.216 15.2123 13.2067 15.2363 13.1916L15.5546 12.9955L15.9487 13.3267L15.7988 13.669C15.7881 13.6951 15.7835 13.7234 15.7854 13.7517C15.7874 13.7799 15.7957 13.8073 15.8099 13.8318L16.0227 14.2018C16.0368 14.2262 16.0563 14.2471 16.0797 14.2628C16.1031 14.2785 16.1298 14.2887 16.1578 14.2925L16.5278 14.3443L16.6148 14.8513L16.2854 15.0233C16.2604 15.0364 16.2388 15.0551 16.2221 15.0779C16.2054 15.1006 16.1942 15.1269 16.1892 15.1547L16.1097 15.5803C16.1048 15.6078 16.1063 15.6361 16.114 15.6631C16.1217 15.69 16.1354 15.7148 16.1541 15.7357L16.402 16.0114L16.1448 16.4573L15.7748 16.3777C15.7473 16.3718 15.7189 16.3723 15.6916 16.379C15.6644 16.3857 15.639 16.3986 15.6175 16.4166L15.29 16.6904C15.2684 16.7084 15.2511 16.7311 15.2396 16.7567C15.2281 16.7824 15.2225 16.8103 15.2234 16.8384L15.2363 17.2085L14.7534 17.3842L14.5258 17.09C14.5086 17.0677 14.4865 17.0495 14.4611 17.037C14.4358 17.0245 14.4079 17.018 14.3797 17.0179H13.9634C13.9349 17.0169 13.9067 17.023 13.8812 17.0356C13.8557 17.0482 13.8337 17.0669 13.8172 17.09L13.5896 17.3824L13.1067 17.1974L13.1215 16.8273C13.1229 16.799 13.1178 16.7708 13.1066 16.7448C13.0953 16.7189 13.0783 16.6958 13.0568 16.6774L12.7293 16.4018C12.7077 16.3838 12.6824 16.3709 12.6551 16.3642C12.6279 16.3575 12.5994 16.357 12.572 16.3629L12.2019 16.4406L11.9744 16.0447C11.9628 16.0225 11.9469 16.003 11.9276 15.9872C11.9083 15.9714 11.8859 15.9597 11.862 15.9527C11.838 15.9458 11.8129 15.9437 11.7881 15.9467C11.7633 15.9498 11.7394 15.9577 11.7178 15.9702C11.6962 15.9827 11.6774 15.9995 11.6624 16.0194C11.6474 16.0394 11.6366 16.0622 11.6307 16.0864C11.6248 16.1106 11.6238 16.1358 11.6278 16.1605C11.6319 16.1851 11.6409 16.2086 11.6543 16.2297L11.9485 16.7422C11.968 16.7763 11.9979 16.8033 12.0339 16.8193C12.0698 16.8353 12.1099 16.8394 12.1483 16.831L12.5553 16.7441L12.7404 16.9032L12.7237 17.3176C12.7212 17.3573 12.7316 17.3967 12.7532 17.43C12.7749 17.4634 12.8067 17.4888 12.844 17.5026L13.5841 17.7728C13.6209 17.786 13.661 17.7873 13.6986 17.7763C13.7361 17.7653 13.7692 17.7427 13.7932 17.7117L14.0485 17.3842H14.2946L14.5499 17.7136C14.5738 17.7446 14.6069 17.7672 14.6445 17.7781C14.6821 17.7891 14.7221 17.7879 14.759 17.7746L15.4991 17.5082C15.5367 17.4947 15.5689 17.4694 15.5909 17.436C15.6129 17.4026 15.6235 17.3631 15.6212 17.3232L15.6082 16.9069L15.7933 16.7496L16.2003 16.8384C16.2387 16.8468 16.2788 16.8427 16.3148 16.8267C16.3507 16.8107 16.3806 16.7837 16.4001 16.7496L16.7961 16.0743C16.8157 16.0405 16.8242 16.0013 16.8202 15.9624C16.8162 15.9235 16.8 15.8869 16.7739 15.8578L16.4964 15.5488L16.5389 15.3064L16.909 15.1214C16.9434 15.1025 16.9709 15.0731 16.9876 15.0375C17.0042 15.0019 17.0091 14.962 17.0015 14.9234Z" fill="white"/>
<path d="M11.7357 15.4493L11.7172 14.9349L11.9707 14.7221L12.4739 14.8294C12.5123 14.8378 12.5524 14.8337 12.5884 14.8177C12.6243 14.8017 12.6542 14.7747 12.6737 14.7406L13.1419 13.9302C13.1615 13.8964 13.1699 13.8573 13.1659 13.8184C13.162 13.7795 13.1458 13.7429 13.1197 13.7138L12.7792 13.3326L12.8366 13.007L13.2917 12.7664C13.3265 12.7482 13.3546 12.7193 13.3719 12.6841C13.3892 12.6488 13.3948 12.609 13.3879 12.5703L13.2251 11.6452C13.2184 11.6065 13.1996 11.5709 13.1713 11.5436C13.143 11.5163 13.1068 11.4988 13.0679 11.4935L12.559 11.4232L12.3944 11.1364L12.5794 10.659C12.5941 10.6229 12.597 10.583 12.5877 10.5451C12.5784 10.5073 12.5573 10.4733 12.5276 10.4481L11.8097 9.84675C11.7798 9.8218 11.7427 9.80694 11.7038 9.80428C11.665 9.80163 11.6263 9.81131 11.5932 9.83195L11.1566 10.1058L10.8457 9.99292L10.6884 9.50631C10.6759 9.46766 10.651 9.43423 10.6175 9.41115C10.5841 9.38808 10.544 9.37665 10.5034 9.37864H9.5746C9.53402 9.37665 9.49392 9.38808 9.46048 9.41115C9.42704 9.43423 9.40212 9.46766 9.38957 9.50631L9.2323 9.99662L8.92146 10.1095L8.48666 9.83565C8.45361 9.81501 8.41489 9.80533 8.37602 9.80799C8.33715 9.81064 8.30011 9.8255 8.27018 9.85045L7.55969 10.4536C7.52992 10.4788 7.50888 10.5128 7.49958 10.5507C7.49027 10.5886 7.49318 10.6284 7.50788 10.6646L7.69291 11.1419L7.52823 11.4287L7.01942 11.499C6.98049 11.5043 6.94427 11.5219 6.91599 11.5492C6.88772 11.5765 6.86886 11.612 6.86215 11.6507L6.69933 12.5759C6.69247 12.6145 6.6981 12.6544 6.7154 12.6896C6.7327 12.7249 6.76076 12.7537 6.79554 12.772L7.2507 13.0125L7.30806 13.3382L6.96946 13.7138C6.94336 13.7429 6.92716 13.7795 6.92317 13.8184C6.91918 13.8573 6.92761 13.8964 6.94726 13.9302L7.41352 14.7425C7.43307 14.7766 7.46298 14.8036 7.49891 14.8196C7.53484 14.8355 7.57492 14.8396 7.61334 14.8313L8.11661 14.724L8.37009 14.9368L8.35159 15.4511C8.34923 15.491 8.35986 15.5306 8.38187 15.564C8.40388 15.5973 8.4361 15.6226 8.47371 15.6361L9.35442 15.9562C9.39157 15.9685 9.43163 15.9686 9.46886 15.9566C9.5061 15.9447 9.53858 15.9212 9.56165 15.8896L9.87804 15.4844H10.2074L10.5238 15.8896C10.5477 15.9206 10.5808 15.9432 10.6184 15.9542C10.6559 15.9652 10.696 15.9639 10.7328 15.9507L11.6136 15.6306C11.6505 15.6173 11.6823 15.5925 11.7043 15.5599C11.7262 15.5273 11.7372 15.4886 11.7357 15.4493ZM11.41 14.7092C11.3884 14.7272 11.3712 14.7498 11.3596 14.7755C11.3481 14.8011 11.3425 14.8291 11.3434 14.8572L11.3601 15.3346L10.7328 15.5566L10.4442 15.1865C10.427 15.1642 10.4048 15.146 10.3795 15.1335C10.3542 15.121 10.3263 15.1144 10.298 15.1144H9.78738C9.75912 15.1144 9.73125 15.121 9.70592 15.1335C9.68058 15.146 9.65844 15.1642 9.64121 15.1865L9.35257 15.5566L8.72534 15.3346L8.74199 14.8646C8.74287 14.8365 8.73733 14.8085 8.72578 14.7829C8.71424 14.7572 8.69701 14.7346 8.67538 14.7166L8.28313 14.3872C8.26158 14.3693 8.23622 14.3564 8.20897 14.3497C8.18173 14.343 8.15331 14.3425 8.12586 14.3484L7.66515 14.4464L7.33581 13.8544L7.65035 13.5065C7.66903 13.4857 7.68273 13.4608 7.69042 13.4339C7.69811 13.407 7.6996 13.3787 7.69476 13.3511L7.59854 12.8534C7.59359 12.8256 7.58234 12.7993 7.56566 12.7766C7.54899 12.7538 7.52732 12.7351 7.50233 12.722L7.09528 12.5018L7.21184 11.845L7.6781 11.7803C7.70604 11.7764 7.73273 11.7663 7.75614 11.7506C7.77954 11.7348 7.79905 11.714 7.81317 11.6896L8.0685 11.2474C8.08268 11.2229 8.09105 11.1955 8.09298 11.1673C8.0949 11.139 8.09033 11.1107 8.07961 11.0846L7.89458 10.6498L8.40525 10.2205L8.80305 10.4703C8.82687 10.4851 8.85373 10.4943 8.88162 10.4971C8.9095 10.5 8.93768 10.4965 8.96402 10.4869L9.44508 10.313C9.47151 10.3034 9.49542 10.288 9.51497 10.2678C9.53453 10.2476 9.54923 10.2232 9.55795 10.1964L9.70227 9.74869H10.3739L10.5182 10.1964C10.5269 10.2232 10.5416 10.2476 10.5612 10.2678C10.5808 10.288 10.6047 10.3034 10.6311 10.313L11.1121 10.4869C11.1385 10.4965 11.1667 10.5 11.1946 10.4971C11.2224 10.4943 11.2493 10.4851 11.2731 10.4703L11.6691 10.2205L12.1797 10.6498L11.9947 11.0846C11.984 11.1107 11.9794 11.139 11.9813 11.1673C11.9833 11.1955 11.9916 11.2229 12.0058 11.2474L12.2611 11.6896C12.2753 11.714 12.2948 11.7348 12.3182 11.7506C12.3416 11.7663 12.3683 11.7764 12.3962 11.7803L12.8625 11.845L12.979 12.5018L12.5757 12.722C12.5507 12.7351 12.529 12.7538 12.5124 12.7766C12.4957 12.7993 12.4844 12.8256 12.4795 12.8534L12.3907 13.3567C12.3858 13.3842 12.3873 13.4125 12.395 13.4395C12.4027 13.4664 12.4164 13.4912 12.4351 13.5121L12.7515 13.8544L12.4092 14.4409L11.9503 14.3428C11.9229 14.337 11.8944 14.3374 11.8672 14.3441C11.8399 14.3509 11.8146 14.3637 11.793 14.3817L11.41 14.7092Z" fill="white"/>
<path d="M10.0427 10.6108C9.63538 10.6108 9.23723 10.7316 8.89858 10.9579C8.55992 11.1842 8.29597 11.5058 8.14011 11.8821C7.98424 12.2584 7.94346 12.6724 8.02292 13.0719C8.10238 13.4714 8.29851 13.8383 8.58651 14.1263C8.87451 14.4143 9.24145 14.6104 9.64092 14.6899C10.0404 14.7694 10.4544 14.7286 10.8307 14.5727C11.207 14.4169 11.5286 14.1529 11.7549 13.8143C11.9812 13.4756 12.102 13.0775 12.102 12.6702C12.1015 12.1241 11.8844 11.6006 11.4983 11.2145C11.1122 10.8285 10.5887 10.6113 10.0427 10.6108ZM10.0427 14.3576C9.70856 14.3576 9.38196 14.2585 9.10416 14.0729C8.82636 13.8873 8.60985 13.6234 8.48199 13.3148C8.35413 13.0061 8.32068 12.6664 8.38586 12.3387C8.45104 12.0111 8.61193 11.7101 8.84818 11.4738C9.08443 11.2376 9.38542 11.0767 9.71311 11.0115C10.0408 10.9463 10.3805 10.9798 10.6891 11.1076C10.9978 11.2355 11.2616 11.452 11.4472 11.7298C11.6329 12.0076 11.7319 12.3342 11.7319 12.6683C11.7314 13.1162 11.5533 13.5456 11.2366 13.8623C10.9199 14.179 10.4905 14.3571 10.0427 14.3576Z" fill="white"/>
<path d="M13.1955 10.3867C13.1464 10.3894 13.1005 10.4115 13.0677 10.4481C13.0349 10.4847 13.018 10.5328 13.0207 10.5819C13.0234 10.631 13.0455 10.6769 13.0821 10.7097C13.1187 10.7425 13.1668 10.7594 13.2159 10.7567H13.2362C13.6127 10.7144 13.9654 10.5516 14.2418 10.2925C14.5182 10.0334 14.7035 9.69202 14.7701 9.3191C14.851 8.86126 14.7468 8.39001 14.4803 8.00902C14.2138 7.62803 13.8069 7.3685 13.3491 7.28754C12.8913 7.20657 12.42 7.31079 12.039 7.57728C11.658 7.84376 11.3985 8.25068 11.3175 8.70852C11.2874 8.89232 11.2874 9.0798 11.3175 9.26359C11.3213 9.28789 11.3298 9.31121 11.3426 9.33222C11.3554 9.35322 11.3722 9.37151 11.392 9.38602C11.4118 9.40054 11.4343 9.41101 11.4582 9.41683C11.4821 9.42265 11.5069 9.4237 11.5312 9.41994C11.5555 9.41617 11.5788 9.40766 11.5999 9.39488C11.6209 9.3821 11.6391 9.36531 11.6537 9.34547C11.6682 9.32562 11.6786 9.30311 11.6845 9.27922C11.6903 9.25533 11.6913 9.23053 11.6876 9.20624C11.6631 9.05985 11.6631 8.91042 11.6876 8.76403C11.7521 8.40286 11.9572 8.082 12.2579 7.87182C12.5586 7.66163 12.9304 7.57927 13.2917 7.64278C13.6509 7.70897 13.9694 7.91466 14.1774 8.2149C14.3854 8.51514 14.4661 8.88552 14.4019 9.24509C14.3511 9.54015 14.2061 9.81084 13.9887 10.0166C13.7712 10.2224 13.4929 10.3523 13.1955 10.3867Z" fill="white"/>
<path d="M10.4054 9.00474C10.4532 9.01343 10.5025 9.00298 10.5426 8.97563C10.5828 8.94828 10.6106 8.90623 10.62 8.85857L10.7106 8.3405L11.0807 8.29055C11.1086 8.28672 11.1353 8.27657 11.1587 8.26085C11.1821 8.24514 11.2016 8.22429 11.2158 8.19988L11.4304 7.82984C11.4446 7.80535 11.4529 7.77794 11.4549 7.74972C11.4568 7.72149 11.4522 7.6932 11.4415 7.66701L11.299 7.31917L11.6931 6.98798L12.0095 7.19335C12.0333 7.20814 12.0602 7.21733 12.0881 7.22021C12.116 7.2231 12.1441 7.21961 12.1705 7.21001L12.572 7.06569C12.5984 7.05611 12.6223 7.04063 12.6419 7.02044C12.6614 7.00024 12.6761 6.97585 12.6849 6.94912L12.7996 6.59388H13.3139L13.4286 6.94912C13.4374 6.97585 13.4521 7.00024 13.4716 7.02044C13.4912 7.04063 13.5151 7.05611 13.5415 7.06569L13.943 7.21186C13.9695 7.22119 13.9977 7.22437 14.0256 7.22116C14.0535 7.21796 14.0803 7.20845 14.104 7.19335L14.4185 6.99723L14.8145 7.32102L14.6739 7.66701C14.6634 7.69294 14.659 7.72089 14.6609 7.74877C14.6629 7.77665 14.6711 7.80373 14.685 7.82799L14.8977 8.19803C14.9119 8.22244 14.9314 8.24329 14.9548 8.259C14.9782 8.27472 15.0049 8.28487 15.0328 8.2887L15.4029 8.3405L15.4935 8.84747L15.1642 9.02139C15.1392 9.0345 15.1175 9.05315 15.1008 9.07592C15.0842 9.09869 15.0729 9.12497 15.068 9.15276L14.9921 9.57461C14.987 9.60248 14.9883 9.63115 14.996 9.65841C15.0037 9.68568 15.0176 9.71082 15.0365 9.73188L15.2863 10.0076L15.0291 10.4516L14.6591 10.3739C14.6316 10.368 14.6032 10.3685 14.5759 10.3752C14.5487 10.3819 14.5233 10.3948 14.5018 10.4128L14.1743 10.6866C14.1527 10.7046 14.1354 10.7273 14.1239 10.7529C14.1123 10.7786 14.1068 10.8065 14.1077 10.8346L14.1206 11.2047L13.7043 11.3619C13.6808 11.3697 13.6591 11.3821 13.6405 11.3984C13.6219 11.4147 13.6067 11.4345 13.5959 11.4568C13.5851 11.479 13.5789 11.5032 13.5776 11.5279C13.5762 11.5526 13.5799 11.5773 13.5883 11.6006C13.5967 11.6238 13.6097 11.6452 13.6265 11.6633C13.6433 11.6815 13.6636 11.6961 13.6862 11.7063C13.7087 11.7165 13.7331 11.722 13.7578 11.7226C13.7825 11.7232 13.8071 11.7189 13.8301 11.7098L14.3852 11.5081C14.4228 11.4946 14.455 11.4693 14.4771 11.4359C14.4991 11.4026 14.5097 11.363 14.5073 11.3231L14.4925 10.9068L14.6776 10.7495L15.0846 10.8365C15.1228 10.8444 15.1624 10.8401 15.198 10.8241C15.2335 10.8082 15.2631 10.7814 15.2826 10.7477L15.6748 10.0705C15.6945 10.0367 15.7029 9.99752 15.6989 9.95863C15.6949 9.91974 15.6787 9.88311 15.6526 9.854L15.3695 9.54871L15.414 9.30448L15.784 9.1102C15.8188 9.09195 15.8468 9.06311 15.8641 9.02785C15.8814 8.99259 15.8871 8.95275 15.8802 8.91408L15.7396 8.14438C15.7329 8.10567 15.714 8.0701 15.6858 8.04282C15.6575 8.01554 15.6213 7.99797 15.5823 7.99266L15.1734 7.93345L15.0513 7.72067L15.2086 7.33397C15.2233 7.29784 15.2262 7.25799 15.2169 7.22011C15.2076 7.18222 15.1865 7.14825 15.1568 7.12304L14.5554 6.61978C14.5255 6.59483 14.4885 6.57997 14.4496 6.57731C14.4107 6.57466 14.372 6.58434 14.339 6.60498L13.9856 6.82331L13.7543 6.73819L13.6266 6.34224C13.6141 6.3036 13.5892 6.27016 13.5557 6.24709C13.5223 6.22402 13.4822 6.21259 13.4416 6.21458H12.6645C12.6239 6.21259 12.5838 6.22402 12.5504 6.24709C12.5169 6.27016 12.492 6.3036 12.4795 6.34224L12.3518 6.73819L12.1298 6.82331L11.7764 6.60313C11.7433 6.58249 11.7046 6.57281 11.6657 6.57546C11.6269 6.57812 11.5898 6.59298 11.5599 6.61793L10.9586 7.12119C10.9288 7.1464 10.9078 7.18037 10.8985 7.21826C10.8892 7.25614 10.8921 7.29599 10.9068 7.33212L11.064 7.71697L10.9382 7.93345L10.5275 7.98896C10.4885 7.99427 10.4523 8.01184 10.424 8.03912C10.3958 8.0664 10.3769 8.10197 10.3702 8.14068L10.2555 8.79196C10.2474 8.84002 10.2586 8.88931 10.2867 8.92915C10.3147 8.96899 10.3574 8.99615 10.4054 9.00474Z" fill="white"/>
</svg>
