<svg width="24" height="24" viewBox="0 0 24 24" fill="none" xmlns="http://www.w3.org/2000/svg">
<circle cx="12" cy="12" r="12" fill="#2C57F1"/>
<g clip-path="url(#clip0_510_1868)">
<path d="M8.13879 17.3478H14.3265C16.0217 17.3478 17.3957 15.9734 17.3957 14.2786V6.65234H11.21C10.803 6.65234 10.4126 6.81404 10.1248 7.10186C9.83699 7.38968 9.67529 7.78005 9.67529 8.18709L9.67325 9.67459" stroke="white" stroke-width="1.5" stroke-linecap="round" stroke-linejoin="round"/>
<path d="M6.60405 12.4055H9.67326M11.544 12.4055H15.441M11.544 14.3847H15.441M8.1388 9.6743H9.67326V15.8127C9.6731 16.2197 9.5114 16.6099 9.22367 16.8977C8.93595 17.1855 8.54574 17.3472 8.1388 17.3475C7.73181 17.3473 7.34153 17.1856 7.05374 16.8978C6.76595 16.61 6.6042 16.2197 6.60405 15.8127V11.2088C6.60428 10.8018 6.76606 10.4116 7.05384 10.1239C7.34162 9.83616 7.73186 9.67446 8.1388 9.6743ZM11.544 8.8833H13.2468V10.5861H11.544V8.8833Z" stroke="white" stroke-width="1.5" stroke-linecap="round" stroke-linejoin="round"/>
</g>
<defs>
<clipPath id="clip0_510_1868">
<rect width="14" height="14" fill="white" transform="translate(4.99988 5)"/>
</clipPath>
</defs>
</svg>
