<svg width="48" height="48" viewBox="0 0 48 48" fill="none" xmlns="http://www.w3.org/2000/svg">
<circle cx="24" cy="24" r="24" fill="#A97E4A"/>
<path d="M18.4293 33.4485L19.6672 32.5316C20.1065 32.7708 20.5857 32.9302 21.0649 33.0897L21.3444 34.6047C21.5042 35.402 22.183 36 23.0216 36H25.0982C25.9368 36 26.6156 35.402 26.7754 34.5648L27.015 33.0498C27.4542 32.8904 27.9334 32.691 28.3328 32.4917L29.6106 33.4086C30.2895 33.887 31.208 33.8073 31.7671 33.2093L33.2047 31.7342C33.7637 31.1362 33.8436 30.2193 33.3644 29.5415L32.4859 28.3056C32.7255 27.8671 32.9251 27.3887 33.0449 26.9103L34.6023 26.6312C35.401 26.4718 36 25.794 36 24.9568V22.8837C36 22.0465 35.401 21.3688 34.5624 21.2093L33.0449 20.9701C32.8852 20.4917 32.6855 20.0133 32.4859 19.5748L33.4043 18.299C33.8835 17.6213 33.8037 16.7043 33.2047 16.1462L31.7271 14.711C31.1281 14.113 30.2097 14.0731 29.5707 14.5515L23.5807 18.7774C22.3028 18.8571 21.1048 19.4552 20.1864 20.3721C19.228 21.3688 18.7088 22.6844 18.7488 24.0797C18.8286 26.9103 21.1448 29.1827 23.98 29.1827C24.02 29.1827 24.0599 29.1827 24.0998 29.1827C26.975 29.103 29.2912 26.711 29.2113 23.8405C29.2113 23.2824 29.0915 22.6844 28.8918 22.1661C28.7321 21.6877 28.213 21.4485 27.7338 21.6478C27.2546 21.8073 27.015 22.3256 27.2146 22.804C27.3344 23.1628 27.4143 23.5216 27.4143 23.9203C27.4542 25.794 25.9368 27.3887 24.0599 27.4286C22.1431 27.4684 20.5857 25.9535 20.5458 24.0797C20.5058 23.1628 20.8652 22.2857 21.5042 21.6478C22.1431 20.9701 22.9817 20.6113 23.9002 20.5714C24.0599 20.5714 24.2596 20.4917 24.3794 20.412L30.5291 16.0664L31.8869 17.4219L31.0083 18.6578C30.6489 19.1761 30.5691 19.8937 30.8885 20.4518C31.0882 20.8106 31.2479 21.2093 31.3677 21.608C31.5674 22.2458 32.0865 22.6844 32.7654 22.804L34.203 23.0432V24.9568L32.7654 25.196C32.1265 25.3156 31.6073 25.7542 31.4077 26.392C31.2879 26.7907 31.1281 27.1495 30.9285 27.5482C30.609 28.1462 30.6889 28.8239 31.0483 29.3821L31.9268 30.5781L30.609 31.9336L29.371 31.0565C28.8519 30.6977 28.1331 30.6179 27.5341 30.9369C27.1747 31.1362 26.8153 31.2558 26.4559 31.4153C25.817 31.6146 25.3777 32.1728 25.2579 32.8106L25.0183 34.2857H23.1015L22.8619 32.8106C22.7421 32.1728 22.3028 31.6545 21.6639 31.4551C21.2646 31.3355 20.8652 31.1761 20.5058 30.9767C19.9068 30.6977 19.228 30.7375 18.6689 31.1362L17.4709 32.0133L16.1131 30.6977L16.9517 29.4618C17.3111 28.9435 17.3511 28.2259 17.0715 27.6279C16.8719 27.2691 16.7121 26.8704 16.5923 26.4718C16.3927 25.8339 15.8336 25.3954 15.1947 25.2757L13.7171 25.0365V23.1229L15.1947 22.8837C15.8336 22.7641 16.3527 22.3256 16.5524 21.6877C16.6722 21.289 16.8319 20.8904 17.0316 20.5316C17.3111 19.9336 17.2712 19.2558 16.8719 18.6977L15.9933 17.5017L17.3111 16.1462L18.5491 16.9834C19.0682 17.3422 19.787 17.3821 20.386 17.103C20.7454 16.9037 21.1448 16.7442 21.584 16.6246C22.223 16.4252 22.7022 15.907 22.782 15.2292L23.0216 13.794H25.0183C25.4975 13.794 25.8968 13.3953 25.8968 12.8771C25.8968 12.3987 25.4975 12 25.0183 12H22.9418C22.1032 12 21.4243 12.598 21.2646 13.4352L21.025 14.9502C20.5058 15.1096 20.0266 15.309 19.5874 15.5482L18.3095 14.6711C17.6306 14.1927 16.7121 14.2724 16.1531 14.8704L14.7155 16.3455C14.1564 16.9435 14.0765 17.8605 14.5557 18.5382L15.4742 19.7741C15.2346 20.2126 15.0749 20.691 14.9151 21.1694L13.3977 21.4485C12.599 21.608 12.0399 22.2857 12 23.0831V23.1229V25.196C12 26.0332 12.599 26.711 13.4376 26.8704L14.9551 27.1096C15.1148 27.588 15.3145 28.0664 15.5541 28.505L14.6755 29.7807C14.1963 30.4585 14.2762 31.3754 14.8752 31.9336L16.3527 33.3688C16.8319 33.887 17.7504 33.9668 18.4293 33.4485Z" fill="white"/>
</svg>
