<svg width="24" height="24" viewBox="0 0 24 24" fill="none" xmlns="http://www.w3.org/2000/svg">
<circle cx="12" cy="12" r="12" fill="#23ADE6"/>
<path d="M16.5804 6.21436H15.6161C15.4243 6.21436 15.2403 6.29055 15.1047 6.42618C14.9691 6.56181 14.8929 6.74576 14.8929 6.93757V7.41971H13.9286V7.17864C13.9286 7.11471 13.9032 7.05339 13.858 7.00818C13.8128 6.96297 13.7514 6.93757 13.6875 6.93757H10.7946C10.7307 6.93757 10.6694 6.96297 10.6242 7.00818C10.579 7.05339 10.5536 7.11471 10.5536 7.17864V7.41971H9.58929V6.93757C9.58929 6.74576 9.51309 6.56181 9.37746 6.42618C9.24183 6.29055 9.05788 6.21436 8.86607 6.21436H7.90179C7.70998 6.21436 7.52603 6.29055 7.3904 6.42618C7.25477 6.56181 7.17857 6.74576 7.17857 6.93757V9.34828C7.17857 9.54009 7.25477 9.72404 7.3904 9.85967C7.52603 9.9953 7.70998 10.0715 7.90179 10.0715H8.86607C9.05788 10.0715 9.24183 9.9953 9.37746 9.85967C9.51309 9.72404 9.58929 9.54009 9.58929 9.34828V8.86614H10.5536V9.10721C10.5536 9.17115 10.579 9.23247 10.6242 9.27768C10.6694 9.32289 10.7307 9.34828 10.7946 9.34828H11.2768V10.0715C11.2768 10.1354 11.3022 10.1968 11.3474 10.242C11.3926 10.2872 11.4539 10.3126 11.5179 10.3126V11.0358C11.4539 11.0358 11.3926 11.0612 11.3474 11.1064C11.3022 11.1516 11.2768 11.2129 11.2768 11.2769V14.1697C11.2768 14.2336 11.3022 14.295 11.3474 14.3402C11.3926 14.3854 11.4539 14.4108 11.5179 14.4108V14.8929H11.0357C10.9718 14.8929 10.9105 14.9183 10.8653 14.9635C10.82 15.0087 10.7946 15.0701 10.7946 15.134H9.58929V14.6519C9.58929 14.46 9.51309 14.2761 9.37746 14.1405C9.24183 14.0048 9.05788 13.9286 8.86607 13.9286H7.90179C7.70998 13.9286 7.52603 14.0048 7.3904 14.1405C7.25477 14.2761 7.17857 14.46 7.17857 14.6519V17.0626C7.17857 17.2544 7.25477 17.4383 7.3904 17.574C7.52603 17.7096 7.70998 17.7858 7.90179 17.7858H8.86607C9.05788 17.7858 9.24183 17.7096 9.37746 17.574C9.51309 17.4383 9.58929 17.2544 9.58929 17.0626V16.5804H10.7946C10.7946 16.6444 10.82 16.7057 10.8653 16.7509C10.9105 16.7961 10.9718 16.8215 11.0357 16.8215H13.4464C13.5104 16.8215 13.5717 16.7961 13.6169 16.7509C13.6621 16.7057 13.6875 16.6444 13.6875 16.5804H14.8929V17.0626C14.8929 17.2544 14.9691 17.4383 15.1047 17.574C15.2403 17.7096 15.4243 17.7858 15.6161 17.7858H16.5804C16.7722 17.7858 16.9561 17.7096 17.0917 17.574C17.2274 17.4383 17.3036 17.2544 17.3036 17.0626V14.6519C17.3036 14.46 17.2274 14.2761 17.0917 14.1405C16.9561 14.0048 16.7722 13.9286 16.5804 13.9286H15.6161C15.4243 13.9286 15.2403 14.0048 15.1047 14.1405C14.9691 14.2761 14.8929 14.46 14.8929 14.6519V15.134H13.6875C13.6875 15.0701 13.6621 15.0087 13.6169 14.9635C13.5717 14.9183 13.5104 14.8929 13.4464 14.8929H12.9643V14.4108C13.0282 14.4108 13.0895 14.3854 13.1348 14.3402C13.18 14.295 13.2054 14.2336 13.2054 14.1697V11.2769C13.2054 11.2129 13.18 11.1516 13.1348 11.1064C13.0895 11.0612 13.0282 11.0358 12.9643 11.0358V10.3126C13.0282 10.3126 13.0895 10.2872 13.1348 10.242C13.18 10.1968 13.2054 10.1354 13.2054 10.0715V9.34828H13.6875C13.7514 9.34828 13.8128 9.32289 13.858 9.27768C13.9032 9.23247 13.9286 9.17115 13.9286 9.10721V8.86614H14.8929V9.34828C14.8929 9.54009 14.9691 9.72404 15.1047 9.85967C15.2403 9.9953 15.4243 10.0715 15.6161 10.0715H16.5804C16.7722 10.0715 16.9561 9.9953 17.0917 9.85967C17.2274 9.72404 17.3036 9.54009 17.3036 9.34828V6.93757C17.3036 6.74576 17.2274 6.56181 17.0917 6.42618C16.9561 6.29055 16.7722 6.21436 16.5804 6.21436ZM9.10715 9.34828C9.10715 9.41222 9.08175 9.47354 9.03654 9.51875C8.99133 9.56396 8.93001 9.58936 8.86607 9.58936H7.90179C7.83785 9.58936 7.77653 9.56396 7.73132 9.51875C7.68612 9.47354 7.66072 9.41222 7.66072 9.34828V9.10721H8.14286C8.2068 9.10721 8.26811 9.08181 8.31332 9.0366C8.35853 8.99139 8.38393 8.93008 8.38393 8.86614C8.38393 8.8022 8.35853 8.74089 8.31332 8.69568C8.26811 8.65047 8.2068 8.62507 8.14286 8.62507H7.66072V7.66078H8.14286C8.2068 7.66078 8.26811 7.63539 8.31332 7.59018C8.35853 7.54497 8.38393 7.48365 8.38393 7.41971C8.38393 7.35578 8.35853 7.29446 8.31332 7.24925C8.26811 7.20404 8.2068 7.17864 8.14286 7.17864H7.66072V6.93757C7.66072 6.87363 7.68612 6.81232 7.73132 6.76711C7.77653 6.7219 7.83785 6.6965 7.90179 6.6965H8.86607C8.93001 6.6965 8.99133 6.7219 9.03654 6.76711C9.08175 6.81232 9.10715 6.87363 9.10715 6.93757V7.90186H8.625C8.56107 7.90186 8.49975 7.92725 8.45454 7.97246C8.40933 8.01767 8.38393 8.07899 8.38393 8.14293C8.38393 8.20686 8.40933 8.26818 8.45454 8.31339C8.49975 8.3586 8.56107 8.384 8.625 8.384H9.10715V9.34828ZM9.58929 8.384V7.90186H10.5536V8.384H9.58929ZM12.7232 13.9286H11.7589V11.5179H12.7232V13.9286ZM9.10715 17.0626C9.10715 17.1265 9.08175 17.1878 9.03654 17.233C8.99133 17.2782 8.93001 17.3036 8.86607 17.3036H7.90179C7.83785 17.3036 7.77653 17.2782 7.73132 17.233C7.68612 17.1878 7.66072 17.1265 7.66072 17.0626V15.3751H8.14286C8.2068 15.3751 8.26811 15.3497 8.31332 15.3045C8.35853 15.2593 8.38393 15.1979 8.38393 15.134C8.38393 15.0701 8.35853 15.0087 8.31332 14.9635C8.26811 14.9183 8.2068 14.8929 8.14286 14.8929H7.66072V14.6519C7.66072 14.5879 7.68612 14.5266 7.73132 14.4814C7.77653 14.4362 7.83785 14.4108 7.90179 14.4108H8.86607C8.93001 14.4108 8.99133 14.4362 9.03654 14.4814C9.08175 14.5266 9.10715 14.5879 9.10715 14.6519V15.6161H8.625C8.56107 15.6161 8.49975 15.6415 8.45454 15.6867C8.40933 15.732 8.38393 15.7933 8.38393 15.8572C8.38393 15.9211 8.40933 15.9825 8.45454 16.0277C8.49975 16.0729 8.56107 16.0983 8.625 16.0983H9.10715V17.0626ZM9.58929 16.0983V15.6161H10.7946V16.0983H9.58929ZM15.375 14.6519C15.375 14.5879 15.4004 14.5266 15.4456 14.4814C15.4908 14.4362 15.5521 14.4108 15.6161 14.4108H16.5804C16.6443 14.4108 16.7056 14.4362 16.7508 14.4814C16.796 14.5266 16.8214 14.5879 16.8214 14.6519V14.8929H16.3393C16.2754 14.8929 16.214 14.9183 16.1688 14.9635C16.1236 15.0087 16.0982 15.0701 16.0982 15.134C16.0982 15.1979 16.1236 15.2593 16.1688 15.3045C16.214 15.3497 16.2754 15.3751 16.3393 15.3751H16.8214V17.0626C16.8214 17.1265 16.796 17.1878 16.7508 17.233C16.7056 17.2782 16.6443 17.3036 16.5804 17.3036H15.6161C15.5521 17.3036 15.4908 17.2782 15.4456 17.233C15.4004 17.1878 15.375 17.1265 15.375 17.0626V16.0983H15.8571C15.9211 16.0983 15.9824 16.0729 16.0276 16.0277C16.0728 15.9825 16.0982 15.9211 16.0982 15.8572C16.0982 15.7933 16.0728 15.732 16.0276 15.6867C15.9824 15.6415 15.9211 15.6161 15.8571 15.6161H15.375V14.6519ZM14.8929 15.6161V16.0983H13.6875V15.6161H14.8929ZM13.2054 16.3394H11.2768V15.3751H13.2054V16.3394ZM12.4821 14.8929H12V14.4108H12.4821V14.8929ZM12.4821 11.0358H12V10.3126H12.4821V11.0358ZM12.7232 9.83043H11.7589V9.34828H12.7232V9.83043ZM13.4464 8.86614H11.0357V7.41971H13.4464V8.86614ZM13.9286 8.384V7.90186H14.8929V8.384H13.9286ZM16.5804 9.58936H15.6161C15.5521 9.58936 15.4908 9.56396 15.4456 9.51875C15.4004 9.47354 15.375 9.41222 15.375 9.34828V8.384H15.8571C15.9211 8.384 15.9824 8.3586 16.0276 8.31339C16.0728 8.26818 16.0982 8.20686 16.0982 8.14293C16.0982 8.07899 16.0728 8.01767 16.0276 7.97246C15.9824 7.92725 15.9211 7.90186 15.8571 7.90186H15.375V6.93757C15.375 6.87363 15.4004 6.81232 15.4456 6.76711C15.4908 6.7219 15.5521 6.6965 15.6161 6.6965H16.5804C16.6443 6.6965 16.7056 6.7219 16.7508 6.76711C16.796 6.81232 16.8214 6.87363 16.8214 6.93757V7.17864H16.3393C16.2754 7.17864 16.214 7.20404 16.1688 7.24925C16.1236 7.29446 16.0982 7.35578 16.0982 7.41971C16.0982 7.48365 16.1236 7.54497 16.1688 7.59018C16.214 7.63539 16.2754 7.66078 16.3393 7.66078H16.8214V8.62507H16.3393C16.2754 8.62507 16.214 8.65047 16.1688 8.69568C16.1236 8.74089 16.0982 8.8022 16.0982 8.86614C16.0982 8.93008 16.1236 8.99139 16.1688 9.0366C16.214 9.08181 16.2754 9.10721 16.3393 9.10721H16.8214V9.34828C16.8214 9.41222 16.796 9.47354 16.7508 9.51875C16.7056 9.56396 16.6443 9.58936 16.5804 9.58936Z" fill="white"/>
</svg>
