<svg width="48" height="48" viewBox="0 0 48 48" fill="none" xmlns="http://www.w3.org/2000/svg">
<g clip-path="url(#clip0_510_738)">
<path d="M36 39.0471C38.4853 39.0471 40.5 37.0324 40.5 34.5471C40.5 32.0618 38.4853 30.0471 36 30.0471C33.5147 30.0471 31.5 32.0618 31.5 34.5471C31.5 37.0324 33.5147 39.0471 36 39.0471Z" fill="#FEB80C"/>
<path d="M42.3 21.0469H37.5C35.7 12.9468 27.9 7.54685 19.8 9.34685C13.8 10.5468 9 15.0468 7.8 21.0469H5.7C2.7 21.0469 0 23.7468 0 26.7468L0 30.6469C0 32.7469 1.8 34.5469 3.9 34.5469H4.8C4.8 30.6469 8.1 27.3469 12 27.3469C15.9 27.3469 19.2 30.6469 19.2 34.5469H28.8C28.8 30.6469 32.1 27.3469 36 27.3469C39.9 27.3469 43.2 30.6469 43.2 34.5469H44.1C46.2 34.5469 48 32.7469 48 30.6469V27.0469C48 23.7469 45.3 21.0469 42.3 21.0469ZM12.6 21.0469C14.1 15.3468 20.1 12.3468 25.5 13.8468C28.8 14.7468 31.5 17.4468 32.7 21.0469H12.6ZM12 30.0469C9.6 30.0469 7.5 32.1469 7.5 34.5469C7.5 36.9469 9.6 39.0468 12 39.0468C14.4 39.0468 16.5 36.9469 16.5 34.5469C16.5 32.1469 14.4 30.0469 12 30.0469Z" fill="#FEB80C"/>
</g>
<defs>
<clipPath id="clip0_510_738">
<rect width="48" height="48" fill="white"/>
</clipPath>
</defs>
</svg>
