<svg width="48" height="48" viewBox="0 0 48 48" fill="none" xmlns="http://www.w3.org/2000/svg">
<path d="M2 11.125C2 10.031 2.4346 8.98177 3.20818 8.20818C3.98177 7.4346 5.03098 7 6.125 7H30.875C31.969 7 33.0182 7.4346 33.7918 8.20818C34.5654 8.98177 35 10.031 35 11.125V15.25H37.805C38.423 15.2506 39.033 15.39 39.59 15.658C40.1469 15.9259 40.6364 16.3156 41.0225 16.7982L45.0952 21.8857C45.6812 22.6178 46.0004 23.5276 46 24.4652V30.375C46 31.469 45.5654 32.5182 44.7918 33.2918C44.0182 34.0654 42.969 34.5 41.875 34.5H40.5C40.5 35.9587 39.9205 37.3576 38.8891 38.3891C37.8576 39.4205 36.4587 40 35 40C33.5413 40 32.1424 39.4205 31.1109 38.3891C30.0795 37.3576 29.5 35.9587 29.5 34.5H15.75C15.7516 35.2331 15.6066 35.9591 15.3235 36.6354C15.0405 37.3117 14.6251 37.9245 14.1018 38.4379C13.5785 38.9513 12.9578 39.3549 12.2763 39.625C11.5947 39.8951 10.866 40.0262 10.1331 40.0106C9.40016 39.995 8.67773 39.8331 8.00828 39.5343C7.33883 39.2355 6.73588 38.8058 6.23486 38.2707C5.73384 37.7355 5.34487 37.1055 5.09082 36.4178C4.83677 35.7302 4.72276 34.9986 4.7555 34.2662C3.94988 33.9827 3.25214 33.4561 2.75857 32.7591C2.26501 32.0621 1.99995 31.2291 2 30.375L2 11.125ZM5.5585 31.629C6.0557 30.815 6.75616 30.1443 7.59102 29.683C8.42588 29.2216 9.36642 28.9855 10.3202 28.9977C11.274 29.0099 12.2082 29.2701 13.0309 29.7526C13.8537 30.2352 14.5368 30.9235 15.013 31.75H30.237C30.7207 30.9148 31.4148 30.2207 32.25 29.737V11.125C32.25 10.7603 32.1051 10.4106 31.8473 10.1527C31.5894 9.89487 31.2397 9.75 30.875 9.75H6.125C5.76033 9.75 5.41059 9.89487 5.15273 10.1527C4.89487 10.4106 4.75 10.7603 4.75 11.125V30.375C4.74978 30.6397 4.82595 30.8988 4.96937 31.1212C5.11278 31.3436 5.31734 31.52 5.5585 31.629ZM35 29C35.9654 29 36.9138 29.2542 37.7499 29.7369C38.586 30.2196 39.2803 30.9139 39.763 31.75H41.875C42.2397 31.75 42.5894 31.6051 42.8473 31.3473C43.1051 31.0894 43.25 30.7397 43.25 30.375V24.4625C43.2494 24.1505 43.1428 23.8479 42.9475 23.6045L38.8775 18.517C38.7489 18.356 38.5858 18.2259 38.4001 18.1364C38.2145 18.0469 38.0111 18.0003 37.805 18H35V29ZM10.25 31.75C9.52065 31.75 8.82118 32.0397 8.30546 32.5555C7.78973 33.0712 7.5 33.7707 7.5 34.5C7.5 35.2293 7.78973 35.9288 8.30546 36.4445C8.82118 36.9603 9.52065 37.25 10.25 37.25C10.9793 37.25 11.6788 36.9603 12.1945 36.4445C12.7103 35.9288 13 35.2293 13 34.5C13 33.7707 12.7103 33.0712 12.1945 32.5555C11.6788 32.0397 10.9793 31.75 10.25 31.75ZM35 31.75C34.2707 31.75 33.5712 32.0397 33.0555 32.5555C32.5397 33.0712 32.25 33.7707 32.25 34.5C32.25 35.2293 32.5397 35.9288 33.0555 36.4445C33.5712 36.9603 34.2707 37.25 35 37.25C35.7293 37.25 36.4288 36.9603 36.9445 36.4445C37.4603 35.9288 37.75 35.2293 37.75 34.5C37.75 33.7707 37.4603 33.0712 36.9445 32.5555C36.4288 32.0397 35.7293 31.75 35 31.75Z" fill="#2B2B2B"/>
</svg>
