<svg width="48" height="48" viewBox="0 0 48 48" fill="none" xmlns="http://www.w3.org/2000/svg">
<g clip-path="url(#clip0_510_870)">
<path d="M20 22.6666H24V25.3333H20V22.6666Z" fill="#2B2B2B"/>
<path d="M35.2666 18.8934C32.9019 15.0238 29.676 11.7522 25.84 9.33335C24.0678 8.21021 22.0477 7.53794 19.956 7.37525C17.8642 7.21256 15.7644 7.56439 13.84 8.40002C12.1566 9.19403 10.6919 10.3858 9.5722 11.8726C8.45251 13.3593 7.71155 15.0962 7.41329 16.9334C7.30663 17.56 7.22663 18.16 7.14663 18.7467C5.89829 18.949 4.76246 19.5884 3.94187 20.5506C3.12127 21.5129 2.6693 22.7354 2.66663 24V32.1734C2.66663 32.8806 2.94758 33.5589 3.44767 34.059C3.94777 34.5591 4.62605 34.84 5.33329 34.84V24C5.33329 23.2928 5.61424 22.6145 6.11434 22.1144C6.61444 21.6143 7.29272 21.3334 7.99996 21.3334H32.9733C35.543 21.3369 38.0065 22.3593 39.8236 24.1764C41.6407 25.9935 42.6631 28.4569 42.6666 31.0267V32H40C39.4368 30.6268 38.3878 29.5091 37.0531 28.86C35.7184 28.2109 34.1915 28.076 32.7636 28.4809C31.3358 28.8858 30.107 29.8023 29.3118 31.0555C28.5166 32.3086 28.2106 33.8107 28.4522 35.275C28.6938 36.7394 29.4661 38.0635 30.6218 38.9948C31.7774 39.926 33.2355 40.3992 34.7177 40.324C36.2 40.2487 37.6027 39.6304 38.6581 38.587C39.7135 37.5435 40.3478 36.148 40.44 34.6667H42.6666C43.3739 34.6667 44.0522 34.3857 44.5522 33.8856C45.0523 33.3855 45.3333 32.7073 45.3333 32V31.0267C45.3279 28.1493 44.3199 25.3637 42.4826 23.1492C40.6453 20.9347 38.0936 19.4298 35.2666 18.8934ZM14.6666 18.6667H9.23996C9.23996 18.2534 9.35996 17.8267 9.43996 17.3334C9.67032 15.8686 10.2715 14.4872 11.1863 13.3203C12.1011 12.1534 13.2992 11.24 14.6666 10.6667V18.6667ZM17.3333 18.6667V10.1067C19.8226 9.78343 22.3471 10.3298 24.48 11.6534C27.3916 13.4669 29.9046 15.8529 31.8666 18.6667H17.3333ZM34.4 37.84C33.7407 37.84 33.0962 37.6445 32.5481 37.2782C31.9999 36.912 31.5727 36.3914 31.3204 35.7823C31.0681 35.1732 31.0021 34.503 31.1307 33.8564C31.2593 33.2098 31.5768 32.6158 32.0429 32.1497C32.5091 31.6835 33.1031 31.366 33.7497 31.2374C34.3963 31.1088 35.0665 31.1748 35.6756 31.4271C36.2847 31.6794 36.8053 32.1066 37.1715 32.6548C37.5378 33.2029 37.7333 33.8474 37.7333 34.5067C37.7333 35.3907 37.3821 36.2386 36.757 36.8637C36.1319 37.4888 35.284 37.84 34.4 37.84Z" fill="#2B2B2B"/>
<path d="M18.8934 32C18.3303 30.6268 17.2813 29.509 15.9466 28.86C14.6119 28.2109 13.0849 28.0759 11.657 28.4809C10.2292 28.8858 9.00043 29.8023 8.20521 31.0555C7.40998 32.3086 7.10399 33.8107 7.34561 35.275C7.58723 36.7394 8.35955 38.0635 9.51519 38.9948C10.6708 39.926 12.1289 40.3992 13.6112 40.324C15.0934 40.2487 16.4961 39.6304 17.5515 38.5869C18.6069 37.5435 19.2412 36.148 19.3334 34.6667H26.4V34.3333C26.3737 33.5467 26.4635 32.7604 26.6667 32H18.8934ZM13.3334 37.84C12.6741 37.84 12.0296 37.6445 11.4815 37.2782C10.9333 36.912 10.5061 36.3914 10.2538 35.7823C10.0015 35.1732 9.93548 34.503 10.0641 33.8564C10.1927 33.2098 10.5102 32.6158 10.9764 32.1496C11.4425 31.6835 12.0365 31.366 12.6831 31.2374C13.3297 31.1088 13.9999 31.1748 14.609 31.4271C15.2181 31.6794 15.7387 32.1066 16.1049 32.6548C16.4712 33.2029 16.6667 33.8474 16.6667 34.5067C16.6667 35.3907 16.3155 36.2386 15.6904 36.8637C15.0653 37.4888 14.2174 37.84 13.3334 37.84Z" fill="#2B2B2B"/>
</g>
<defs>
<clipPath id="clip0_510_870">
<rect width="48" height="48" fill="white"/>
</clipPath>
</defs>
</svg>
