<svg width="24" height="24" viewBox="0 0 24 24" fill="none" xmlns="http://www.w3.org/2000/svg">
<path d="M12 22C17.5228 22 22 17.5228 22 12C22 6.47715 17.5228 2 12 2C6.47715 2 2 6.47715 2 12C2 17.5228 6.47715 22 12 22Z" fill="url(#paint0_linear_510_818)"/>
<path d="M10.8193 15.6354C10.7845 15.6354 10.7503 15.6263 10.7201 15.6091C10.6898 15.5918 10.6646 15.5669 10.647 15.537C9.98236 14.4047 8.21082 11.9939 8.19236 11.9693C8.16393 11.9305 8.15038 11.8829 8.1542 11.835C8.15801 11.7871 8.17893 11.7422 8.21313 11.7085L8.75775 11.17C8.79106 11.1371 8.83486 11.1169 8.88153 11.113C8.9282 11.109 8.97477 11.1216 9.01313 11.1485L10.7777 12.3793C11.6699 11.2232 12.6749 10.1587 13.7777 9.20157C14.2017 8.82754 14.6535 8.4863 15.1293 8.1808C15.1604 8.16214 15.1961 8.1523 15.2324 8.15234H16.1147C16.1552 8.15236 16.1947 8.16468 16.2281 8.18768C16.2615 8.21068 16.2871 8.24327 16.3015 8.28113C16.3159 8.31899 16.3185 8.36034 16.3089 8.39971C16.2993 8.43908 16.278 8.4746 16.2477 8.50157C13.7447 10.7323 11.0224 15.4847 10.9954 15.5323C10.9781 15.5628 10.953 15.5881 10.9228 15.6058C10.8925 15.6234 10.8582 15.6329 10.8231 15.6331L10.8193 15.6354Z" fill="white"/>
<defs>
<linearGradient id="paint0_linear_510_818" x1="4.92" y1="18.86" x2="18.84" y2="4.64" gradientUnits="userSpaceOnUse">
<stop stop-color="#9D79FF"/>
<stop offset="1" stop-color="#7747FD"/>
</linearGradient>
</defs>
</svg>
