<svg width="24" height="25" viewBox="0 0 24 25" fill="none" xmlns="http://www.w3.org/2000/svg">
<ellipse cx="12" cy="12.1046" rx="12" ry="11.9804" fill="#575BB5"/>
<g clip-path="url(#clip0_510_1950)">
<path d="M10.5414 12.2118L11.7081 13.3784L14.3331 10.7534M12.2914 17.1701C15.0299 17.1701 17.2498 14.9502 17.2498 12.2118C17.2498 9.47334 15.0299 7.25342 12.2914 7.25342C9.55303 7.25342 7.33311 9.47334 7.33311 12.2118C7.33311 12.7659 7.42402 13.2988 7.59174 13.7964C7.65486 13.9837 7.68642 14.0773 7.69211 14.1493C7.69773 14.2203 7.69348 14.2701 7.67591 14.3391C7.65811 14.4091 7.61882 14.4818 7.54025 14.6272L6.58611 16.3933C6.45002 16.6452 6.38197 16.7712 6.3972 16.8684C6.41046 16.953 6.4603 17.0276 6.53346 17.0722C6.61746 17.1235 6.75987 17.1087 7.04468 17.0793L10.0319 16.7705C10.1224 16.7612 10.1676 16.7565 10.2089 16.7581C10.2494 16.7596 10.278 16.7634 10.3176 16.7725C10.3578 16.7818 10.4083 16.8013 10.5094 16.8402C11.0625 17.0533 11.6633 17.1701 12.2914 17.1701Z" stroke="white" stroke-width="1.5" stroke-linecap="round" stroke-linejoin="round"/>
</g>
<defs>
<clipPath id="clip0_510_1950">
<rect width="13.5" height="13.4779" fill="white" transform="translate(5.25 5.36572)"/>
</clipPath>
</defs>
</svg>
