<svg width="48" height="48" viewBox="0 0 48 48" fill="none" xmlns="http://www.w3.org/2000/svg">
<circle cx="24" cy="24" r="24" fill="#575BB5"/>
<g clip-path="url(#clip0_510_557)">
<path d="M21.4996 23.5L23.4996 25.5L27.9996 21M24.4996 32C29.194 32 32.9996 28.1944 32.9996 23.5C32.9996 18.8056 29.194 15 24.4996 15C19.8052 15 15.9996 18.8056 15.9996 23.5C15.9996 24.45 16.1555 25.3636 16.443 26.2166C16.5512 26.5376 16.6053 26.6981 16.6151 26.8214C16.6247 26.9432 16.6174 27.0286 16.5873 27.1469C16.5568 27.2668 16.4894 27.3915 16.3547 27.6408L14.7191 30.6684C14.4857 31.1002 14.3691 31.3161 14.3952 31.4828C14.4179 31.6279 14.5034 31.7557 14.6288 31.8322C14.7728 31.9201 15.0169 31.8948 15.5052 31.8444L20.6262 31.315C20.7813 31.299 20.8588 31.291 20.9295 31.2937C20.999 31.2963 21.0481 31.3029 21.1159 31.3185C21.1848 31.3344 21.2714 31.3678 21.4448 31.4345C22.3928 31.7998 23.4228 32 24.4996 32Z" stroke="white" stroke-width="2" stroke-linecap="round" stroke-linejoin="round"/>
</g>
<defs>
<clipPath id="clip0_510_557">
<rect width="24" height="24" fill="white" transform="translate(12 12)"/>
</clipPath>
</defs>
</svg>
