<svg width="24" height="25" viewBox="0 0 24 25" fill="none" xmlns="http://www.w3.org/2000/svg">
<ellipse cx="12" cy="12.2487" rx="12" ry="11.9804" fill="#23ADE6"/>
<g clip-path="url(#clip0_510_1942)">
<path d="M10.25 11.7725L11.4167 12.9391L14.0417 10.3141M16.6667 17.8975V10.1975C16.6667 9.21737 16.6667 8.72732 16.4759 8.35298C16.3081 8.02369 16.0404 7.75598 15.7111 7.5882C15.3368 7.39746 14.8468 7.39746 13.8667 7.39746H10.1333C9.15324 7.39746 8.66319 7.39746 8.28884 7.5882C7.95956 7.75598 7.69185 8.02369 7.52407 8.35298C7.33333 8.72732 7.33333 9.21737 7.33333 10.1975V17.8975L8.9375 16.7308L10.3958 17.8975L12 16.7308L13.6042 17.8975L15.0625 16.7308L16.6667 17.8975Z" stroke="white" stroke-width="1.5" stroke-linecap="round" stroke-linejoin="round"/>
</g>
<defs>
<clipPath id="clip0_510_1942">
<rect width="13.5" height="13.4779" fill="white" transform="translate(5.25 5.50977)"/>
</clipPath>
</defs>
</svg>
