<svg width="19" height="23" viewBox="0 0 19 23" fill="none" xmlns="http://www.w3.org/2000/svg">
<path d="M15.769 12.2991C15.7907 10.6181 16.6934 9.02751 18.1256 8.14705C17.2221 6.85673 15.7088 6.03863 14.1344 5.98937C12.4552 5.81311 10.8272 6.9942 9.97149 6.9942C9.09922 6.9942 7.78172 6.00687 6.36299 6.03606C4.51374 6.0958 2.78977 7.14719 1.89007 8.76393C-0.0439277 12.1123 1.39866 17.0334 3.25127 19.74C4.17817 21.0654 5.26145 22.5458 6.6789 22.4933C8.06596 22.4358 8.584 21.6088 10.2583 21.6088C11.9171 21.6088 12.4031 22.4933 13.8493 22.4599C15.3377 22.4358 16.2754 21.1287 17.1698 19.7908C17.8358 18.8464 18.3483 17.8027 18.6882 16.6983C16.9391 15.9585 15.771 14.1982 15.769 12.2991Z" fill="white"/>
<path d="M13.0373 4.20937C13.8489 3.23516 14.2487 1.98298 14.1518 0.71875C12.912 0.84897 11.7668 1.44153 10.9443 2.37836C10.14 3.29369 9.72143 4.52384 9.80056 5.73975C11.0408 5.75252 12.2601 5.17602 13.0373 4.20937Z" fill="white"/>
</svg>
