<svg width="25" height="26" viewBox="0 0 25 26" fill="none" xmlns="http://www.w3.org/2000/svg">
<path fill-rule="evenodd" clip-rule="evenodd" d="M1.15639 0.965197C1.03827 1.2327 0.973022 1.56046 0.973022 1.94172V24.0577C0.973022 24.4398 1.03835 24.7676 1.15661 25.035L13.1905 12.9993L1.15639 0.965197ZM1.85161 25.7542C2.29766 25.9451 2.87953 25.8845 3.51402 25.5247L17.6711 17.4799L13.8976 13.7065L1.85161 25.7542ZM18.5736 16.9682L23.015 14.4447C24.412 13.6497 24.412 12.3507 23.015 11.5567L18.5716 9.03184L14.6047 12.9993L18.5736 16.9682ZM17.6698 8.51943L3.51402 0.475724C2.87949 0.115146 2.29759 0.054983 1.85153 0.246121L13.8976 12.2922L17.6698 8.51943Z" fill="white"/>
</svg>
