<svg width="32" height="32" viewBox="0 0 32 32" fill="none" xmlns="http://www.w3.org/2000/svg">
<g clip-path="url(#clip0_510_1634)">
<path d="M32 15.9985C32 7.16197 24.8366 -0.00146484 16 -0.00146484C7.16344 -0.00146484 0 7.16197 0 15.9985C0 23.9845 5.85094 30.6038 13.5 31.8042V20.6235H9.4375V15.9985H13.5V12.4735C13.5 8.46354 15.8888 6.24854 19.5434 6.24854C21.2934 6.24854 23.125 6.56104 23.125 6.56104V10.4985H21.1075C19.12 10.4985 18.5 11.732 18.5 12.9985V15.9985H22.9375L22.2281 20.6235H18.5V31.8042C26.1491 30.6038 32 23.9845 32 15.9985Z" fill="white"/>
</g>
<defs>
<clipPath id="clip0_510_1634">
<rect width="32" height="32" fill="white" transform="translate(0 -0.00146484)"/>
</clipPath>
</defs>
</svg>
