<svg width="32" height="32" viewBox="0 0 32 32" fill="none" xmlns="http://www.w3.org/2000/svg">
<g clip-path="url(#clip0_510_1636)">
<path fill-rule="evenodd" clip-rule="evenodd" d="M32 15.9985C32 24.8351 24.8366 31.9985 16 31.9985C7.16344 31.9985 0 24.8351 0 15.9985C0 7.16198 7.16344 -0.00146484 16 -0.00146484C24.8366 -0.00146484 32 7.16198 32 15.9985ZM16.5734 11.8104C15.0171 12.4577 11.9068 13.7975 7.24252 15.8296C6.48511 16.1308 6.08834 16.4255 6.05222 16.7136C5.99118 17.2005 6.60095 17.3923 7.4313 17.6534C7.54425 17.6889 7.66127 17.7257 7.78125 17.7647C8.59818 18.0302 9.6971 18.3409 10.2684 18.3532C10.7866 18.3644 11.365 18.1508 12.0035 17.7123C16.3615 14.7705 18.6112 13.2836 18.7524 13.2516C18.8521 13.2289 18.9901 13.2005 19.0837 13.2837C19.1772 13.3668 19.168 13.5243 19.1581 13.5665C19.0977 13.8241 16.7042 16.0493 15.4655 17.2009C15.0793 17.5599 14.8054 17.8146 14.7494 17.8727C14.624 18.003 14.4962 18.1262 14.3733 18.2447C13.6144 18.9763 13.0452 19.525 14.4048 20.4209C15.0582 20.8515 15.581 21.2075 16.1026 21.5627C16.6722 21.9506 17.2404 22.3375 17.9755 22.8194C18.1628 22.9422 18.3416 23.0697 18.5158 23.1939C19.1788 23.6665 19.7743 24.0911 20.5101 24.0234C20.9377 23.984 21.3793 23.582 21.6036 22.383C22.1336 19.5494 23.1755 13.4098 23.4163 10.8798C23.4374 10.6582 23.4109 10.3745 23.3895 10.25C23.3682 10.1254 23.3237 9.94801 23.1618 9.81667C22.9701 9.66112 22.6742 9.62832 22.5418 9.63065C21.94 9.64125 21.0167 9.96229 16.5734 11.8104Z" fill="white"/>
</g>
<defs>
<clipPath id="clip0_510_1636">
<rect width="32" height="32" fill="white" transform="translate(0 -0.00146484)"/>
</clipPath>
</defs>
</svg>
