<svg width="32" height="32" viewBox="0 0 32 32" fill="none" xmlns="http://www.w3.org/2000/svg">
<path d="M10.0669 28.9985C22.1394 28.9985 28.7444 18.9941 28.7444 10.321C28.7444 10.0398 28.7381 9.75227 28.7256 9.47102C30.0105 8.54182 31.1193 7.39087 32 6.07227C30.8034 6.60467 29.5329 6.95238 28.2319 7.10352C29.6017 6.28241 30.6274 4.9925 31.1187 3.47289C29.8301 4.23661 28.4208 4.77535 26.9513 5.06602C25.9611 4.01395 24.652 3.31736 23.2262 3.08394C21.8005 2.85052 20.3376 3.09327 19.0637 3.77466C17.7897 4.45606 16.7757 5.53814 16.1785 6.85362C15.5812 8.16909 15.4339 9.64469 15.7594 11.0523C13.15 10.9213 10.5972 10.2435 8.26664 9.06267C5.93604 7.88186 3.87959 6.22445 2.23062 4.19789C1.39253 5.64286 1.13608 7.35273 1.51337 8.97999C1.89067 10.6073 2.87342 12.0298 4.26188 12.9585C3.2195 12.9254 2.19997 12.6448 1.2875 12.1398V12.221C1.28657 13.7374 1.8108 15.2073 2.77108 16.3809C3.73136 17.5545 5.06843 18.3593 6.555 18.6585C5.58941 18.9227 4.57598 18.9612 3.59313 18.771C4.01261 20.0751 4.82876 21.2157 5.92769 22.0336C7.02662 22.8516 8.35349 23.306 9.72313 23.3335C7.3979 25.16 4.52557 26.1507 1.56875 26.146C1.04438 26.1452 0.520532 26.1131 0 26.0498C3.00381 27.9769 6.49804 29.0004 10.0669 28.9985Z" fill="white"/>
</svg>
