<svg width="32" height="32" viewBox="0 0 32 32" fill="none" xmlns="http://www.w3.org/2000/svg">
<g clip-path="url(#clip0_510_1637)">
<path d="M16 2.87979C20.275 2.87979 20.7813 2.89854 22.4625 2.97354C24.025 3.04228 24.8688 3.30479 25.4313 3.52354C26.175 3.81104 26.7125 4.16104 27.2688 4.71729C27.8313 5.27979 28.175 5.81104 28.4625 6.55479C28.6813 7.11729 28.9438 7.96729 29.0125 9.52353C29.0875 11.211 29.1063 11.7173 29.1063 15.986C29.1063 20.261 29.0875 20.7673 29.0125 22.4485C28.9438 24.011 28.6813 24.8548 28.4625 25.4173C28.175 26.161 27.825 26.6985 27.2688 27.2548C26.7063 27.8173 26.175 28.161 25.4313 28.4485C24.8688 28.6673 24.0188 28.9298 22.4625 28.9985C20.775 29.0735 20.2688 29.0923 16 29.0923C11.725 29.0923 11.2188 29.0735 9.5375 28.9985C7.975 28.9298 7.13125 28.6673 6.56875 28.4485C5.825 28.161 5.2875 27.811 4.73125 27.2548C4.16875 26.6923 3.825 26.161 3.5375 25.4173C3.31875 24.8548 3.05625 24.0048 2.9875 22.4485C2.9125 20.761 2.89375 20.2548 2.89375 15.986C2.89375 11.711 2.9125 11.2048 2.9875 9.52353C3.05625 7.96103 3.31875 7.11729 3.5375 6.55479C3.825 5.81104 4.175 5.27354 4.73125 4.71729C5.29375 4.15479 5.825 3.81104 6.56875 3.52354C7.13125 3.30479 7.98125 3.04228 9.5375 2.97354C11.2188 2.89854 11.725 2.87979 16 2.87979ZM16 -0.00146484C11.6563 -0.00146484 11.1125 0.0172852 9.40625 0.0922852C7.70625 0.167285 6.5375 0.442285 5.525 0.836035C4.46875 1.24854 3.575 1.79229 2.6875 2.68604C1.79375 3.57354 1.25 4.46729 0.8375 5.51729C0.44375 6.53604 0.16875 7.69853 0.09375 9.39853C0.01875 11.111 0 11.6548 0 15.9985C0 20.3423 0.01875 20.886 0.09375 22.5923C0.16875 24.2923 0.44375 25.461 0.8375 26.4735C1.25 27.5298 1.79375 28.4235 2.6875 29.311C3.575 30.1985 4.46875 30.7485 5.51875 31.1548C6.5375 31.5485 7.7 31.8235 9.4 31.8985C11.1063 31.9735 11.65 31.9923 15.9938 31.9923C20.3375 31.9923 20.8813 31.9735 22.5875 31.8985C24.2875 31.8235 25.4563 31.5485 26.4688 31.1548C27.5188 30.7485 28.4125 30.1985 29.3 29.311C30.1875 28.4235 30.7375 27.5298 31.1438 26.4798C31.5375 25.461 31.8125 24.2985 31.8875 22.5985C31.9625 20.8923 31.9813 20.3485 31.9813 16.0048C31.9813 11.661 31.9625 11.1173 31.8875 9.41104C31.8125 7.71104 31.5375 6.54229 31.1438 5.52979C30.75 4.46729 30.2063 3.57354 29.3125 2.68604C28.425 1.79854 27.5313 1.24854 26.4813 0.842285C25.4625 0.448535 24.3 0.173535 22.6 0.0985352C20.8875 0.0172852 20.3438 -0.00146484 16 -0.00146484Z" fill="white"/>
<path d="M16 7.77979C11.4625 7.77979 7.78125 11.461 7.78125 15.9985C7.78125 20.536 11.4625 24.2173 16 24.2173C20.5375 24.2173 24.2188 20.536 24.2188 15.9985C24.2188 11.461 20.5375 7.77979 16 7.77979ZM16 21.3298C13.0563 21.3298 10.6687 18.9423 10.6687 15.9985C10.6687 13.0548 13.0563 10.6673 16 10.6673C18.9438 10.6673 21.3312 13.0548 21.3312 15.9985C21.3312 18.9423 18.9438 21.3298 16 21.3298Z" fill="white"/>
<path d="M26.4625 7.45489C26.4625 8.51739 25.6 9.37364 24.5438 9.37364C23.4813 9.37364 22.625 8.51114 22.625 7.45489C22.625 6.39238 23.4875 5.53613 24.5438 5.53613C25.6 5.53613 26.4625 6.39863 26.4625 7.45489Z" fill="white"/>
</g>
<defs>
<clipPath id="clip0_510_1637">
<rect width="32" height="32" fill="white" transform="translate(0 -0.00146484)"/>
</clipPath>
</defs>
</svg>
