<svg width="32" height="32" viewBox="0 0 32 32" fill="none" xmlns="http://www.w3.org/2000/svg">
<g clip-path="url(#clip0_510_1635)">
<path d="M16 -0.00146484C7.1625 -0.00146484 0 7.16104 0 15.9985C0 22.7798 4.21875 28.5673 10.1687 30.8985C10.0312 29.6298 9.9 27.6923 10.225 26.311C10.5188 25.061 12.1 18.361 12.1 18.361C12.1 18.361 11.6187 17.4048 11.6187 15.986C11.6187 13.761 12.9062 12.0985 14.5125 12.0985C15.875 12.0985 16.5375 13.1235 16.5375 14.3548C16.5375 15.7298 15.6625 17.7798 15.2125 19.6798C14.8375 21.2735 16.0125 22.5735 17.5812 22.5735C20.425 22.5735 22.6125 19.5735 22.6125 15.2485C22.6125 11.4173 19.8625 8.73604 15.9312 8.73604C11.3812 8.73604 8.70625 12.1485 8.70625 15.6798C8.70625 17.0548 9.2375 18.5298 9.9 19.3298C10.0312 19.486 10.05 19.6298 10.0125 19.786C9.89375 20.2923 9.61875 21.3798 9.56875 21.5985C9.5 21.8923 9.3375 21.9548 9.03125 21.811C7.03125 20.8798 5.78125 17.961 5.78125 15.611C5.78125 10.561 9.45 5.92979 16.35 5.92979C21.9 5.92979 26.2125 9.88604 26.2125 15.1735C26.2125 20.686 22.7375 25.1235 17.9125 25.1235C16.2938 25.1235 14.7687 24.2798 14.2437 23.286C14.2437 23.286 13.4438 26.3423 13.25 27.0923C12.8875 28.4798 11.9125 30.2235 11.2625 31.286C12.7625 31.7485 14.35 31.9985 16 31.9985C24.8375 31.9985 32 24.836 32 15.9985C32 7.16104 24.8375 -0.00146484 16 -0.00146484Z" fill="white"/>
</g>
<defs>
<clipPath id="clip0_510_1635">
<rect width="32" height="32" fill="white" transform="translate(0 -0.00146484)"/>
</clipPath>
</defs>
</svg>
