<svg width="32" height="32" viewBox="0 0 32 32" fill="none" xmlns="http://www.w3.org/2000/svg">
<g clip-path="url(#clip0_510_1633)">
<path d="M29.6313 -0.00146484H2.3625C1.05625 -0.00146484 0 1.02979 0 2.30479V29.686C0 30.961 1.05625 31.9985 2.3625 31.9985H29.6313C30.9375 31.9985 32 30.961 32 29.6923V2.30479C32 1.02979 30.9375 -0.00146484 29.6313 -0.00146484ZM9.49375 27.2673H4.74375V11.9923H9.49375V27.2673ZM7.11875 9.91104C5.59375 9.91104 4.3625 8.67978 4.3625 7.16104C4.3625 5.64229 5.59375 4.41104 7.11875 4.41104C8.6375 4.41104 9.86875 5.64229 9.86875 7.16104C9.86875 8.67354 8.6375 9.91104 7.11875 9.91104ZM27.2687 27.2673H22.525V19.8423C22.525 18.0735 22.4937 15.7923 20.0562 15.7923C17.5875 15.7923 17.2125 17.7235 17.2125 19.7173V27.2673H12.475V11.9923H17.025V14.0798H17.0875C17.7188 12.8798 19.2688 11.611 21.575 11.611C26.3813 11.611 27.2687 14.7735 27.2687 18.886V27.2673Z" fill="white"/>
</g>
<defs>
<clipPath id="clip0_510_1633">
<rect width="32" height="32" fill="white" transform="translate(0 -0.00146484)"/>
</clipPath>
</defs>
</svg>
